<mxfile host="app.diagrams.net" modified="2023-09-12T01:00:17.500Z" agent="Mozilla/5.0 (Windows NT 10.0; Win64; x64) AppleWebKit/537.36 (KHTML, like Gecko) Chrome/116.0.0.0 Safari/537.36 Edg/116.0.1938.76" etag="Cv9_1DTfJ5ng2ShRs8rB" version="21.7.4" type="github">
  <diagram name="Página-1" id="8Mt59xhW5Ja87KvlYgC2">
    <mxGraphModel dx="815" dy="429" grid="1" gridSize="10" guides="1" tooltips="1" connect="1" arrows="1" fold="1" page="1" pageScale="1" pageWidth="10000" pageHeight="10000" math="0" shadow="0">
      <root>
        <mxCell id="0" />
        <mxCell id="1" parent="0" />
        <mxCell id="EgE4pv62jT90ue2VEDZU-1" value="Start" style="strokeWidth=2;html=1;shape=mxgraph.flowchart.start_1;whiteSpace=wrap;" parent="1" vertex="1">
          <mxGeometry x="990" y="60" width="100" height="60" as="geometry" />
        </mxCell>
        <mxCell id="EgE4pv62jT90ue2VEDZU-18" value="CC" style="rounded=1;whiteSpace=wrap;html=1;" parent="1" vertex="1">
          <mxGeometry x="20" y="1280" width="120" height="60" as="geometry" />
        </mxCell>
        <mxCell id="EgE4pv62jT90ue2VEDZU-19" value="CV" style="rounded=1;whiteSpace=wrap;html=1;" parent="1" vertex="1">
          <mxGeometry x="180" y="1280" width="120" height="60" as="geometry" />
        </mxCell>
        <mxCell id="EgE4pv62jT90ue2VEDZU-20" value="CP" style="rounded=1;whiteSpace=wrap;html=1;" parent="1" vertex="1">
          <mxGeometry x="335" y="1280" width="125" height="60" as="geometry" />
        </mxCell>
        <mxCell id="EgE4pv62jT90ue2VEDZU-30" value="" style="edgeStyle=orthogonalEdgeStyle;rounded=0;orthogonalLoop=1;jettySize=auto;html=1;" parent="1" source="EgE4pv62jT90ue2VEDZU-21" target="EgE4pv62jT90ue2VEDZU-19" edge="1">
          <mxGeometry relative="1" as="geometry" />
        </mxCell>
        <mxCell id="EgE4pv62jT90ue2VEDZU-31" style="edgeStyle=orthogonalEdgeStyle;rounded=0;orthogonalLoop=1;jettySize=auto;html=1;exitX=0;exitY=0.5;exitDx=0;exitDy=0;entryX=0.5;entryY=0;entryDx=0;entryDy=0;" parent="1" source="EgE4pv62jT90ue2VEDZU-21" target="EgE4pv62jT90ue2VEDZU-18" edge="1">
          <mxGeometry relative="1" as="geometry" />
        </mxCell>
        <mxCell id="EgE4pv62jT90ue2VEDZU-32" style="edgeStyle=orthogonalEdgeStyle;rounded=0;orthogonalLoop=1;jettySize=auto;html=1;exitX=1;exitY=0.5;exitDx=0;exitDy=0;entryX=0.5;entryY=0;entryDx=0;entryDy=0;" parent="1" source="EgE4pv62jT90ue2VEDZU-21" target="EgE4pv62jT90ue2VEDZU-20" edge="1">
          <mxGeometry relative="1" as="geometry" />
        </mxCell>
        <mxCell id="EgE4pv62jT90ue2VEDZU-21" value="Modo" style="rounded=1;whiteSpace=wrap;html=1;" parent="1" vertex="1">
          <mxGeometry x="180" y="1200" width="120" height="60" as="geometry" />
        </mxCell>
        <mxCell id="EgE4pv62jT90ue2VEDZU-28" value="" style="edgeStyle=orthogonalEdgeStyle;rounded=0;orthogonalLoop=1;jettySize=auto;html=1;" parent="1" source="EgE4pv62jT90ue2VEDZU-22" target="EgE4pv62jT90ue2VEDZU-25" edge="1">
          <mxGeometry relative="1" as="geometry" />
        </mxCell>
        <mxCell id="EgE4pv62jT90ue2VEDZU-29" style="edgeStyle=orthogonalEdgeStyle;rounded=0;orthogonalLoop=1;jettySize=auto;html=1;exitX=0.992;exitY=0.617;exitDx=0;exitDy=0;entryX=0.5;entryY=0;entryDx=0;entryDy=0;exitPerimeter=0;" parent="1" source="EgE4pv62jT90ue2VEDZU-22" target="EgE4pv62jT90ue2VEDZU-26" edge="1">
          <mxGeometry relative="1" as="geometry" />
        </mxCell>
        <mxCell id="EgE4pv62jT90ue2VEDZU-37" style="edgeStyle=orthogonalEdgeStyle;rounded=0;orthogonalLoop=1;jettySize=auto;html=1;exitX=0;exitY=0.5;exitDx=0;exitDy=0;entryX=0.5;entryY=0;entryDx=0;entryDy=0;" parent="1" source="EgE4pv62jT90ue2VEDZU-22" target="EgE4pv62jT90ue2VEDZU-33" edge="1">
          <mxGeometry relative="1" as="geometry" />
        </mxCell>
        <mxCell id="EgE4pv62jT90ue2VEDZU-22" value="Configuracion General" style="rounded=1;whiteSpace=wrap;html=1;" parent="1" vertex="1">
          <mxGeometry x="920" y="880" width="120" height="60" as="geometry" />
        </mxCell>
        <mxCell id="EgE4pv62jT90ue2VEDZU-25" value="Config ETH" style="rounded=1;whiteSpace=wrap;html=1;" parent="1" vertex="1">
          <mxGeometry x="920" y="980" width="120" height="60" as="geometry" />
        </mxCell>
        <mxCell id="EgE4pv62jT90ue2VEDZU-26" value="Reloj&lt;br&gt;Fecha y Hora" style="rounded=1;whiteSpace=wrap;html=1;" parent="1" vertex="1">
          <mxGeometry x="1080" y="980" width="120" height="60" as="geometry" />
        </mxCell>
        <mxCell id="EgE4pv62jT90ue2VEDZU-36" style="edgeStyle=orthogonalEdgeStyle;rounded=0;orthogonalLoop=1;jettySize=auto;html=1;exitX=0.5;exitY=1;exitDx=0;exitDy=0;entryX=0.5;entryY=0;entryDx=0;entryDy=0;" parent="1" source="EgE4pv62jT90ue2VEDZU-33" target="EgE4pv62jT90ue2VEDZU-35" edge="1">
          <mxGeometry relative="1" as="geometry" />
        </mxCell>
        <mxCell id="EgE4pv62jT90ue2VEDZU-33" value="Configuración Sistema" style="rounded=1;whiteSpace=wrap;html=1;" parent="1" vertex="1">
          <mxGeometry x="760" y="980" width="120" height="60" as="geometry" />
        </mxCell>
        <mxCell id="EgE4pv62jT90ue2VEDZU-35" value="" style="shape=image;verticalLabelPosition=bottom;labelBackgroundColor=default;verticalAlign=top;aspect=fixed;imageAspect=0;image=data:image/png,iVBORw0KGgoAAAANSUhEUgAAAz4AAAFwCAYAAAB5Bq7tAAAgAElEQVR4Aeydi1NTV7v/z/9x/oDfvOe0Z+p5z/vW14JACOGWCCFcjIJ4AVtRWy/FC4iK1qJArVK11BZrxVYRK5V6xbeKTvGGWrVT8T4YhQk3RQUme5LM9zc7yU723klgBRJIyMMMk52ddXnWZz1rr/Xda+21/wP0RwSIABEgAkSACBABIkAEiAARmOQE/mOSl4+KRwSIABEgAkSACBABIkAEiAARAAkfcgIiQASIABEgAkSACBABIkAEJj0BEj6TvoqpgESACBABIkAEiAARIAJEgAiQ8CEfIAJEgAgQASJABIgAESACRGDSEyDhM+mrmApIBIgAESACRIAIEAEiQASIgFP4/Md//AfonxiQD5APkA+QD5APkA+QD5APkA+QD4SaD7DIOonwYYlAYYhAuBHgGz79EYFgJUD+Gaw1Q3YRASJABIjAeBFg7QudIzrWCONVAMqHCAQLAWobwVITZIcnAuSfnqjQOSJABIgAEQgnAqx9IQmfcPIKKuuoCLA2plElTpGIwBgJkH+OESBFJwJEgAgQgZAnwNoXkvAJ+aqmAgSaAGtjCrQdlD4R8ESA/NMTFTpHBIgAESAC4USAtS8k4RNOXkFlHRUB1sY0qsQpEhEYIwHyzzECpOhEgAgQASIQ8gRY+0ISPiFf1VSAQBNgbUyBtoPSJwKeCJB/eqJC54gAESACRCCcCLD2hSR8wskrqKyjIsDamEaVOEUiAmMkQP45RoAUnQgQASJABEKeAGtfSMIn5KuaChBoAqyNKdB2UPpEwBMB8k9PVOgcESACRIAIhBMB1r6QhE84eQWVdVQEWBvTqBKnSERgjATIP8cIkKITASJABIhAyBNg7QtJ+IR8VVMBAk2AtTEF2g5Knwh4IkD+6YkKnSMCRIAIEIFwIsDaF5LwCSevoLKOigBrYxpV4hSJCIyRAPnnGAFSdCJABIgAEQh5Aqx9YYCEz1s8OL0HJYtzkaXTQqefj09Kv8HZh29DHqzXAnC38X1hAQoKxP9LsbxoK/b99gQDXiPSD8FOgLUxBWU53j7A6T0lWJybBZ1WB/38T1D6zVmMV1O0PP0ZRXPyUNncF5R4JoNRIe2fk6ECqAzsBCwGHN+yVNpPLlmG1aVVOHKtAxx7SuMW0v/XMAue/lyEOXmVaO6zjls5KCMiMNkJsPaFARA+Q/ijKhNK/WbUtbTB0NWFjse30FSzBtrIGdhy6SX82tTND9C4uwFt5gmu0qFTWDY1B1WXW9HaKvxfRXNjNT6dEY2Zu/7A4ASb6Nfsg4W7XwvlOTHWxuQ59gSeHfoDVZlK6DfXoaXNgK6uDjy+1YSaNVpEztiCSy99bYlmPGjcjQYPjc38oBG7G9ogb4bmtn3IT0xB0QnjBIKY3FmHrH9O7mqh0nkiwN1GuUaD9b9eF/WTl/HvozuxNDkGOdV3gq6fHMs1zPN10Yy2fflITCnCCaOv12BPUOkcESACPAHWvtD/wmeoCYUxeTjk1qCt6DtbCEXGbjy0+LGSTGewImIJGof8mOZokuKFzwcFOO7BDmvnEXwUtRB1XZPoIhcs3EdTVz7GYW1MPiYb8OBDTYWIyTsE96bYh7OFCmTsfgjfmqIJZ1ZEYImHxmY6swIRSxrhwf0DXs5wzyBU/TPc6y0sy28TPlnY89j9ymN5fgh5kXk47HbBCl1SdF0M3bojy0OPAGtf6H/h86oOeVFrcd7kAdrbY1gUsRJNnn7zEJzp1IgDcAsGug1oN/RgcFjdYcFAz3MYjG+k0+1cPzoNz9E7NGxkYBjhA+sL7MtRofSKdCLfMtgDQ/szGF9LzzOVGxYM9hjQ/syIYaNbBtDz3ADjG2keXH8nDM97MVyxLAPdMLQb0OMJnN+4s5V2IkOxNqaJtNFT3q/q8hC19jw8Nbe3xxYhYmWT22/D1jn8LXysGOp7AUPHSzc7XOXh0N9hwPPeIf/OFLsyCPmjUPXPkAdPBfCdwDDCB9ZO/DAnFiW/S/sqgLUPH8kcK4Z67WOBAXfdNVJkL79zeMVfn/o8X59GI3ysg73e+12RFdahPrwwdOClpwu8KBwdEoFwIcDaF/pf+JjbUKWLxdJjBqmAsJEfRE9Hr+2usLWzFvNUxWiWrf8y36nEjLSduMevmbH24lpNIWbGxyBGoYAiVo3ckkO4028XIdzlbUhT/AtT/vYepkbzYRJRcs51z3mwrR5F6QpEJ+qQoY1DRHQmShoeiwZZFrTvnQX12t0oW6BDWpYeuvgIROhK8OvTHlyvXopMbTr0WRpEvh+L/OpWOLJ296PhhI/5Dio1Wuz4y7EQ6M1d/FiYhuioRKTrs5ASGwX1x9/j9hshWbtdmrJTOFE2DzNUSkSrVuJ4r73cb+7+iMK0aEQl8ralIDZKjY+/vw1X9HbsnaXG2t1lWKBLQ5Zeh/iICOhKfsXTnuuoXpoJbboeWZpIvB+bj+rWfumgcrAN9UXpUEQnQpehRVxENDJLGvDYcYH1F3dv5RMoBMsna2MKFnsFO8xtVdDFLsUxg3wgAWCwBx29rraCEeoc3GVsS1PgX1P+hvemRiMmRoHEknMYAofL29Kg+NcU/O29qYiOiYEisQTOZshdxaaEXBxw3sV1tLnib/Hlh2lISdcjUx2JaaoC7G19JfJDK/pv1mBp0geISEhDhlYNbcHXOPRZKrL2PBaKSJ8+TO8TLCIw4QSGEz54ibq8KKy94BrJj9yHW9F7rQaFM+Nt1ySFIhbq3BIcuiPt07gnJ7ApWwVFcgZm6hIQpUjHmkN3ZX2mBmWnTqBs3gyolNFQrTxux+V2DeNvAEWioLoORRkJUOsykKqIQGxuJc53Copq+Osid3UTEnIPSGfjTY/xywY9YqMSkJaRhoSoWOg3NOCR6DJtad+LWepifPvlh0hLSYc+U43IaSoU7G3FqxHuzU543ZMBRCDABFjHav4XPgBMD+tRqFFAu7wKjXe6PQggXtR04uB8FYouiJWPGXe/SEXaTv5ZASv6Gj+BctYOXOlyDNxML9C8NQNxy0/A+Uygt5mHgRaUJmuwrum5M/+39w9jiUqLHXeEgaAFT6oz8M4Hi3BIGNVbX6H1Cx2mxWrw0ZfXnRcT0+M6FExPQNkNIa6sBr0Knze4W7MAisw9jueQONwoS4ByRSOc41GLEU1r4qEuv+WwlbcrC/+MSMea+geQbAnB3UBZghIrGl3C0mJswpp4NcpvOWyzPEF1xjv4YNEhp1ixvmrFF7ppiNV8hC+vCwNMEx7XFWB6QhlcxRpAS2kyNOua8Fwo6tv7OLxEBe2OO65Cj5m7l/K5cgiaI9bGFDQGOw0x4WF9ITQKLZZXNeJOt1ChzgCOA8Y6H82MD3cZG1VzsL9T6JXtbe7d93Ow+4/XDqFjwpP6xYiOXY/fhcvBqyasUqjwacMTx/I5C3qv7UDO1PeQtuuhvABh/T10/TOsqy08C++L8GHow619jfhEOQs7rnQ5+k4TXjRvRUbccpwQBgmmm6hIScDK4+3Om54mwxmUaJQoPNNnvwbxfWbWPxGRvgb1DyQ9LvibPtJr2BBOLfs73o1chP1tjm2LLH1o3TkL0fNr8UzQPvxYyMsSYO7yRqjm7IfzsohBXC/TILHwOJ4KQmeoHb+uTkLy5svOzZEsT6qR8e77yNn9B147LqmmJ/VYHB2L9c6LZ3i6FpWaCLD2hQERPjb8nBGtdVtRoIlETOan+Or0A2dDtVePFcbD+VAVXXA9zGi+hx1p6fjqAT8zYsa9HWmYWf1Y+hzCqxZ8t/MUDMLFxcsA3HRhLRT5degRxlu2TC14tncWNNtuOTzELjAU6y45xZHth746LPh7HupeOoLZPjhcKVVh1rfPpPYIQXjh83/vIz4zC1lZwn86UlTRSJhfgabnwmPfVrx8fAsPHbM3QnSu9XMk6vei3VYu3q5M/GNhvcx+XjC+xONbDyGNzqH180To97bbk7NdxBVYd0k60O2rW4C/59VBWqwrKFXNwrfC1dp0AWsV+aiTgoPl2V7M0mwTzOWv6B6frWLn7qV8rhyC5oi1MQWNwTJDOGMr6rYWQBMZg8xPv8LpB4LgcARkrXO/CZ8sRK7+Tfo8kPlPbE9RY9sfdp8dPL0c0/Pr0C1pvwM4s2IadCR8JDUc6v4pKQx9mdwEfBA+LH2J+d4OpM2shvSRoVdo+W4nTjkGCdyVUqhm17jGDA7C/afXYfa2Fnvfz/eZmf/Awvoe0ayzI6BH4fMPKDdfk44bhs5jbZQe39o7cVtkZuHDXURx7DzUOmfG7Xlbu37E/Og1+M0xCcYLn6zI1fhNEEe2YGb8uT0F6m1/OAymDyIQngRY+8LACR8n9wG0N+9D8cxoKHJ34HfRSMbaU49FCUU477jLa27bifSZXzsvYlxbDeYm6bHhh/O43ycdxDuT9zIA7zu0ADGrTsPY14c+0b+xvgCRK844ovMCQw/11puyC9hJLItYhpOyi8tfX2qRufuRd+EzLQ+1TzvQ0WH/7+w0om9QEDxOi+0HXA8eXD2HEw3H8PPRozjy1SIodFW4bwtutyup7IbULlESXM8DXD13Ag3HfsbRo0fw1SIFdFX37SH4i7heja03pcyGTi5DxLKTsgHnX/hSm4ndjxxKsu8QFsSswmmjlFufsR4FkStcFviB+3Dlc2U08UesjWniLR3BgoF2NO8rxsxoBXJ3/O4SFax17jfh46HNWTuxf44KGy/zPmuB4bvZSPy8Veb/HP4o1yCdhI+koieNf0pKRV8mJQEfhA9TH861oWZuEvQbfsD5+32y64WdYH/9QkSt/s052+ORq63PTPK8osOj8JmK/PrX0qQcz/Lar2H2n5iFD/9sdEwRmqVdNsALIsU8HHSMm3jho1dvhbRrt6Jz/xyoNl6W2kPfiECYEWDtC8dB+DjIW3rQsk2HqLxDrjsv1j40FCSgyKZ8zHjwVRay9z6VCAuu8zrqtq9CbmoCNDkrsf3YHdcyNz5pjwNwK7oP5mLKVBVStVpoZf+zK1sEo/wrfLzs6ib1PSteXtuF+bFRSFm4GqVl5aioqED5Wj0i0qTCx02Q8QlZX+LarvmIjUrBwtWlKCuvQEVFOdbqI5DmB+Fj7T6I3ClToUp156adXekqSiC4u1IPqiPWxhRURg9jjKWnBdt0Ucg7ZLC1NeY6H0fh82h3JmZU3pFtj23GncoUEj6yup1s/ikrHn2dTASYhQ9rHw6A68T1uu1YlZuKBE0OVm4/hjvCMjdY0VU7F8r1jpkdbyy93Cy0BfcofKah4BfJnVHA2oMf5ytQfNGlXliFj9VYi9y4DWhxRbVbKsubhI+3CqTzRGACt7M2NRVBW3rR450XDJzFysg81IneZfiq8RMkFf2GQfMj7JmVixphyZVbLVrw5slF1CxNhmbjBeezN56FD9BftxDKkt892+FM288zPizCh2tFWWIi1l2QTqmb725HqmzGx5Pw4VrLkJi4DhckS9HMuLs91T8zPv11WKgsgdvGOk5mjgOPwmeM3OV5BMn30BxYmtBUpEWpqBMW4xw4uxKReXWwNUXWOh9H4WOoyUaCfCkJONzapibhI65I2txARoO+BjWB4YSPtRc/zY9BkWPag60Pl5bW8uYJLtYsRbJmIy44nvZ/Xf8h44yP+yoJW+oy8QHwz/hMxUIvMz6ltllru12swgev6pDvccanGcUxNOMjrWX6RgQ8E2Adq/l9xodrWY+4nH14Llmb7zDy7Uksm16ABvEMcf9JLFevRdNf1ciZ/4Monhl3a5aj/Lz0QUOLoQazFaKBueksVkYU4LjwULQjK65lAxI+OiJ7Fgbgug144Uxy/IWPtasWc2PXQfb4DbirpVCNKHzsd69i5c8kgcPVUpV/hA/Xgg0JH+GI9CEiHhwMLnBAILh79uUJP8vamCbcUIkBHFrWxyFn33P3NesA3p5chukFDbA1RdY6hwlnV0agQN7Y+InXsysRUXDc9byeYIvboMFLm5MsdQP4dxBFztkvuh7wCfbjl4L3aXMDga3jMzT9U1YI+hoeBIYTPkOXUapKQ5XjBcksfbj5bg2Wl5+XbgBkMaBmtsK5Lbatb/X0jM9vFfh03137zVGfZ3z+AZV8Ke7bJhRO1+M75wPI3q+LbpsbcBexTjkfB2Xv+rPNBEWvcb4ehGZ8wqOZUClHR4C1L/S78MHQLXyhVWDursswiqdtuQ6c/ywNqk9PyR7Yf4MzhcmYMzcL+Qc7RYM0K4xHCxCrr8SlTkdCXCcubtUhMv8wOgRhxd1EWWI8Si4KO5U5gJluoFyrQfEZ165ulq5L+DxNhcKzrxyBvAzChkb5jA/LjM9QM4oVGmy54rKX67qGPfOm4R3tyEvdhpqLodBswRXn3pUcuq7twbxp70Drh6VugAk3yrXQFJ9x7epm6cKlz9OgKjzr8sZAcHelHlRHrI0pqIwGMHTrC2gVc7HrslEy88l1nMdnaSp8ekqYdWSsc3C4WZaI+JKLrhlXR6G5m2VIjC/BRadfCj/Id0Ty0uZkwgdvW1AaH4UF1dfRZXvuzQTD6fXQ/XMKCR+Zo4Wqf8qKQV/DgYA34TP4FKc2pCJqwUE8dW5cNHIfbjUeRUGsHpWXOh3XOA6dF7dCF5mPw8IggfsDldokFJ5w7YTKdfwbpSlKfHpatKubh+dibVXidvPGvqvbf0UUiHaDfYnr2zPxwewa5zPKfFxv10U34YMhtG5NgXrNCTwTdvMeakdjYQKSZLu60TM+4dBQqIyjIcDaF/pf+PCPJhtbUL1cB0VUPLSz5mDObB2SlInIWX8E95yzLa5iDZxbhQ+mLMAh2Y4m/PMst2qLMUcdB6VKCUW0ChnLvkZLl3Bl5NOwwHCyFLPjIjE9NhVbREt7TI8aUDJTCYVGj5xZWqhU6Sg8cNt+l9uWveN9OeW3JQNDDJ3G8ujlOC1ZwmvGvZ1pmPm1bJc5oRj80q/IpfhVEkf4UfxphfF8BeYopyM+PRuzM2YgWbcEu2pLoc3YhYeOXd349wtp5HbxyViNOF8xB8rp8UjPno2MGcnQLdmF2lItMoSHvi38e3w0KL8tVp7A0OnliF5+Wra5wT3sTJuJr8Xb4pgeoaFkJpQKDfQ5s6BVqZBeeAC3xTN1geAuxhREx6yNKYhMdphigbGlGst1CkTFazFrzhzM1iVBmZiD9UfuSe+SMtU5YDGcROnsOEROj0XqFtGSVosBJ0tnIy5yOmJTt8DZDN3egeGlzVmNOJCbgE1XXT5renIalQVaKKIUUCVokF30E45tmeHy8+ADPiEWha5/TgguynQiCfDvtEuegvejlVAq+f84xMUp7e/oW/8TbstunIzch1vx8lYtiueoEadUQamIhipjGb5u6ZI+K/ykEaV6FeJS9MjO0kChSENh7W3XTrNe+kwbKrdrGC98piFvew2WaROQMlMPXVwEovWbcdog28zIy3VxuPf4KBXJyNRnIjlGgczin/FANKawvcdHUw5p126F8UAuEjZdnciapbyJwIQTYO0LAyJ8nKXnXsNoeIqnhh4M96ZkU0spNIvqXbtMORPwx4EVgz0GtL/ow5BYL/kj6bGkYR1Cr6Edhq63sge42RK1Dtnf7tz1VnahZYvOFMo62AND+wv0jQpckHJnKrk0EGtjksYKrm/cayMMT5/C0DMgGRDIrRxbnctT8/d3DheLFcg9YPR3wiGd3mTwz5CuADI+wAT81ZfY03lq6B52PDJyYXjh8wEKjvOKxISXL9ph6BkUrVYZOYXhQtiuwU8N6B5u0DRcAvQbEQhTAqx9YWCFDxP81zi3Ro1PGiVvl2GKSYGIwHgQYG1M42FLOOdh7W3CKqUWO+8FTuyHIl/yz1CsNbI5dAmIhU/oloIsJwKTjQBrXziBwseC3kfX0VSzDGptBW6IpnMnW2VQeUKbAGtjCu1SBqf11pePcfPKeTTu34oCdSyyq1rRH5ymTphV5J8Thp4yDksCJHzCstqp0EFPgLUvnEDh04/mqhUo3FiNf7e71vUHPVkyMOwIsDamsAMzDgV+fWkXVq4swuadtWhqeznsMr1xMCcosyD/DMpqIaMmLQEOt78vxnetNG6ZtFVMBQtJAqx94QQKn5DkSkaHIQHWxhSGaKjIQUCA/DMIKoFMIAJEgAgQgQklwNoXkvCZ0GqizEOBAGtjCoWykI2TjwD55+SrUyoRESACRIAI+EaAtS8k4eMbVwodhgRYG1MYoqEiBwEB8s8gqAQygQgQASJABCaUAGtfSMJnQquJMg8FAqyNKRTKQjZOPgLkn5OvTqlERIAIEAEi4BsB1r6QhI9vXCl0GBJgbUxhiIaKHAQEyD+DoBLIBCJABIgAEZhQAqx9oUT48JHonxiQD5APkA+QD5APkA+QD5APkA+QD4SSD7AoL4nwYYlAYYhAuBHgGz39EYFgJUD+Gaw1Q3YRASJABIjAeBFg7QudIzrWCONVAMqHCAQLAWobwVITZIcnAuSfnqjQOSJABIgAEQgnAqx9IQmfcPIKKuuoCLA2plElTpGIwBgJkH+OESBFJwJEgAgQgZAnwNoXkvAJ+aqmAgSaAGtjCrQdlD4R8ESA/NMTFTpHBIgAESAC4USAtS8k4RNOXkFlHRUB1sY0qsQpEhEYIwHyzzECpOhEgAgQASIQ8gRY+0ISPiFf1VSAQBNgbUyBtoPSJwKeCJB/eqJC54gAESACRCCcCLD2hSR8wskrqKyjIsDamEaVOEUiAmMkQP45RoAUnQgQASJABEKeAGtfSMIn5KuaChBoAqyNKdB2UPpEwBMB8k9PVOgcESACRIAIhBMB1r6QhE84eQWVdVQEWBvTqBKnSERgjATIP8cIkKITASJABIhAyBNg7QtJ+IR8VVMBAk2AtTEF2g5Knwh4IkD+6YkKnSMCRIAIEIFwIsDaFwaB8LFg6/YmdFnDqXqorKFEgLUxScpk7cPd41UoLpiDrPRM5Hy4Gl/UtcLISULBYmj07v/mB6gr/QoX+11xLB2nUF78A24Pus65jsz46+B6VF/x9COHOwfW49tWkzO4xXAcW5YWoKDA8/+S0mN4YnEG99OBFd3ndqCsoR32pC14+nMR5uRVormP/SJg7T6HHWUNaB/WPnlefipCkCUzKv/0Sxne4sHpPShZnIssnRY6/Xx8UvoNzj5865fUfU2EzSd8TTUMw1u7cW5HGRqGb1xhCIaKTASIQDATYO0Lg0D4cNBk7cHjYQcwwYyabJvsBFgbk5OD5TkaVyZAteALNFx7iBfGTjy+eRK7FidC+eFPeCwSP9ztcu/+z7VgQ1wuDhhdgsDcthMp//U/SKv6E6JkHFmb8Nua6civEyklwSjuOj5LzEGNwdXQbHlr1uPX661obXX/v3GvA54klJDk6D4teFKth3rrTYf9ZrTty0diShFOiMo5UtqWJ9XQq7fipjsEUVR5XqKfJtGhz/7pl7IP4Y+qTCj1m1HX0gZDVxc6Ht9CU80aaCNnYMull3B5LVuG5geN2N3QBvNIwc0P0Li7AW2ygGw+MVLiE/m7GQ8ad6NBXrDxNsnyBNV6NbYO37jG2yrKjwgQASIwLAHWvpCEz7AY6UciALA2JoHV23+vRmzmLtyTD8ot7TgwV4ElDb3OQeFohI82UgHFtGzUPJaN/OBd+HC3tkEzs1pyg2HYvIXC+P3TP2KEbZDrn7z8jsDPCfrqn37JfqgJhTF5OOQmVq3oO1sIRcZuPHRpbKYsTWdWIGJJI4ZGCm06gxURS9AoC8jmEyMlPpG/m3BmRQSWyAs23iaR8Blv4pQfESACfiDA2heGpPCxDPbA0P4MxtfykaWYnBVDfS9g6HgJ1+Ie8e/2Y66/A4bnvRjy9fake1JgsovrR4fhOXqHzdCCgW4D2g09GPSDXR5MpVM+EGBtTPYkObR+ngh99VPHUi5xRlb0/rQAiuJm52zNsOLDy4yPLmsnft2ehoj8wxBN4ABehY8Zf25Pha7qvuRu+rB5i82WHI+1XflHjIgHudahPrwwdOClW0MX58Vmt6SoIfLFN//0U6Fe1SEvai3OuzEH8PYYFkWsRJPbb8Nf1/wpfLz7hKj8lgF0G9ph6Bl03ogQ/ToBhyMLH8tANwztBvSM0DFYBnrw3GDEG0kXyaG/04DnvUPDl9er8LFgsMeA9mdGDNv1gq2t+a/vZbOLLb/hfXQCnIKyJAJEgJEAa18YWsLnzV38WJiG6KhEpOuzkBIbBfXH3+P2G4GKBe17Z0Fd/C2+/DANKel6ZKojMU1VgL2tryQXe2v/TdQsTcIHEQlIy9BCrS3A14c+Q2rWHiExcJfWQflRPV47z/AHHFo/S0LeoV7X2RHtAmDtx82apUj6IAIJaRnQqrUo+PoQPkvNwh7ROr/BtnoUpSsQnahDhjYOEdGZKGl4PKx4cxlCR4EgwNqY7HlzaC5WYMFPrlkdsU3W7nu41ub6bVjx4VX47MGj19dRpo7Gsl+7RH7tZcbHfB9VulRs/1M6QzRs3mKj4c92JRYjDmJXNyEh9wBckwdW9F6rQeHMeMTEKKBQxEKdW4JDd/qdZbUJn6QifPPlh0hLSYc+U43IaSoU7G3FK+fNAnteSUXfjHg9kBQ3xL745p9+Kpy5DVW6WCw9ZnCKeFfKg+jp6JXM3Ax/XeNweVsaFP+agr+9NxXRMTFQJJbgnGxGh0+fu7wNaYp/Ycrf3sPU6BjEKBJR4gjI5hN8KoNoqy9CuiIaiboMaOMiEJ1ZgobHbkrNWSRr7zXUFM5EPG+bQoFYdS5KDt1BP+9r1k7UzlOhuFm2MNR8B5Uz0rDznr3dDZsGdxnb0hT415S/4b2p0Ta/Tyw552I42Ib6onQoohOhy9AiLiIamSUNEJtsad+LWeq12F22ALq0LOh18YiI0KHk16fouV6NpZlaW7+piXwfsfnVaLUZ7yyi68CD8Hlz90cUpkUjKjEd+qwUxEap8fH3t+Hsev16jeBwaZ0SHw8d5p8AACAASURBVNVLe15wrfgsKQ/Srncku/iud+S+3uYV1Pe6fICOiEAIEmDtC0NI+HC4UZYA5YpGGIS7WBYjmtbEQ11+y9H58gOdDLz7fg52//HaMUgy4Un9YkTHrsfvzn7pFZpWKaD6tAFPHJ2rpfcaduRMxXtpu5zVzTUXQ5FfB+kTExyubkrA/B97HOFY7AJeNa2CQvUpGlwZ4tqOHEx9Lw27HjoGpAMtKE3WYF3Tc+dg4u39w1ii0mLHHaHQTvPoYJwIsDYmuznDCx+5ycOKD2/CJ3M3HlmA1xdLoIorwvlXQqqehY/lcTVmarbhlsyFhs1bSNL26c925UH4XN4I1Zz96HQIFmtfIz5RzsKOK12OdmDCi+atyIhbjhOODRD4QW7Gu+8jZ/cfeO2IZ3pSj8XRsVjvbOisdksKG3JffPNP/xXP9LAehRoFtMur0Hin23nNcsuB8brmjxmfkX0CGGgpRbJmHZqeCw3iLe4fXgKVdgc8XmatfWj8RIlZO66gyxHF9KIZWzPisPxEH6ywovPgfKiKLkieiTPf/QKpaTvtzyKNmAZPzduMzwBaSpOhWdcEl8n3cXiJCtodd5y4bW3inQ+w6JBwo8yKV61fQDctFpqPvsR14Y6A6THqCqYjoeyG5zqTCx/uBsoSlFjR6BK5FmMT1sSrUe68qLC2NZa+134NdXtWkbuKTQnz8WOPo8Ez2cWSH3inoL7X6Ul0QARCkwBrXxhCwseKl49v4WGv46LnqBeu9XMk6vc6dnfiL75ZiFz9m+tOGR/O/Ce2p6ix7Q9HrzV4Gsun56OuW5rWwJkVmKbzVfiw2DWI08v5h867nXesbeYPnMGKaTqn8DFdWGsTWsJ13V5EC57tnQXNtluOEtPHeBNgbUx2u3wXPkn/FwNtVhay5P+ZyYiYkuO2uYHOIXxg7cWZQgWStlzFgC1zT8LHAkNNNhI3X3Mb5PDCx1Pe+mU/yB4c92e74tMSb27A38WXCh/zvR1Ikz2PBLxCy3c7ccqxto8f5GVFrsZvklkBfklfCtTb/nC4CKPd4+1Qfs7PN//0c+acEa11W1GgiURM5qf46vQDpxAVcmK9rvlD+IzsEyZcWKtAfl2P9FpseYa9szTY5hzIC9bz/cc97EibiWrRzDz/66uW77DzlMG2pNVqPIx8VREuOG+umXFvRxrSv3pgX17KkIZX4WO6gLWKfNRJOwZYnu3FLM02p6G2NqFYh0uCnrP90oe6BX9HXt1LZzj+gLtSCtWsb/HM03NYcuFjfYnHtx5C2vU6lvTubXeky9jWmPpeRuHDYhdTfgCrj0og0hciQASCigBrXxhCwsfBl+vBg6vncKLhGH4+ehRHvloEha4K922TJu6DKlssayf2z1Fh42V7j2AxfIfZiZ+jVdJBANwf5dCk+yp8GOyyGPDd7ER87p4hyjXpTuHTd2gBYladhrGvD32if2N9ASJXnAkqBwsnY1gbk52J78JHo63Atecd6OiQ/RtOYrXCfVc3p/DhV9kYG7Akmp8R5JfpeBA+1g7Uzo3H+t/dl/HYZnw85N3Z81byLBDgz3blnpZc+IBrQ83cJOg3/IDz9/vcBBvPmR/kue/qZkXn/jlQbbzscE/3vGw/yK4HjsAh++GbfwaqmANob96H4pnRUOTuwO+im0qs1zV/CJ+RfaIPhxbEYNVpo+Qa29dnRH1BJFaccW8n/PLmtpq5SNJvwA/n76NP1m/YfaoH9YsSUHTeoXzMbdiZPhNfO8USQxreZnz6DmFBzCqcNkr7hT5jPQoiVzgr1HObGMLJZRFYdlJyhwDmv76EVriB4kzBcSAXPo7TXM8DXD13Ag3HfsbRo0fw1SKF7blB+89sbY2t72UUPgx2seUHsPqoI0v6IAJEIAgJsPaFISR8rHh5bRfmx0YhZeFqlJaVo6KiAuVr9YhI81H4PNqNzBmVuCN95AHmO5VI8Vn4MNhleYTdmTNQ6Z4hKlME4WNF98FcTJmqQqpWC63sf3ZlSxC6WXiYxNqY7DRGIXy8befubalbxi7RjlkWPPsxD1Gz9uKh2V34WLsOI49fDue8E+2qM9+WuklnaWypyASEhalduQ+Q3IQPnzjXiet127EqNxUJmhys3H4Md0Tv+fE8yCPh46rdCTqy9KBlmw5ReYccG2+wX9fGRfhYu3EwdwqmqlLdrrFa7WxUtnhSNTaHROf1OmxflYvUBA1yVm7HsTv8Mjfhz4q+hgIkFJ23LXczP/gKWdl78VQyo8KNkIbnpW7W7oPInTIVqlT3fkE7u1IwwMvNAD8IH+tLXNs1H7FRKVi4uhRl5RWoqCjHWn0E0qruO/J3b9e2H0Z1jWAUPgx2sV2T2H3UCZsOiAARCDoCrGO10BE+XCvKEhOx7oJ0iYL57nak+jzjU4PshM24Juvj+C1/1b4KHxa7LAbUZCdgs3uG2KYWhA/QX7cQypLfPd7hDjoPCyODWBuTHQmHlg1xyD1gFA2KXLAGTq2BtvSis46HFR9MwodfivMI32VHI+/HRzgneY+PFX0/F0BZ2ORYCueygz8aNm9JUMZBjYGlXbmn5VH4iPK3vHmCizVLkazZiAuO5xRI+LgA+eafrnhjOTI1FUn8WJLWwFmsjMxDXZ/9LOt1bVyED/pRt1CJkt9lF39JAUb4YnmDJxdrsDRZg40XRJvmvGrEJ0lF+G3QjEd7ZiG35pmHnR0daXtMw7PwQX8dFipLMJLJntvE2IUP11qGxMR1uCBZamfGXcdOkfYSubdr23m58GG6RrAJHxa7LEz5Ud87gsfTz0QgJAiw9oUhI3ysXbWYGytfvwxwV0uh8lH4gH8HReQc7H/uul/H12r/LwV4X7y5Ab8O2vn8kFDvA7Z3LcxzbG7AZtcQmgojMWf/c+lguP8XFLzv2tyAa9mAhI+OyNZSA1y3AS8m5mXoQqHD+pO1MdkhWdFZOxeKladlm2Lwvw6iZWM89NVPnAOiYcXHcMJHNlvJ/VkFnWIR1iyMFL3AtB+NH8di2QnZ7kiO2hw2b0mNsw1q2NqVe1py4WO+W4Pl5echcXn+5sFshXPA6nmQRzM+kmoL4BeuZT3icvZBdgm15/j2JJZNL0CDw+1Yr2umsysRUXBcskGAxyKYzmJlRAGOy2Yx2XyCvzGRgI+OuHZWtOfBodvwQupzQubmu6hZXo7zUoeEoWY2FJIbVf04uVyNtU1/oTpnPn4Qw2FKw4SzKyNQIC8Yfx1I+AhHpA/Z8B0DDKKOwXP5xyp8rOiqnYvYdZecN2sEXldLVT4vdWO7RnC4UqqCfm+78zppy5N/JjZinmNzA0a7WPt66nsFb6dPIhCyBFjHaiEjfDDUjGKFBluuuO6wcV3XsGfeNLyj9W2pG/AWLaXxiFpQjetd9hGkyXAa63X/xBSR8MGr01gxPRElF7ocF2Ar+m9WQf/3dzFX2NWNyS7gbUsp4qMWoPp6l/35CZMBp9fr8M8pLuED0w2UazUoPuPa1c3SdQmfp6lQeNa5dVfIOmWoGs7amITyWV+dx7qEeCyraxMNpAbx5NciaOILcVr0/MOw4sOb8En/Cg9kwocXVa3bkvHf/+8d5NU59iF8cxorYgvQIH2uWTDT7zM+bO1qZOFjNR5FQawelZc6HYMtDp0Xt0IXmY/DHfabFZ4HeSR8nJUb6IOhW/hCq8DcXZdhFE+ecB04/1kaVJ+egnOCgPG6xt0sQ2J8CS4Ku495KwN3E2WJ8Si56OoL+KBsPgGYbpRDqynGGecWaRZ0XfocaapCeLzMWo04WhALfeUldDrKynVexFZdJPIPd0huZr05U4jkOXORlX/QuUuhrRhMaXC4WZaI+JKLoi3Z+dgm3CjXQlN8xrWrm6ULlz5Pg6rwrJOS5/KPVfgAQ/zuppotuOKsFw5d1/Zg3rR3oPVxqRvbNQJ4dXoFpieW4EKXY60g/zqIKj3+/u5c565ubHYx9vWMPuqETQdEgAgEHQHWsVoQCB8zkqe8j2ilEkr5f1wCCg4Id8etMJ6vwBzldMSnZ2N2xgwk65ZgV20ptM5nHuzvG9GU35benbIacSA3AZuuinpo0xOcriyAVhEFhSoBmuwi/HRsC2ZkuDY3AKzovrQD8+MiEKfLRk7mDKTkVWLPqgTRe3xY7OL9w4QnpytRoFUgSqFCgiYbRT8dw5YZGdglesW56VEDSmYqodDokTNLC5UqHYUHbsveJRR0/japDWJtTGIIpienUL5wBpTxWszKmQ1dohLq+Vtw/KH0NrXtuTJ9NZ5IngVwpMRdQalqLmq7XDOT5vtVSPf2UPKb31EaPwX5jvdfmC4UQfVRvWsAKjaQXyF3p9J721MqEb9gr2N3N3+2K/e0OA/v8Xl5qxbFc9SIU6qgVERDlbEMX7cINyAA2ztLNOW4LWrSfHs1HshFwqarjpK652X7wdP1QMYmlL6Oxj/9UT6LsQXVy3VQRMVDO2sO5szWIUmZiJz1R3BPMjsCMF3XLAacLJ2NuMjpiE3dgouSuhVbbIHhZClmx0ViemwqtjgCsvkEn44JjxpKMFOpgEafg1laFVTphThw2/PMKB/D+vIWaovnQB2nhEqpQLQqA8u+boEwLndaN3AOqz6YggWH3Je6sqRhMZxE6ew4RE6PReoW15JYmB6hoWQmlAoN9DmzoFWpkF54AGKTPZd/CKeXR2P5adnmBvd2Im3m13DuveAsAK8g22073JULjctqxPmKOVBOj0d69mxkzEiGbsku1JZqkbHroSOmD22Npe+1duPSjvmIi4iDLjsHmTNSkFe5B6sSRO/xYbKLr26Wvp7RR8Wc6JgIEIGgIsDaFwaB8PGRm3UIvfzbtrvkO0/5mI6H4NzFYihyD7j/IuTZO8wbvoUwvtjFXUSxbNcue+ZW+xuyX/RhyNOA2N1COhNAAqyNyZMJlsE+dBieo2fAbYrGU/BJec5ru5qUpR3/Qo3FP/1iLfcaRsNTPDX0YGDY61WQXdesg+gxtONF35B0SdVYoJhaUKpZhHrRrO5YkpPHtQ72wND+An0T0DFYh3phaDeg663/r2XerhFCnr2Drps/bkxGYZe3/PibJ4M9BrRT3yvHTN+JQNATYO0LQ0/4BAq9tRdNq5TQ7rwXqBxk6VrR27QKSu1OOF7sLfudvgYLAdbGFCz2BpUd496ugqr042IM+ee4YGbK5PW5NVB/0ggvq0uZ0gi7QON9jRjv/MKuQqnARGBiCLD2heEtfPgXoN28gvON+7G1QI3Y7Cq0Oh6PCEy18S87vYkr5xuxf2sB1LHZqApshoEpRpilytqYwgyL9+KOe7vybko4/EL+OfG1bOl9hOtNNVim1qLihnRZ2cRbF4QWjPc1YrzzC0LkZBIRmOwEWPvC8BY+ry9h18qVKNq8E7VNbXg57DINf7jMa1zatRIrizZjZ20T2gKfoT+MDvs0WBtT2IMSAIx7uxIyDs9P8s+Jr/f+5iqsKNyI6n+3S58vnXjTgtOC8b5GjHd+wUmdrCICk5oAa18Y3sJnUrsAFc5fBFgbk7/yo3SIgC8EyD99oUVhiQARIAJEYDISYO0LSfhMxtqnMvmVAGtj8mumlBgRYCRA/skIioIRASJABIjApCXA2heS8Jm0LkAF8xcB1sbkr/woHSLgCwHyT19oUVgiQASIABGYjARY+0ISPpOx9qlMfiXA2pj8miklRgQYCZB/MoKiYESACBABIjBpCbD2hSR8Jq0LUMH8RYC1MfkrP0qHCPhCgPzTF1oUlggQASJABCYjAda+UCJ8+Ej0TwzIB8gHyAfIB8gHyAfIB8gHyAfIB0LJB1gEnUT4sESgMEQg3AjwjZ7+iECwEiD/DNaaIbuIABEgAkRgvAiw9oXOER1rhPEqAOVDBIKFALWNYKkJssMTAfJPT1ToHBEgAkSACIQTAda+kIRPOHkFlXVUBFgb06gSp0hEYIwEyD/HCJCiEwEiQASIQMgTYO0LSfiEfFVTAQJNgLUxBdoOSp8IeCJA/umJCp0jAkSACBCBcCLA2heS8Aknr6CyjooAa2MaVeIUiQiMkQD55xgBUnQiQASIABEIeQKsfSEJn5CvaipAoAmwNqZA20HpEwFPBMg/PVGhc0SACBABIhBOBFj7QhI+4eQVVNZREWBtTKNKnCIRgTESIP8cI0CKTgSIABEgAiFPgLUvJOET8lVNBQg0AdbGFGg7KH0i4IkA+acnKnSOCBABIkAEwokAa19IwiecvILKOioCrI1pVIlTJCIwRgLkn2MESNGJABEgAkQg5Amw9oUkfEK+qqkAgSbA2pgCbQelTwQ8ESD/9ESFzhEBIkAEiEA4EWDtC0n4hJNXUFlHRYC1MUkSt/aj7eQelCzOxcz0DGTnF6Li0FV0cJJQgKUDp8qL8cPtQdkP9q/mvw5iffUVePqVu3MA679thUkS04r+tpPYU7IYuTPTkZGdj8KKQ7jqnjEMx7dgaUEBCjz+L8XnvxoAWBjDSYygL+NIYFT+6Uf7LM9PoGypNz/iz69EzU3e8a3oPrcDZQ3tsPgx/xGTshpxprIcJ56Pa64jmsUcQGa/9WUzKvNysPbnp8xJBCKgtfscdpT9gvZxxGrPs2Fc8wwEu8CnOc5tzdqNczvK8Mu4OIMFT38uwpy8SjT3We0oHfk3CPnLv/sd+DjzHcZ+09NzqN60Cp98UomzRgcPPrzpKc5Vb8KqTz5B5VkjRL8Mk1po/8TaF5LwCe16JuvHgQBrY3Kawl9016sRo9+Ew7+3wWDsxONbp/D1x0lQzN+PNrH4MbdhZ8p/4X/SqvCn+LwjMdNvazA9vw79zsSFAw7XP0tETo1BNIjkL8broY7RY9Ph39FmMKLz8S2c+vpjJCnmY78kYw63yzXQrP8V11tb0er2fxNtnUMAWMMJdtHneBPw2T/9beBQJ9pu3nD40HUcW5uAxOJfXH514zaevuK7XQueVOuh3noTHlzd31a50jPfR5UuFdvvml3nGI7MDxqxu6ENvsViSNjXIDL7rV0nUJSSiIXf3/c1JYbwZjxo3I2GtpFLbXlSDb16K2yaliFlX4J4Yx/IPH2xz3tYdn7e0/DHL+Pc1ixPUK1XY2sgnMENhxlt+/KRmFKEE8JAX56//LtbGvYT3vzMS3DR6XHmK8pZcjjYglJVNBbsPI6LrfdhdF5YB9FSqkL0gp04frEV910/SKKP6Yv5ARp3N4DhUjGmbHyJzNoXkvDxhSqFDUsCrI1JgGO6ugnx6i249lY44/i0vMCRjxSYV/vcJVZ44aONhEIxDdk1j90GWV6FD3cL2zQzUf1YdLvVdBWb4tXY4p4xXhz5CIp5tXDd9LYLmqw9j122yMy1f2UN5zEynRwHAr76Z2BNMuOvL7XQVXkSDBM0WJAJB9bym86sQMSSRvDyf0L/Rmn/6Gw24cyKCCxpHLnUgRQh3tgHMs/R8ZLHYucnj+nf7+Pc1hiFhn/LKEpNnr/8uyio+NCbn4nDeD4eZ76ejQB3axvUaVXu4oMfH6jTUBVIVWI6gxURS8BwqfBivf9Ps/aFJHz8z55SnGQEWBuTvdgc7lRovAz8gMGzKzH9w3q8EhjxwkeXhZ2/bkdaRD4OG0RChp+t9jLjY/5zO1J1VbgvujHL3amARufhIsjnNXgWK6d/iHpnxqyChjWcUCD6HG8CvvlnoK1jFT5WDPW9gKHjpWypptg+Cwa6DWg39GDQ13Ua5jcwGgzoHrAAXoWDBYM9BrQ/M+K1806pK/8RB0WWQfQY2vHM+NqnGSzLYA8M7c9g9JSpkD2T/UJgf36yD9zFIsQ61Ivnhk70e+A4Guu8sZfm2YcXhg68lK71lWZnGUC3oR2GnkG/LfWxDvbC0G5Aj0enHInf8D4nNX4s33wcmFuH0PfCgI5hYVox2OulPYqFhnUIvc8N6PSXM7BgEOfPh5d/95KGNz8Tgntvqz7yHa0fjhDP1FyEmLzD6BMMFj5NzSiKycNhtx8cAUZIV0iGb9c2X+evo/I/Ej5yIvSdCEweAr4NLDlcLFZg/o89Hjta7kYZkmbtxTPhOuIQPnsevcb1MjWil/2KLtEgz7PwMeN+lQ6p2/+UzBBxF4uhmP8jekTxnbXA3UBZ0izsdWbMKmhYwzlzooNxJuCbfwbauJGFT1LRN/jywzSkpOuRqY7ENFUB9ra+krSXwbZ6FKUrEJ2oQ4Y2DhHRmShpeDyMSBLK9QZ3aldgRkQE4nUZ0CbPQP7On/C5bKnbm7s/ojAtGlGJ6dBnpSA2So2Pv7+NN7ZkOFzelgbFv6bgb+9NRXRMDBSJJTjnnAR5g7s/FiItOgqJ6XpkpcQiSv0xvr9tjy1Y4vb55i5+LExDdFQi0vVZSImNgvrj7yGNxmC/9Tn25SRg8zVBZXC4tE6Jj+pfS7PkWvFZUh4O9Qqnrei9VoPCmfGIiVFAoYiFOrcEh+7029lzl7EtTYF/Tfkb3psabQuTWHLO64yXTYQkr0ftN4uhTdIiQ5eAiGmJWPxtK2wrG2FFZ+08qIqbZc8omnGncgbSdt6TXL/sVg7P3pZnUhG++fJDpKWkQ5+pRuQ0FQr2CnkKZR1EW30R0hXRSOT9IC4C0ZklaHg8nEoCLO17MUtThlMnyjBvhgrKaBVWHncAND3GLxv0iI1KQFpGGhKiYqHf0IBHgl+MwG94n+MH6+3YO0uDslMnUDZvBlTKaKhWHoe1sxbzVMVolj3oab5TiRlpO3FPdPNLKL3HZaXmZzhemIqsyquweYotPzWKv/0SH6alIF2fCXXkNKgK9qLVXoHO5EyPf8EGfSyiEtKQkZaAqFg9NjQ8cvmGTWgkY33tN1isTYI2Q4eEiGlIXPytW1rORPmDgdNYoShAw0vR2cHfsCZChc+uC/7N//YSDYuVKGyyQ+CubkJC7gEIK93chM6Iwmd4P8OIbdWD8JHztRVpdH4IjBRvAGeKExAzbQr+63/eRxR/jYovRONLYOBMMRJipmHKf/0P3o+KQYwiHoX8D77Ywz3BiU3ZUCmSkTFTh4QoBdLXHMJdxyWOu7wNaYp/Ycrf3sPUaD6PRJS4LpCOvMb/g7UvpBmf8a8byjHECLA2JnuxODQXK7Dgp17JQE4osk346L9xPZxrEz6Z2P3IAry+iBJVHIrOO6dlPM/4WB6jeqYG226JOwaAay6GYsFP6PUqfPT4Rnj40/HsDi11E2omdD99889Al3Mk4ZOBd9/Pwe4/XjvahwlP6hcjOnY9fhcGdgMtKE3WYF3Tc+dMytv7h7FEpcWOO1Kfl5fm7aX1UE5fhB/vD9h/svSipSwD//eexvWMD38TIEGJFY0GZ/oWYxPWxKtRLmpT3u4G8204QbkCjQbBFguMTWsQry6HKLrMNA43yhKgXNEIVzQjmtbEQ11+y2kHk/0WA2pmq1B6Rcjffs3Jr5M9CchdxaaE+fjRcSfE2teIT5SzsONKlyM/E140b0VG3HKcEB4Sx0gzFq5i8SIkc8r/YkbJOXQ6Bt9DTxqwLDYahU32a5i18yDmq4pwQahbPrr5Lr5ITcPOYZbheGPP55nx7vvI2f0HXjuuc6Yn9VgcHYv1TgcCBlpKkaxZh6bnAqO3uH94CVTaHRjOhfj0s/4ZgfQ19XggWao8iOtlGiQWHsdTQegMtePX1UlI3nwZDm/j5+g9LxVk8Tl+sJ71T0Skr0G9OHNrJw7OV6FIChF3v0hF2k5PS0p5yLKBufk5TqzWYEZxE4zCTTc+v4x38X7Obvzhgon6xdGIXf+7q6IHr6NMk4jC40+dQmeo/VesTkrG5stCO3uC6swp+N8ZJTjncgY0LItFdGGTa4WDK1XHUR9+XhSLwiYXQe5KKRKm/C80lXdcwnjgLD5VLkaDo2vkLm+Eas5+dAp9nVzoyL+75Ws/4dnPWNoqA19e143SD1njmS6sRVReHQRZ4yym6QLWRuWhTvYDW7om3KxIQcLK42gX7hOYDDhTooGy8Axclwpa6ubkTQdEYLIR8G1gOQbhAyt6zxRCkbQFVx39gKcZH4uhBtmJm+G84esA7rvwScL/xWiRlZUl+tdjee1DV4djE0gs4SZbrYdOeXzzz0CXayThk4XI1b85B1A2a8x/YnuKGtv+sA9S+c5ckV8nm7m04NneWdBsuzVMAfjZ1mjovnog8l/A2nsE+f8rEj7Wl3h866HsBgGH1s8Tod/b7kzf86AIsL58jFsPZTc2uFZ8nqjHXueNBWcyjgMrXj6+hYeyuxJc6+dI1O913Ahhtf85arJ9Fz7mezuQNrMa4scCgVdo+W4nTjmX2HoZuMuLY1tNVI2M97Lx/Qth9MkHssCwLxsfLDtln+WxGnE4Xzpot9mR/hUeeJypsGfkjb1NmESuxm+C+LAFN+PP7SlQb/vDYaUJF9YqkF8nm3W3PLPNqMhvGDki2T5sYu4fC1EvnzbnLqI4dh5qnVMM9ljWrh8xP3oNfhMGiN6ED4vP8YP1zH9gYb3MblhhPJwPVdEF18yZ+R52pKXjK68QRQNzSwfOFCchYkEtnoqZ8/llRWK1FCb4ZdQp6m1OLPxKgth5ta7ZFdsvVnT9OB/Ra36zz8LyaWW8h+zvX0hu+FkM+5D9wTKcEgtfZ8r8gRXGg/ORsLHFIcb52UAd8r+swCz9HvD3A/k/06USJCysQ7fD1QIrfFjaKgNfjNYP2eP5JnwY0+WuoFQ1GzXOa4K9DtB/Gutmb0OLcC+Blro5wNAHEZiEBHwbWI5F+PD9gBENS6Kh3XHH1qG4Cx8rOmrnIn79727LfnwXPhpoK67heUcHOpz/neh5K+4d7UvdRg43CSs+RIrkm38GulAjCR8Pu7pZO7F/jgobL9t71L5DCxCz6jSMfX3oE/0b6wsQueLMMAV4hbq8CKz6t3MUag/L3cLW5BTXjI8jBa7nAa6eO4GGYz/j6NEj+GqRAroq105p3gbfjkTR8+Aqzp1owLGfj+Loka+wSKFDlfihO0+Wo8S2QQAAIABJREFUcj14cPUcTjQcw89Hj+LIV4ugcD6rx2i/bamb78IHXBtq5iZBv+EHnL/f55xlkprpm/CZGbveNRASuF7fjITZ38E+brKip34REorOOwbtZrTtTMfMr4ffVMUbe16YuO8kZ0Xn/jlQbbzssKAPhxbEYNVpo8R/+vqMqC+IxIozMv8QAbCln1SGG8LgTvjtVR3yYorQLD/PCyLFPBwURuTehI/AZjifs81SJKHMLXPA2lOPRQlFOO8QEOa2nUif+bVMxArG8p/2gXlyWRPObEyDJj8PqdpK3Bbbb8vPfSc2a+d+zFFtdCb2qi4PMUXNbv5iW1o976BdjPBpzYzFeueoWCjwdWxOmI3v5INoZ+qA5dl3yE6ttM/EWR7j61m5+P5ZG6qycrHfJqo53CzTIPcHl6gKrPARbB+urTLwxWj9kD2eb8KHMd3+eiyMWi0S86LKEh+S8BHToGMiMLkI+DawHI3wycCuh8L6A74j+BF5UbOw96HZfambtQuH8/jlcO630EYjfGipW+j7qm/+GejyjlX4WNF9MBdTpqqQqtVCK/ufXdnivQDWbhycp0DxRfHojl9a9Re+1IqEj/Ulru2aj9ioFCxcXYqy8gpUVJRjrT4CaQzCx/ryGnbNj0VUykKsLi1DeUUFKsrXQh+RNozwseLltV2YHxuFlIWrUVpWjoqKCpSv1SMizbFJCbP9L7AvZxTChyfHdeJ63Xasyk1FgiYHK7cfwx3n2hU+gI/CJ+EzSB7F4LO4XQFNlmtQbu1rQIEwaDc/wFdZ2dj71HW981ShYxI+PMfcKZiqSnXzH612Nirlg3ORAZ6FFX8/qha5cRvcRB64y9iomoP9zjVXXvix+JwXIWIzz9qHhoIEx3XfjAdfZSF779NhduTkB+aZ+L/3I5C88hc843rwy9JErDzlWkbt9lyMg4NU+FhhrM1F3AZhRsYFSyI+bMInQfZcjs0ZUKHJwtfSaUZXIvwR7xMZelsYa+cBzJ/Fz/TwMz/pWMTP2pnbUJU+C9+IfEaSN5+GnJ38uzRH5zfPfsbQVm3CcgS+o/VDH+L5JHwY07V21WKu0v2GhhOacEDCRyBBn0Rg8hHwbWDJ4WqpCtk1zyVT/gIVrmU9lLk/uJYN2J7xkQofwIxH32UjOu9HPDonfY+Pte9nFCgLIVoSLSQN7mopVNk1eC5eeSL8yrVgvTIXPziXarBuWsAaTsiIPsebgG/+GWjrxip8gP66hVCW/O52h3lky1/icN50rHatO7JH4W6jXO0SPlxrGRIT1+GCZDmTGXe3pzLM+HBoLUtE4roL0qV45rvYnjrMjA/XirLERKy7IF3GZL4r3p2RzX5YO/D9aIWPCKLlzRNcrFmKZM1GXHA+zO5l4C6KJxzyImGm0l0McNc/Q0KO+Dr0Co2fJKHot0GYH+3BrNwa1+YuQmKyT88DUn58yzLj04+6hUqU/C4TwLI8PH31nD6AV3XI9zjj04zimJFnfJh8boTB+qvGT5BU9BsGzY+wZ1Yuapwb1XgsCZ5UZ2Ha/Fo8dmAYurIJ6pwaOPWDl/ykwocver7nGZ/mYsRIZnyU2CAXldx1fJaQgxqPnZJgN4c7lVrMr+1A78+LkbX9rm2pKr8MVLf8BF49+w45GdLdSgMqfJjaKi8sR+CL0fohezyfhA+rPa/r8SHN+AjOSZ9EIDwJ+DawtKL36EeILjjmXI/sosbhzy9TkVh2wzWocwof8fIy/k7Zn6jSKbBozUJEil5g2t/4MWKXnbDvyuNK2HZk7T2Kj6ILcMy57MIVgPvzS6QmipdwsAoa1nCuvOhofAn45p+Btm3swodr2YCEj47InsEBuG4DXkgeOJeXxYTmoijM/EZ2J7zvKD78u/CMjxVdtXMRu+6Sqw3akrHfsJAsdTu7EhEFx13PVfDhrF2onRuLdZdkg2ruKkpV3oWP7S5q7Dq4RyuFyrnUjcV+3gb70kDx5gZXSlW255Mk8ygD/MPH85ybG5jv1mB5+XlIENo2SlCIRIIJZ1dGoOC4+4yynDYvEjKm5OCHDvGdFv6ZjbmIWHlW8hxX/8nlUK9twl/VOZj/g+ebQuL0TZ7YO54rGnmpG4eWDQn46IjsOSxw6Da8kJZfnKnX9Pnr8UWsU87HQfGWm7aVybXIjV6D887Vc574MfqcFyHiNLH/JJar16Lpr2rkzP/B8w0uZ2D7UizJy4L5TXH0amy+5nhAykt+cuHDXVwH5fyDkt1Gbc/m1OYies150TM+U5DzQ4fkhp/VeBBzI1birOSZLKeRzgPu2mdIWfwT6gvTsUWYQjRdwnrdWhzdn4+0ituS9uo34ePBz9jaKgNfjNYP2eP5JnwY07Vdyzw94/MbKj7dh7vCpc90FisjCsBwqXDWc6APWPtC2tUt0DVB6Yc8AdbG5Czo26som6HEh/tuO7Z15X8xwdC0GWnKRTgiXu9sEz6eH1IdbN2G5P/+f3gnrw72/Zre4PSKWBRI9v505grgLa6WzYDyw3247byDC5gMTdicpsSiIwbR0ghWQcMaTmwHHY8nAZ/9M6DGjV34wHQD5VoNis+4dnWzdF3C52kqFJ4VLdXxUI7BK5uRoPoUjc8cI1Erv6ubFu/9t9r5jM8Qv/uhZguuONsIh65rezBv2jvQipa6cTfLkBhfgovOcHyGQ7ZdGzVbrrjaNteFa3vmYdo7Wu9L3YaaUazQYMsV17bdXNc17Jk3De9oXe/jYrGfFz4/5IqXugGvTq/A9MQSXOhySB9rP25W6fH3d+c6hY/VeBQFsXpUXup0DCI5dF7cCl1kPg47xQv/PEUi4ksuusrngTN/yiZ83nkXSet/g9Fx34Z7cRbFSUqs/bdsh7k3Z1CYPAdzs/Jx0LkszEvCvM7wyJ51xgcw3SiHVlOMM85d3SzouvQ50lSFGM6FvM74YAitW1OgXnMCgmthqB2NhQlIkuzq5pkfk895ESIuSm9wpjAZc+ZmIf9gp0RguMIIRx4G5rCi55clUC1ucD2Xox/5GR8MtWJrihprTjxzPlc61N6IwoQk6a5uGe/g3aT1+M3lDDhbnATl2n87+i/BNg+fpmasS1ZBlbIOzU4ROYhzazRQKjX4TLaTj7+Ej0c/Y2qrDHz5Xn+Ufsgazzfhw2oPhz8qtUgqPOHagZLrwL9LU6D89LRrVzfuJsoS41Fy0XVN81Cz43qKtS8k4TOu1UKZhSIB1sYkLpv5xQVULdEiTpUCfU420pPjkJS7EUfuyd71wb9cMd2xnbU4AdvxG/xeGo8p+fX2GR7TBRSpPnLfcUgcz/wCF6qWQBunQoo+B9npyYhLysXGI/cc7ygRAvNrqFOgr34iEkPCb+JP1nDiOHQ8ngRG45+Bs8+MezvTkCHbWc2enwXt/M5s5dK7t/yGHgdyE7DpqnArETA9akDJTCUUGj1yZmmhUqWj8MBtjzOd0rIM4N6hQqRMj4I6Sw9dUiKyN9egVKfFDuGFJ1YjzlfMgXJ6PNKzZyNjRjJ0S3ahtlSLjF0PXclZDDhZOhtxkdMRm7oFwqNDVuN5VMxRYnp8OrJnZ2BGsg5LdtWiVCtfsupKynaH/HwF5iinIz49G7MzZiBZtwS7akuhzdgF1yN+bPYfkAkfWLtxacd8xEXEQZedg8wZKcir3INVCdL3+Ly8VYviOWrEKVVQKqKhyliGr1u6JNcAi+EkSmfHIXJ6LFK3XJTcaReXyPbOG3Uxvq2cB3WiDvqZMxATkYyP991Cv3gSyBZpAOdWfYApCw65lvmKE5Mfe2Fvf89OufQhfX5nsAO5SNh0VZSKCY8aSjBTqYBGn4NZWhVU6YU4cFv2riNRDP7Qc/qOQI73+CgVycjUZyI5RoHM4p/xQDab4ZEfi8853uNTLtmBQGrgwLlV+GDKAhxyLlmW/u765qWtDV3F5qSZqOa3S/OSn9V4ALkJm1xJ8QN423t8lFAkZ0KfmYwYRSaKf37gmtVzvhOoEvPUidDpZ2JGTASSP96HW+7OIEnb/mUA5wo/wL9WnpHMyL0+uQxTo9bhklMM2UO7v8fH/g4kJzsvZXPL2KOfWWEcsa0y8LVlNjo/5G+Usvgv11wExcIj7sKSa0aRYiGOyO4/sKYL7gkaS/VQxaVAn50FjUKBtMJa3Ba2PbeVzQLDyVLMjovE9NhUbBEukG6Qx+8Ea19Iwmf86oRyClECrI3JU/GsppfoNDxHt2SnNE8h/XzOasLLTgOed7+VbO3r51wouSAgMBb/DALzhzHBisEeA9pf9GFIsoZrmCjCT9xrGJ8ZYBym3QlvJe8aJoyQnPunFUO2t9h3wafo/FvtDe0wdI3QLoez32pE7dx4lIqEomCfUKbeQTflIQQJyKdloBuGZx3od2lXWT4mtJRqsKi+e4SZClm0sX61DqLH0I4XfUMScTeWZK2DPTA8NaDb09vsR0hYqJ/R+RxgaimFZlG9h2XUI2Tsl5/t7fGpoRvDFt0ygG7DM3R4dwa/WBPwRFjbKosho/XD0cYbySbGdMfi6yOZEIjfWfvCsBc+a9euxX/+538Gog78kiZvG28j/U0cAdbGNHEWUs7hTID8M8xq3/wXdmhT8MVd2XOBwYzh9TmsUX9ie7N8MJsZ3La9xrk1anzSKHsrZXAbTdYRgXEjwNoXBpXw+eWXX2wi5Nq1axJQs2fPtp1/9uyZ5Lw/voxW+PA28qKEtzmQfyR8AkmXLW3WxsSWGoUiAv4lQP7pX57Bm9oQOv9sxpHP9YjQVOKmbPlPUNpt6cWj602oWaaGtuKGa2lUUBobrEZZ0PvoOppqlkGtrcAN2dK6YLWa7CIC402AtS8MeuGzZ8+egAoMEj7j7Zqhlx9rYwq9kpHFk4EA+edkqEWGMlja8cvnhVj3xU+4JjxAzhBtQoP0N6NqRSE2Vv8b7V6XwU2ohSGQeT+aq1agcGM1/k0QQ6C+yMSJIsDaFwa18BFmgHjxE6g/Ej6BIjt50mVtTJOnxFSSUCJA/hlKtUW2EgEiQASIQCAIsPaFQSt8+GVtnpZ5CUvM+E9hCRwfjj/29Ddt2jRbOnwYT+mJhY8Qhv8cSWwJdgy31E0II06XPyf/E2wQwonz5s/xvwt/ghgUnxN+o8/AEGBtTIHJnVIlAsMTIP8cng/9SgSIABEgApOfAGtfGLTChx/w86JF/icWE4JA8CaS+DTEgshTOLHoEJ4hEvIQ0pfbwH8XwngTPoJAEf/Op8fbJBY/Qv5C3nzafLmF72LhI+RJosdTjQTuHGtjCpwFlDIR8E6A/NM7G/qFCBABIkAEwoMAa18YlMKHH+zz/57+hMG/XJTwYkAslARBIU9DEB+CsBDCicUIH4cXTOL05OkIdoiFjTiMWLCIz/NpCmKMt4EP5y0NPp6QjhCWRI+Y5vgcszam8bGGciECUgLkn1Ie9I0IEAEiQATCjwBrXxiUwkcQJ54G+d4EhxBHqGqxwBDO8Z/y+ILwEYfhj4X0BIEk/12ejvj34X4T5yfMCvHhvf3xwkf498TDWzw67z8CrI3JfzlSSkSAnQD5JzsrCkkEiAARIAKTkwBrXxiUwocXAoLwkM+GeBMVQnihOnnh40koCDMnQrpiISLE5T+F9MYifDwJGiFdPg9B+HjLgw8jzPjwn8JMkdhOOg48AdbGFHhLKAci4E6A/NOdCZ0hAkSACBCB8CLA2hcGrfDhq4sf6PMDfrEw8EX4eBIK8vgjCR9vbiNPRxxuuN/E+fkifIQ0eeFEf+NLgLUxja9VlBsRsBMg/yRPIAJEgAgQgXAnwNoXBrXw4SuRFz7iZ20EASDM2AgVLZ5J4c+JBYYQhv8UwgliSgjHpyv+40WTOF/xb/yxNzuEcMJMjfBd+BQvweNt4MPJyyKE5T/F6Qi2DxdeHJeO/UOAtTH5JzdKhQj4RoD80zdeFJoIEAEiQAQmHwHWvjDohY8gMHiBwv8J3+WDf0EUCFUpiAohnjguH1b4E4QPLzAEMcSnPZIg8WaHkK5gDx9O+BPyEvLhzwuzWkIY/pMXR0IYsfARhxd+F8ej48AQYG1MgcmdUiUCwxMg/xyeD/1KBIgAESACk58Aa18Y9MKHrypBRPCCxJvgEMKIq5YXB7xwEP/LBRMvRgShMVw4cbr8sWCHOI5wLIQVbBLO85+e/gTxI4Tj4wl//DmxeOPP8+eGm40S4tKnfwiwNib/5EapEAHfCJB/+saLQhMBIkAEiMDkI8DaFwaV8Jl81UAlmgwEWBvTZCgrlSH0CJB/hl6dkcVEgAgQASLgXwKsfSEJH/9yp9QmIQHWxjQJi05FCgEC5J8hUElkIhEgAkSACASUAGtfSMInoNVAiU8GAqyNaTKUlcoQegTIP0OvzshiIkAEiAAR8C8B1r6QhI9/uVNqk5AAa2OahEWnIoUAgXD0T0/PPoZAVZGJRIAIEAEiECACrH0hCZ8AVQAlO3kIsDamyVNiKkkoEQhH/yTh40cPtXbj3I4yNLRb/Jion5IKoG3W7nPYUdaAcSu21YgzleU48dwzZ8vTn1E0Jw+VzX2jhuePNEaduU8RLXj6cxHm5FWiuc/qU8zRBg4dNqMtIcVj7QtJ+JCvEIERCLA2phGSoZ+JQEAIhKN/kvDxoytZnqBar8bWm5wfE/UxKfMDNO5uQJtZFi+AtlmeVEOv3opxK7b5Pqp0qdh+V15Ie5nNbfuQn5iCohNGGQT2r/5Igz03lpBmPGjcjQa3ijWjbV8+ElOKcMLoZ+HjxZdChw0LVwBeyskYe1IGY+0LSfhMyuqnQvmTAGtj8meelBYRYCUQjv5JwofVOxjCBVBcMORuD2I6gxURS9A4JIsRQNuCTfjISj5JvppwZkUElrhVbACL582XApjl6JIeI5uQKefo6IwmFmtfSMJnNHQpTlgRYG1MYQWFChs0BELFP1neq8a/04z/l78n7f+z9yZeTV3r//+f8/veoXfV28/nttcPSEhCSCARwmhwwAG0pXZQiyKDilZR4Fq11lJbeq1oFVG5UlqnquASJ9SKXbc4gAujssLsAKycRc56/9YJOcnJycAOgyThcS3Myckenv3azz77vM8ejvRF0AJ4qfARwnt7r5n4HjV62fMYrioVF/ww+p6Z8bzf6ieSDYPdZnSYezDk92E9j+G+ZzA/74e/1OwZ+bqJC9Q22yC6zR0w9wzBr2kAfAsfHkO9Y5fPNtQDc8cTWF76GSkbeQWL2YzuQRswxoiPH+CT8xNT3bpnxVRGfhi9duaD8JzEN8Gbe3dzHN9sGOoxo+OJBV7R+/Ilr2mJJ9l8lXvxHOanvRgey7nEZP1+jsVmouVkbad+jQypH1n7QhI+IVWtZOx0EGBtTNNhG+VJBELBP0UhI305s/AyaUHASF8qLX2Zs1izwguchXBSASMVPmI6cnEkiCEhvZn2T5lTi35JoYcu5CFC8zluSu/P+2vxoToX54bsCgAVpjjkf/MFViQlIMWUBn3kbGhy9qN5wP0Ob6i1BvkpSih0yUg1xiBCkYai2jaJsLGhY38G9AXf4osVSUhIMSFNH4nZmhzsbx7wKka4qzuQpPwnZv3pbbyniEa0Uoei846hH7vwYbFtCK01+UhRKqBLToUxJgKKtCLUtvmWXN6Ej7XtP9hoUiFKm4TUJC2iVCZsrH0Et4GoV/dwODcJiigdUkzpSFBFQf/xv3H3lQQ6XqGlajXmRkQgVrAnfi6yd/+IbX6muoG7js3aTByUTP3ie2+gMnceYqOjoVQqodJnouhIC164V4srY3katg7sz9Cj4Nux69aVCACmMnJor9+MBRol4lPnIVkbBWVKHo7cc4DgrmJHkhL/nPUnvP2eAtHRSuiKzjtZctc3Q5t5EPbiDl1AniIVXz9yl062tgrMUxWg0VGNr+4dRm6SAlG6FJjSE6CK0uPjf9+FiN6vL8nZgN1X+Re3UflRHP4vQoukVCP0xhx8feRzJKa7Xjbvxg88em9UInderL3cSqUK+swiHGl5MdoGxmAzoXICGLudulsbLt9Y+0ISPuFS41SOKSPA2pimzABKmAj4IRAK/ulLhMhHa0ThIy2uOFIkFUhS4SOElX/3FkeaZjgff6DKxblBsYQcrhVrMevvBpS3uNaWDJ79DOoPazEgBBPERepbeHfhV/jtpeOO2tqOmg8VUG24IiYEDDahON6AwnNPIWqo1/ePYqXGiF0t4hkb2itS8da7C/HVby8dQseK9poPoVBtwBVBaHn75+spPaNtg03FiDcU4txT0Y7XuH90JTTGXXCaJsvXQ/gM3USJQYfcU4+dN+fDHT9hXVw8tlwVgXK4VaKFenUdzGJWNgvO5cVCX3rHxeXyBqjnfIDD9x3xbL1oKknF/7xt8LnGB9xVbNIswoFORx3wfaj7RI2MXdfQ5cjL+qwB21NjsKq+z6uI9EiDkZ87GrYyWm+XIUG7Bqc6RHFphflMEQzqXJxxbljge1SDu7oJmkUHMFrcQVzIUyB13yPJqJENbRVpUBY0jNYHdwslWjVW15mdnG2Wc8iL1aP0jlgZAHz5kpwvWH11AOfWKqH5rBbtoh7vvYFdC9/D20l73dE5vvF9dfhEnYFd17octlrxrGE7UmNWoX4sNhMtJ1M79Wp2yJ9k7QtJ+IR8VVMBppoAa2OaajsofSLgjUCw+6coQqSjPWI55NPR5EJIDCcIG2l8udARR4XE8GK64veZ9HloqRabmhw3giMtKE/OxhdlGTA5byqtuFykxfLq7tGbZ+HmOD0S6y64jWtg5PedSNDvcKKzXloPZXY1etxGG2x4sj8Dhh13HOGEm8l0RK674BQP9h9GfsfOBD12/Ca5QXWm7Odmlck2Ky6tVyK7usddDNieYH+GATukN8WSPOXCh2ssgGpJ1egIhDMcj67DS6HIu+AY1eLR33YHD3vdIIBr3gadab9jhzgOjQUKJH/5AC6pCfC9x5D99wCEz8gf2JU0DxVt7qMgA03fYfcvZolAcBoLr8KHoW4lKQBgK+O1Yg3mV8rteIHThfOxQ/Q/sAofYKghH8q0r+Esrq0NFelqFF1xCCu+H213HsIdPYfmbTqY9ne4ihCQ8GHw1aHTWDUnG9Xd7nU+eGY1Zid7Fz4jf+xC0rwKV1ns1g2g6bvd+MUs1qcPNhMsJ1s7deEKpyPWvpCETzjVOpVlSgiwNqYpyZwSJQJjEAh2/xSFj3TERiySOE1NCCP8G6/wEafSidPdfI0wifmG8+eT7xYgsbzF/qTZ1vY1MjL/jSete5CeeQDPhHs37jZKDJn4wf5FnOrmuasb33kAizSbnKj6jixD9NrTsPT1oU/yZ6nJQeTqM45wgvAxQb/9tvOpvP0HvhMHFmmw6eo4hI+XHefcbevDkWXRWHva4mZXX58FNTmRWH1GHJFwFsV+IBc+A9VZiM5vcLdbwNVYAOWSQ3C77+V68OD6edTXnsSJ48dx7MsPoEzeg/t2pTOA6qwIrP1Vli93B9vjE9hHfMChtXIx4kwb8cPF++jzgc6tVPJRDUE4jsnPLQXXF79lfIGa5VFYd0FWRldsx5GPm3uBq9uID4DhyyhUpTmFnjDNLV2zCU2yLLieB7h+vh61J0/g+PFj+PIDJZL33HflHJDwGdtXbebvMF+3Dc0y/txvpTCkeBc+4FpRuTgOpo0/4OL9Pg+fGjXWNxvh9/GWk62dunCF0xFrX0jCJ5xqncoyJQRYG9OUZE6JEoExCAS7f4rCRzpiIxZJHJmZqPAR0hPEjjDyI+bnTWiJ+Ybz58iDL5FqEp6c8+g8uBQZwkiPMPKT8gGqe3iMtO5BSsY3eCw+eGa6OebRfSgTs97TINFohFH2N7+8yYF0GoQP341DmbPwnibRwy6jcT7KnaMP7rXuLnx4WKoyEbOxyeMm1f0GnUf/jb1YqopCwvJ1KC4pRVlZGUrXmxCR5BA+gj1LlCholN0pj/wXXxgDET6CvRw6b1Zj59pMJGoNWLhmJ062+JjmZg8umy7HVLfuXOwjPmOWsQtVi9XY4IOtK0XfN/fuXIUYVjRtjEF6RRtsEKa5zUNs8TVXffD9uLF3KVRRCVi+rhglpWUoKyvFelMEkqZS+Dz6CmlzyyGZKWov3khLORJ8CR8hBNeJm9U7sTYzEVrDQqzZeRItzmluo+X1uuPdhMrJ2k7tRQi7/1j7QhI+YVf1VKDJJsDamCY7X0qPCLAQCAX/9DUCIx/hkX8Xyz/WVDchnCiixE8x7oz75FpQblyKque9OPFhumOEQZgSlIxV9QN48t1CpO5pdU3DYrw5flG9HOqiK64bUa9gp0H44AWqlwtTomRCw6t9rpPuwgcYqM72PuLTUIBoccSHa0aJTofCS+7T6kbu7USic8SnH0ez5niOhnB3UaoPVPi47IXtFdobK/FRvAGbLnnfKMLrVLdAR3yYyvgSNSsmecRH0ArXihErTBHj2lAxT4vPJTtycM0l0OkKccltruUI7u1MnOIRn0os0G7BDZl7cXd2QO9P+LhVXTsaKz9CvGETLjk3DPEuCidaTrZ2KjEujA5Z+0ISPmFU6VSUqSHA2pimJndKlQj4JxAK/ilOaZOOwogCRZyeJpRyIsJHnO4mX//jn144/srhxucJ+PDHGuSmbHXu5ma9vAHJ64/jQHYSyu5K7uIYhQ/XtBHa94/J1lgAXLcZz16LHMcrfM5iTUQOTsk3P2CyjUPTRi3eP9brvsYHHLrNz+A0TTTR8SkXPlxjIdRLD6HLbSnH6EiQIu+ifY0P31WFxapCXJbgE5LjrhdD4xQ+VjTkR2HeN4/d1+H0HceKdwJZ43MPlatKcdGtADaYK+dD6UuATsJUN7YycrjuY43PhbLP8P09EZAVZ9dEIMejYr1MdbODvIEtWhO+btgHU5x0ehmPrqrFUBVelgnvUTvcp7r58CU5G/vmBmNPdcPwOeRGLsKBp26OgRf/ycG7PjY3GLlXiVWlF919z2ZG5XylRKDMk5XtAAAgAElEQVR7YzPxcrK1U1ljCJOvrH0hCZ8wqXAqxtQRYG1MU2cBpUwEfBMIFf8UxY8gTMQ/cYqbWLqJCB8hDWFkSUhbKqbEtGfSp7WhEPEaDRIKG1xbTQ+dR55BDbXhc/en10ziQpiJdAulRgMKzrh2dbN1Xca2JA1yz9r3hxMWDI1vjY+w7kgXi6JG2UgGo23WW6UwGgpwxrmrmw1dl7chSZMLp2kyB5ALHww3Y3uCHnn1T5zMhjvqkKuNc+3qNtyAAqUBW6+57OS6bmDfktn4q1Fc4wMMXdsCreYz1D1xLFDhhV3djHj7L3r2NT68BcdzVDCVX0anQ0dwnY3YnhyJ7KPPZSLPUTj5zT0jPzc0jGXkfiuHMS4X9c7t7Tg8/7UYCerPcNo5pYvD7RIdYosa4RzocJoq3dVNtGB0swJVjApxsnViww0FUBq24pozIQ5dN/Zhyey/wiid6ubLl+RsmH31NZqKYxG1rAI3u0a3q7CaT2ND8j8wy4fw4S3HkaMyofxyp0Oocehs3I7kyGwcfS4KKO9sJlxOpnYq8g6vT9a+kIRPeNU7lWYKCLA2pinImpIkAmMSIP90IfIlnFwhZsjR4Hnk/t8/seaMdLjgJX7+9D1EFV523tjbadjf9WJAqXQUSNjby3IQmdrNbsCsj2pRNE8NpcGEhRlGaDQpyD14Fy+doUbfjWIovev+ZJ634GCmFpuviyMBzgiOAxvMPxdjfkwk5qgSsVVcH8NsmxWPaoswT62EwbQQGUYNNCm5OHjXZZlHjh37kWEohbTYo+/xUUMZnwZTWjyilWkoOPFAskMdD8vFMixSz0FsygLMT52L+OSV2FtVDGPqXjwU101hEH8cyUXCnCjo001IjtNhwZZKFCcbsesP6V5vEqs83jMD8P13UFWwCPoYNTRqJRSaVHz6dRO6nPlI4guH8jSY+UnTYS0jh/a6Ypg0MUgwLUC6QQllUi6q7orbmI+maTP/jOL5MYico0Li1kanX7i9x0eSvTCFTPtXnfuopPA7b8HFskVQz4lFyoL5SJ0bj+SVe1FVbETq3oeSFHz4kpyN4z0+TL5qbcfp8hwYlVFQarQwLMjHjye3Ym6qj80NhJ3x7lShYJEeMWoN1EoFNKmf4uumLrdRQK9sJlpO4RnFmO1UgiuMDln7QhI+YVTpVJSpIcDamKYmd0qVCPgnQP45ykfc1ECYQkf/ppIAj6EeMzqe9WHY1w34VGbvL21+CD3mDjzrG3a7wfQXxfO30fI9Nndj0Ff5+GH0mjtg7nrtWivlmRDAvYTliRmW1z7Ejrc4wXKOtYx25o9h7h6cAHP2QvPDvTB3mNE1zUztu/1lHmQ3PMCQEy9nELfTAFmwBmftC0n4sBKlcDOWAGtjmrGAqODTSoD8cxS/+C4f+fS5aa0cypwIEIHwI8D34txaNYy7/wi/soVwiVj7QhI+IVzJZPqbIcDamN6MNZQLEXAnQP7pzoO+EQEiQAQmnYDwYtHb13Cx7gC25+ihWrAHzS8mPRdKcAIEWPtCEj4TgExRZwYB1sY0M2hQKYONAPlnsNUI2UMEiEDYEXh5GXvXrEH+lt2oOteKfl/TIMOu4KFTINa+kIRP6NQpWTpNBFgb0zSZR9nOcALknzPcAaj4RIAIEAEiANa+kIQPOQsRGIMAa2MaIxn6mQhMCQHyzynBSokSASJABIhACBFg7QtJ+IRQpZKp00OAtTFNj3WU60wnQP450z2Ayk8EiAARIAKsfSEJH/IVIjAGAdbGNEYy9DMRmBIC5J9TgpUSJQJEgAgQgRAiwNoXkvAJoUolU6eHAGtjmh7rKNeZToD8c6Z7AJWfCBABIkAEWPtCN+EjRKI/YkA+QD5APkA+QD5APkA+QD5APkA+EEo+wCL/3IQPSwQKQwRmGgGh0dM/IhCsBMg/g7VmyC4iQASIABF4UwRY+0LnHR1rhDdVAMqHCAQLAWobwVITZIc3AuSf3qjQOSJABIgAEZhJBFj7QhI+M8krqKzjIsDamMaVOEUiAhMkQP45QYAUnQgQASJABEKeAGtfSMIn5KuaCjDVBFgb01TbQekTAW8EyD+9UaFzRIAIEAEiMJMIsPaFJHxmkldQWcdFgLUxjStxikQEJkiA/HOCACk6ESACRIAIhDwB1r6QhE/IVzUVYKoJsDamqbaD0icC3giQf3qjQueIABEgAkRgJhFg7QtJ+Mwkr6CyjosAa2MaV+IUiQhMkAD55wQBUnQiQASIABEIeQKsfSEJn5CvairAVBNgbUxTbQelTwS8ESD/9EaFzhEBIkAEiMBMIsDaF5LwmUleQWUdFwHWxjSuxCkSEZggAfLPCQKk6ESACBABIhDyBFj7QhI+IV/VVICpJsDamKbaDkqfCHgjQP7pjQqdIwJEgAgQgZlEgLUvnF7hw3fh3M7PcaJtxLNuXl7B3tzdaOjnPX970Yi9W455np+qM7bHOJG/CFnlDVOVA6UbxARYG5NbEfgXaP15H4o+zMS8lFQsyM5F2ZHreM65hQJsz/FLaQF+uDsk+2H068h/D2FDxTV4+5VrOYgN3zbD6haTx4vWn7Gv6ENkzktB6oJs5JYdwXXPjGE+tRUf5eQgx+vfR9j2kxmAjTGcmxH05Q0SGJd/Tsg+G57Wl/jxnRzkrKmcUA7BGtl7m2O01voY5ys2Y+0nn6D8rAWuns2Kx+crsHntJ/ik/Cwsrh8YExaC8eg+vwsltR2wBRCLgroT4C1nUF5a736SvhEBIhASBFj7wukVPuBwvTgWpm8ee1yshy+sw+w//QOrTr/2AP769GqoPqz1OD9lJ0Za8X22Dgn5dEGcMsZBnDBrY3IWge/G+Q16RJs24+iVVpgtnWi78wu+/jgOyqUH0CoVPyOt2J3wZ/wtaQ9+l553JGa9kIc52dV44UxcPOBw83MdFlaaJW1HuPnZAH20CZuPXkGr2YLOtjv45euPEadcigNuGXO4W2qAYcNPuNncjGaPv9to7RwGwBpOtIs+3zSBgP1zEgwc7mzF7VsOv7l5Euu1OhT856bTj27dfTwJuQRbEt7aHKuNQ2gq1kCxbDdONTbjvsXV2IeaiqFRLMPuU41ovm+B6xfWtIVwNrRXmKDffnuc8QPJK3zDjtzfg+TEneFbQCoZEQhjAqx94TQLH2D4wnoolxySPeXi0LxNB32iAZoNTbILuRUNBTFY9qMljKuPihZMBFgbk2iz9fpmxOq34oZcs9ue4dj7SiypeuoSK4LwMUZCqZyNBZVtkI99+hQ+3B3sMMxDRZvk+a71OjbH6rHVM2M8O/Y+lEuq8NQZfFTQpO9rc9kiFsDtkzWcWyT68gYJBOqfk27ayH/xhTEZe1rl3jvpOU1vgt7aHKtFQlx9khdGHO7s0CNpT6tH22dNejQcCZ/AeHkPTcLHOxc6SwRCgQBrXzjtwgcv6/GJIge1AxKstkf4Ks2I8rNfI2NuOVqkj8C4ZmzVzcd3T5x3cKMRbUPoMXfgieWlTChJ0vV7yGO47xnMz/tlU4f8RrL/yA/34Zn5Ofrd5xy5ReRePIf5aS+GxzWNwS0p+vKGCbA2plGzOLSUGZDs40Zm6OwazFlRA6e7C8InOR27f9qJpIhsHDW7+7Uv4TPy+04kJu/Bfcm9JtdSBkPyHni9/xw6izVzVqDGmTGroGEN94YrhbJzEgjMP53RJu/gjQmfcVyj+SH0mjtg7hmSTC3zUnR+GH3PzHju5yLurc05UxorH2sD8qOzcLTPGcNxYEVDfjSyPH+QB7R/tw31wNzxBJaX0k5R+MmP8Jlo32gbRM9TMyyv3PPkXnROep/GD/XC3GFGz9BkdJRs/jLyygKzuRuDNoCEj1e3o5NEICQIsPaF0y98+B5UL1ci99ygEyxvqcIS7SZcHWxBeYIJFe2um0Gx83Hd3L3CvcO5SFJEQZdiQnqCClH6j/Hvu6+c6cHWgf0ZBpT8Uo+SJXOhUSugWXPK3ll07M+AvuBbfLEiCQkpJqTpIzFbk4P9zQOSjpLD9c1aZB50jTLZOvYjQ1+Ab79YgaSEFJjS9IicrUHO/mYMSK7Z/IvbqPwoDv8XoUVSqhF6Yw6+PvI5EtP3ueyjo6AmwNqYRgvBobFAiaWHeyT+4yoed6sEcRn74dTtDuGz79FL3CzRQ/HpT+iS+I934TOC+3uSkbjzd7enxFxjAZRLD6NHEt+ZM3cLJXEZ2O/MmFXQsIZz5kQHb5hAYP45Bcb5Ez7cZRSq30fNS/d8uebPEZd1xHnSfj01lOCX+hIsmauBWqHBmlO9AVyjnUk5Dqxo+89GmFRR0CalIkkbBZVpI2ofCdM3Hf/s/YIeBd9+gRVJCUgxpUEfORuanP1oll7E7cG9tzlg7HwGzxRAGz0bs/78N7wbFY1oZSxy6/qBwTMo0EZj9qw/42/vRiE6WonY3Dr0i/ZJP1/dw+HcJCiidEgxpSNBFQX9x/+Gq5vzJnzG7ht9cnewWf9VCZYlJyHdlIzYiAgkF/2Exz03UfFRGoxCf2uIxLuqbFQ0v/B6vbMXge/FjcpczIsVyq6EUqVHZtERtLyQXKisbfjPRhNUUUI/mQRtlAqmjbWQVhd3uRDq92vg7kocmj+PQ9YRwVeEfzaw9ekAXrWgavVcRETEIjnViPi52dj94zaa6uYgSR9EINQIsPaF0y98wOPpvxe6TWl7+dMnUK85jUFwaNoQi2WHxYWgNrRVzEN8iWses3AjqVWvRp1ZfBplg+VcHmL1pbjjPNWOivR/ICIlDzUPpPOPhM4iFW+9uxBf/fbSceG2or3mQyhUG3DFuaKcw9VNGiw60On0A1t7BVLfehcLv/oNLx3Xb2t7DT5UqLDBGXEA59YqofmsFu2O/tbWewO7Fr6Ht5P2OtOig+AmwNqYRkvBoaFAiWU/9nq9EbALH9M36BC1vF34pOGrRzbgZSOKNDHIv+gcloFX4WNrQ8U8A3Y4HdyRc0MBlMt+RK/kfsJJ1i58TPjGmTGroGEN58yJDt4wgcD8cwqM8yt8GlCgzEa1bJEad30ztEsPO40Rrqfp/4hASl4N3C7R9pEMlmu0Myn7wdDNEhh0uTj1WBQ6w+j4aR3i4rfgqviMzdaOitS38O7Cr/Cb6yKOmg8VUG244p6gjzbHlI+QkvUS1kdlodpD1VhxaX0Usjx/kOTP4VaJFurVdXB1cxacy4uFvvSOY4aDp/Bh6Rt9crez+Sv+74MjaHPMZOAHmvGv5NlQGd7HFzfFB4NWtFXnYI62BLfE/lZiubDpQl/dJ1Bn7MK1LkcA6zM0bE9FzKp69NmvVUO4WWKALvcUXNXVgZ/WxSF+y1WI1cUJ1zeP9Y6jDyWFB02j/1j79Ne4vEGNOR8cxn1HBrbeJpSk/g/eNtAaH7cqpC9EIEQIsPaFQSB8ANujr5Cq3+EQKlY0FmqwvHr0ifnrX1ZB9XHd6FMe/jkOZmqw4YprThnf34Y7D2U3mVwztulM2C/e5AkX8bT/xfIa+VN44SKZjsh1FyB2j/b6HfkdOxP02PGbeCX3LnzSI9fhgntE/L4zAfodv426ydBprJqTjepu9zvRwTOrMTuZhE+ItCWwNqbR8kxA+IBH75lcKOO24rqjM/YmfGzmSizQbcEN0T0dIO03BgEJnzj8T7QR6enpkj8TVlU9lIwkCcKHJVyo1Gb42RmYf05B+SdJ+KT973LUeAxXsl6jpeUSRl1VWFIlPjBz/MZ34fBSBfIuOPoPoV9Ij8Q694s4hFkFCfod0gThvc0x5iOkNCHhw6O/7Q4eyp5ocM3boDPtdzxE8RQ+LH2jIHy8crezUaLwsvtFpq96Gd7JqnYfleKuoViTgW+do8lSdCP4Y1cS5lXI1hIONOG73b/APrOXa0SBagmqZNvZ8V2HsVSRB7G62IUPQ58u5KlIxpcPJHOFhevvsWz8nYSPtALpmAiEDAHWvjAohA9GWlA+N2X0IsTdRdncDKdo4XuqkR2Tj0vDAN9bg/eVuZDMinNUCIeeB9dxvr4WJ08cx/FjX+IDZTL2iAsghIu4KQ4lHo+kPDsLe4J8Jw4s0mDTVfGi7134mPTbcVsMMhoRnQcWQbPpqv2bzfwd5uu2odktDMD9VgpDCgkfR+UF/QdrYxotyESEj7ArrQW1KxUw7mqxrzXzFD48nlctRuyGKx5r0QIXPgYYy27g6fPneO7860TPa+nNwOiIz9jhgr4aw9bAwPxzCjBMkvAxxXkbNWC9RkvLNYDqrGjkN8guvBidhrrkUPfoaKy9X9Bju/tFHHznASzSbJIk6KvNMeYjpDQh4eMwhevBg+vnUV97EieOH8exLz+A0rnOzwcn+O8bBeHjlbsPNsM/f4qIT3+WPSgUNrdwjFpLqImHXGslFseZsPGHi7jfJ68TAAPVyIrOh2d1NaJAuQSHHA8O2YWPl93t5H26kGfEWvzqeoZqN5e7sx3xCTTiI9YdfRKBUCLA2hcGh/Cxb2utxcLvzeAefwNTQjlaxHsvWwe+zYi3i5ZXP38K5Ye1roXhwn1i/w3sXapCVMJyrCsuQWlZGcpK18MUkSQTPp4dnM8FofKLJMYpfB59hTRhcwaxLA4PGmkpRwIJn5BpT6yNabRA4xE+qdj7UJz7BtieHEZWVAb2PxzxnOrGd+FoljAdzjkP08lxPMKHdnVz4gvZg8D8cwqKOVnCx+NBkmCrjxt6j2u0pFy8BVWZMdjYJL/Jdl3H7WPwPm7uPYSPrzbHmo9g2oSED4/+G3uxVBWFhOXrUFxSirKyMpSuNyEiSdzgxJMTS99oFz7euPtgMx7hIxSf67yJ6p1rkZmohWHhGuw82eKY5iY866lCZsxGeFbXVWzSLMKBztEZE5MpfPjuQ1iiLECjzEVG/vsFjCR8JI2JDolA6BBg7QuDRPgI21rnQZ19FA+OLrc/zXZdj0Zw718JSPnyHn7NV0vW+wiVwaG5RAdd4SX3Bd0j97AzUT7iMw3CR5iSpPUyJenODuhJ+IRMa2JtTKMFEt5NpcGCyqfe1/g0bYA68wfX9u32NT7uwgcYwaPvFkCRdRiPzru/x4fvO4EctbdRT4C7XgzNgko8dZ9Z6TCrCRvUmfjBOZ2Ede0Oa7iQqc6wMzQw/5yC4geb8MEAqrO9j/g0FEQj0BEf322OMR8B+USED9eMEp0OhZfcp2qP3JPu7CgXPmx945sSPi6vs+FVeyMqP4qHYdOl0Y2ABqqR7XXEpwEF0VM04tN/FFlz1jmn0Yn2cXdLoSfhI+KgTyIQUgRY+8KgET72ba2VK5CbE4NPf5ZuQABwTRuhmb8Gn8jnEfNdqFqs8piHDO46ijXTL3wwfA65kYtwQHYn+uI/OXiXNjcImQbF2phGC8Sj9/j7UOSchGxpl12o//5FInQlt1xbrjuFj2xYkPsde5KV+CBvOSIlC3pf1H0M1af1sp2NHDn3Hsf7ihyc9MwY3O9fIFEnnUrEKmhYw4VMdYadoYH55xQU36/wEdZ/SNZbOrIX1jlGLHHf3MBz6rAQWH5D70jA34iPMKWtUI2lh7rcHz7YR2gUyLsoWeNj8nwgJh/x8d3mGPMRTJ6A8OG7qrBYVQjZcpvRBx2+prox9o1TL3xGcK9yFUovuvfpwpqp+coiXBGecHKNKFQvxSHpdpb2Wb9VyFTkQawu7loxNM41TQ4/wCDOrI7AErfNDRimugnbi0fNwzePXSPtQop9x1fgHVrjI8KlTyIQUgRY+8LgET7CttZZs/D/3l6KI/Ibt9enserdP+EvifJ3lAzbd9AybL3m2kKa68KNfUsw+6/GaZ/qBrxGU3EsopZV4GbX6I2t1XwaG5L/gVkkfEKmQbE2JmeBXl9HyVw1Vnx/1+WXsMJ8bguS1B/gmPRdPXbh41jf5kxg9GCoeQfi//L/4a9Z1RjdFOsVTq9WIafWY2soR8zXuF4yF+oV3+OuZDteq/kctiSp8cExs+RlpayChjWczHj6+sYIBOyfk22ZP+GDAZxePQe6okvoctxjClv87zG9g7cWT5XwAYabtyNBn4f6J+IijmF01OVCGyfb1W1M4eO/zTHlI/CegPDBsLAzngFbr4k7qQFc1w3sWzIbfzX6murG1jdOvfDhYTmeA5WpHJc7HfM4uE40bk9GZPZRPLePTg+jeXsC9Hn1cFVXB+pytYiT7OqGgdNYPUeHoktdjusYjxe398D0zltYHKjwwRCubdFC81mdM09e2NXN+Db+oqc1PpN9iaD0iMCbIMDaFwaP8AGPZz8sxDvp30Dy2p5RVnwPjmW/A+12cetOF0LechFli9SYE5uCBfNTMTc+GSv3VqHYKJk+5HiPT+ld1wS60RRG9/w3lN51PYEXfuAtOJipxebrYngf7/ExlMI9SR6Wg5nQbr7uMtDajtPlOTAqo6DUaGFYkI8fT27F3FTa3MAFKbiPWBuTtBQjzy5hz0ojYjQJMC1cgJT4GMRlbsKxPyTvlxIijNzHnhRfC4Nf4UpxLGZlO95dYb2EfM37Xna+kuQ88gyX9qyEMUaDBNNCLEiJR0xcJjYd+wPuOY+gpTwBpop2iRiSpOM8ZA3njEAHb5jAePxzUk0c+QO7k1JlO2S5cuC7L2PX0hhExCRjwcI0zE3IQvm+tdB6vMdHfj0V0mC9RrvyGz1yvF9HrUR8mglp8dFQphXgxAPJNpw++gXechCZ2s2OZMZqcwz5CClxDchXLscx2bbewnTthnwllnv+ICkQD8vFMixSz0FsygLMT52L+OSV2FtVDGPqXowuD/TkxNI3jr7Hxwt3H2yGT6+CYtVp2eYGQv3Pw9dt7qMnzgLw/bhTVYBF+hioNWooFRqkfvo1mkQlLAR0vMdHrYxHmikN8dFKpBWcgLS6hK2xuy/vwtKYCMQkL8DCtLlIyCrHvrVaj/f4jN2nAxj8A0dyEzAnSm9/T1GcbgG2VBYj2bjLaTodEAEiEDoEWPvCIBI+E4HLY7jXjA5zF9w2pJpIklMY1/6iycyDU5gDJT2ZBFgbk7c8eWs/Os1P0f2mHZO3or/TjKfdryVbU3uzkM6FOoGJ+OebK7t4je7FkLc1aFNlCD+EHvNjmLsHxxD4EzTgTeTDD6PX3AFzVyBtWuQeGn0jP9QD82Mzugd9iCihmkQOvUPuUxnHWYXcSwuemC0hce8wziJSNCIwIwiw9oVhInxCqE75Xpxbq4Zx9x8hZPTMNpW1Mc1sSlT66SJA/jld5ClfIkAEiAARCBYCrH0hCZ83UWN8P9puX8PFugPYnqOHasEeNHtMeXgThlAe4yHA2pjGkzbFIQITJUD+OVGCFJ8IEAEiQARCnQBrX+gUPqFeYLKfCBABIkAEiAARIAJEgAgQASLgiwAJH19k6DwRIAJEgAgQASJABIgAESACYUPAKXyEISL6IwbkA+QD5APkA+QD5APkA+QD5APkA6HkA6zKzE34sEaicERgJhEQGj79IwLBSoD8M1hrhuwiAkSACBCBN0WAtS903tGxRnhTBaB8iECwEKC2ESw1QXZ4I0D+6Y0KnSMCRIAIEIGZRIC1LyThM5O8gso6LgKsjWlciVMkIjBBAuSfEwRI0YkAESACRCDkCbD2hSR8Qr6qqQBTTYC1MU21HZQ+EfBGIFj88/WD09hX9CEy05NhTDZh6SfF+ObsQ7z2ZrTfczy6z+9CSW3H1L501K8N4o82mE9txUc5Ochx/q3Ep+uKsefYDTznxHCBflrx+HwFNq/9BJ+Un4Vlkl/qynefx66SWnT4eQ9ooBb7Cv8m8/Jlg3A+WOzwZ+N4f7M9PoH8RVkob+gbbxKueHw3zu8qQe2bcA57rjwsZ8pRWv/UZcOMPeLRd+8U9hTkYFF6CtIWrsC6f1Wj2eLtQhJI2BkL1K3grH0hCR83bPSFCHgSYG1MnjHpDBGYegLB4J/Dv+1BmtqELdVNaDV3oet5G+6cq0SeMRJzt15Gf0A39ja0V5ig334b3m4HJkx05AHqvqpF6whLShzulhpg2PATbjY3o9nxd/XX49j9UTyiF1agZYglHfcwQ03F0CiWYfepRjTft0x6OW3tFTDpt+O2E+AIHtR9hVq2QrsbK37zwc0zLzHCm/2cWjsmgd8EcIy0fo9sXQLy6y0TSMUR1daOCpMe213OMfE0/aYwgvt7kpG4857fUJP+ow9/nfR8mBO04WndGmg1y/Cv2ht4+MyCzrbb+Hnvh9CpV+DHNmdjBRBIWB8GTHn5p7dNeCs1a19IwscbPTpHBCQEWBuTJAodEoE3RmD6/XMY53KjkXXEArm+4fvOIleZiq8eBjL0MMXCx3oGqyNWom6YpYpGhU/6vjbP0SfbUxzJikTW0UBvRjnc2aFH0p5WMGkvFjNlYTxFgBVnVkdgJVuhZak5vvrg5pmX9+hTfXZq7ZgEflMNgDX9mSJ8fPgrK6ZJD/f6V6xTpWHvH1KBI+RiQ8fBxVCurEWveAENJKwvQ6e8/MHXJlj7QhI+vpyGzhMBBwHWxkTAiMB0EJh+/xxAdVYU1l+0ein+a5z8IAJrzsl/s2Gw24wOcw+GxM7eGduP8LENotvcAXPPkIfIckYXpj0N98LcYUbPoBfBFdANgR/hAx6dPyyCquiKNGv7sW2wezR/z8IBsKIhPxpZR31NW7JhqMeMjicWvJTfI3nk5P2EpwiYhJsUH9ykefHDfXhmfo5+eXVLzWSsQ2kU57GfuFI7nOEdB/7rwxGIH0av3bcGPUUuJsCPH3Kk699nwQ+j75kZz/3Ck5fM7ux+7PYS3o/w4Ycc7car34owh9Bj7sATy0s/I5UjeGUxw9wtsAx8xIepvuxF9+NvPvzVRcTfNcgVarKOuOZt0Jkq8NjLJYnv/RHLlAVocLT3QML6tG/M8gOsnL3nMYE24T3BCZ9l7QtJ+EwYNSUQ7gRYG1O4c6DyBSeB6ffPEbTuSYbqo5Mwe7lRH+p5jl7J6MpQaw3yU5RQ6JKRaoxBhBj/qhAAACAASURBVCINRbVtcN0rexM+Q2ityUeKUgFdciqMMRFQpBWhts0Vy147XDvqNy+ARhmP1HnJ0EYpkZJ3BPdejdYdd3UHkpT/xKw/vY33FNGIVupQdF5inEcV+xM+QH91FqLWX3LFGmpFTX4KlAodklONiIlQIK2oFk4zB8+gQBuN2bP+jL+9G4XoaCVic+vQ70jh1b3DyE1SIEqXAlN6AlRRenz877twmA9wl1Gofh81L11ZCkdc8+eIyzriPOkmArir2JGkxD9n/Qlvv6ew56krOg9/pXYm5Djwx82eV1w+vvliBZISUmBK0yNytgY5+5sx4CZqGetQnrn9+9hx3cospjFWfdjDcWiv34wFGiXiU+chWRsFZUoejricxjc/Wwf2ZxhQ8ks9SpbMhUatgGbNKUfuVrT9ZyNMqihok1KRpI2CyrQRtY8k5O3x9Sj49gusSEpAiikN+sjZ0OTsR7MUHncdm7WZOOi2GGwMu0UG8k9vwsfahv9sNEEVpUVSahK0USqYNtZCairwCvcO5yJJEQVdignpCSpE6T/Gv+86vdOe06uWKqyeG4GIWKF9x2Nu9m78uI1xqhtDfdk69iNDX4Bv/fibP38VjGS5BnXsz4Ch5BfUlyzBXI0aCs0anBKGZPhe3KjMxbxY4fqhhFKlR2bREbS8cHN2OXVwDQVQLvvRNaojDcF3448brc7fAgkrTUY8Hqv8YODM995AZe48xEZHQ6lUQqXPRNGRFtiLOQnXFNHWyfxk7QtJ+EwmdUorLAmwNqawLDwVKugJBIV/Wh+iJtcApXEV9tS1oNuLALKDHGxCcbwBheeeOp8Wv75/FCs1RuxqESN5Cp/BpmLEGwpx7qkY5jXuH10JjXEXnNFgxe2yBGjXnEKHqIesZpwpMkCdewZ94n0Jw5NQV6UHInwG0VQcD0PhObjMvI+jKzUw7mpxJQkrLq2PQla1KHccP3G3UKJVY3Wd2cnGZjmHvFg9Su84ys01oECZjeoXkuQE4XN9M7RLDztPeoqASXg664ObkFfqW+9i4Ve/4aWDsbW9Bh8qVNhwxbUAiq0OnUVwO2CJ61lmtvqw3i5DgnYNTrmcBuYzRTCoc3HG5TTepwoKIiL9H4hIyUPNA/dtPIZulsCgy8Wpx6LQGUbHT+sQF78FVwcdxRPip76Fdxd+hd9c8FDzoQKqDZKRRO4qNmkW4UCn6MQAm91uGEe/eAifIdwsMUCXewouUzvw07o4xG+5CtFU7lYJtOrVqHM+3bDBci4PsfpSiO6J15exQT0HHxy+74hnQ29TCVL/520Yxlzjw1ZfrP4GH/4K5mtQOv4RkYK8mgeSDVp49NV9AnXGLlzrcrRJ6zM0bE9FzKp61zXGC3a/YkYWPpCwsqiur77KDwbOfB/qPlEjY9c1uIrZgO2pMVhV3+cYbZ+Ea4rL2kk5Yu0LSfhMCm5KJJwJsDamcGZAZQteAsHjnxwszdXYnmNAZHQaPvvyNB6IN3MOfNZL66HMrkaP6/7NPsf9ifB0dccdRyi58BGEghLZ1T3u09tsT+xP23eId13cNRRr5qPSLJtL8uI0CufvQJOomXzeEHir4wCEj/US1guixL1wsD3ZjwzDDkniPoQP34+2Ow+dT31HI3Bo3qaDaX+H42twCp/0yHW4IN7f2y0dwe87E6Df8Zuj3Ix16Ajt/sEW10P4MNUHh2vFGsyvNMumt73A6cL52OFyGt/CJ+1/sbxG5pvg0FigwpIq2bo3vguHlyqQd8GhzO3CKRLr3OFh5PedSNBLfMZD+LDa7U7S/k0ufLhGFKiWoMptNAnguw5jqSIPoql8fxvuPOx1b4NcM7bpTNjv2CGOayyAIvlLPJAuXuN7cSz772MLH6b6AoR6HtvfhBml3tfysV+D0vC/y2tk16oR/LErCfMqZGv+Bprw3e5fIL/0SOkHImYCCSvNw+3YR/nBwnnkD+xKmoeKNvdr6UDTd9j9i9hWSPi48aYvRCCcCATPjWU4UaWyTBaBYPTPwY4GfF8wDwplJnZd6XbeLPUdWYbotadh6etDn+TPUpODyNVnHEjkwqcPR5ZFY+1pi1ucvj4LanIisfqM4ybyRQ2WR61z3qj55OvrhsBrhACET98RLItei9MW97L1WWqQE7lakroP4eMIwfU8wPXz9ag9eQLHjx/Dlx8okbzn/uivQTri476DnGAqj84Di6DZdNVRKsY6dIR2/2CL6yF8mOrjBWqWR2GdeHfvnrHkm4+bPLuIiEPJLVFVi1GEdW/RyBcXbYin7YJIiSWHHG1CLkIc4fjOA1ik2eSMBQ/hw2q3KwnnkTzPgWpkRec715c4wwmCSLkEh7qlTyk49Dy4jvP1tTh54jiOH/sSHyiTsef+qNIZqM5CxNpfJdNWhdQ43Nkej4SxRnyY6mtU+Iztb76FTyDXoLiSW87RV5EL11qJxXEmbPzhIu73yetdDOX5GYiYCSSsZ06OM76uc0ycObRWLkacaSN+uHgf3ovpo034NGjqf2DtC2nEZ+rrgnIIcQKsjSnEi0nmhyiB4PVPG3qadiA5KgtH7I9CeXQfysSs9zRINBphlP3NL29y1IBM+PDdOJQ5C+9pEj3iGI3zUe54Ks93VWGxeoNrZMdXffq6IfAanl348N2HkDnrPWgSPctmnF8uSd2H8OH7cWPvUqiiErB8XTFKSstQVlaK9aYIJIW68GGsQwkk1yFjXLnwYaoPvgtVi9XY4BzZcWXrfuTjJk8uIsRIvAVVmTHY6JEuh6ubNFh0oHP0YYCP+GMKH2a7RYMkn7I8eUsVMmM2erYbmdji+29g71IVohKWY11xCUrLylBWuh6miCSH8BHa9xIoCxplYmEE//3COKbwYaovYXzYY6t2oWxyoe1L+IzzGiTBJxxynTdRvXMtMhO1MCxcg50nW/xOc7PH8bfGR55+AGFlUV1ffVznWDkLgrXzZjV2rs1EotaAhWt24mSLOM1NyMZHm3BZ8MaPWPtCEj5vvGoow1AjwNqYQq1cZG94EJh2/7SeQ76xGI1eH34O4uyaSGRVj+5g9qJ6OdRFV2Q3RvJ6kAkfvED1cjWKrnjNwBX5ZQ1WvNERHx69Py5FdH7DqA0vqrFcXYSxzBRuGLyt8eGaS6DTFeKS21S5EdzbmRgGIz6MdeiqTckRW1yPG2Km+niJmhUTHfHx9k6cAVRnex/xaSiInoQRH1a7JRjFQ5nwwUA1sr2O+DSgIFoc8eHQXKKDrvCS+9SvkXvYmega8ek/moU56y54jPjcLdWPKXzAVF8TFT7A+K5BIjz5pw2v2htR+VE8DJsuyTbzcA/LNW1ETOZB7y8rHvwFeZJraCBh3XORfPMhfFg5S1ICbK/Q3liJj+IN2HRpwDGCT8LHjRF9IQLhRGDabyzDCSaVZdIJTLt/ck3YELMQ3z+VTokRi/kaP386Bzm1o9uQCR269v1jsnUsANdtxjPn2nC58OHQtFGL94/J1heAQ7f5mWvhMXfdxxqfCyj77HvcE3WT9SzWROTglGvdvWisl09/Iz7DuFqssb+Pxx6Ra8JG7fs45nwZhyM5rhtmV+HsT0o9hQ+PrqrFUBVelolCDteLNRLhI6xjcq2pEA0ePLMaEUv8b25wdk0EcrwUeuRRDbZ91ywm5fvTBzcPwWFPQf4EnrEOvebOFtfDDqb6GOXrbY3PhbLP8L3LaeCVn1xEOO3n0FioxtJDXc5pnqNYhJEgBfLErd99xB9zxAesdjsNch3I8+QaUaheikNd7u3XPhKkyIPdVPsIkwqFl8VG5EjO3uZcwsfakI+oed/Itmzuw/EV74y9xoepvgIRPt7b+fiuQSK+EdyrXIXSi86Llf0Hm7kS85X+H3rwnVVYrFyD07KNSYQEhpo2IdZUgXbHkppAwoqWeXz6aK9g4TxyD5WrSuFeTBvMlfOhdD64snpvEx6GvLkTrH0hjfi8uTqhnEKUAGtjCtHikdkhTmD6/XMYd/5lhHLxXly1SG+MODy/+DmSNJ/hF3EUw3oLpUYDCs64dnWzdV3GtiQNcs8OOGpCLnwA661SGA0FOOPcLs2GrsvbkKTJhTMaOPxWbkRcbr1rW23uOX4tToD6s9OuqSjcbZToYlHUKD659OcAvoTPEB7/shGJUctwyPliDitulRphKDjj2tXN1oXL25KgyT0rycT7iM+wML3FsBXXnNsYc+i6sQ9LZv8VRnGqGwZwevUc6IouoUu8SXpxG3tM7+Ctxf6ED4fbJTrEFjXKnkrzsFQtRcbXbRL7fBz64OYhOOzR5cKHtQ69581S/552sNUH91s5jHG5qHfuVsbh+a/FSFB/htPOXd188JOLCIn5w83bkaDPQ/0TcYvBYXTU5UIbJ9vVzeQ5YjS28AHY7JYYJB562DyM5u0J0OfVw2VqB+pytYhz7uo2jIYCJQxbr7n8h+vCjX1LMPuvRucaHwxdwxatBp/VPXGM+vD2Xd2Mb/8F+rHW+ICtvjzrWSiYp7/Bh79inNegUXw8LMdzoDKV43Kn41rHdaJxezIis4/iubt2FIk7og7gYqEWsZ9Wo1Wim4baf0K+IRa5p11rIcEHENY9F9c3X+Vn4cxbcDxHBVP5ZbiK2YjtyZHIPvrcIeZ9tAmXBW/8iLUvJOHzxquGMgw1AqyNKdTKRfaGB4Gg8E+bBU0Vq5CsjEKsMQOLFs1HcpwauoUbcOwPSS8vjHc8qkXRPDWUBhMWZhih0aQg9+BduF5NY4P9HRqldyWjH1Y8qi3CPLUSBtNCZBg10KTk4uBdVyx7bXLtqCs2QROTANOCdBiUSiTlVuGu2+5yNph/Lsb8mEjMUSViq/c5eg7nGEFLeTxmvauAWq22/8XExECtVEGfuQE/3pWJJ+sj1BbNg1ppgGlhBowaDVJyD8LdTA4N+UosPyZ79MtbcLFsEdRzYpGyYD5S58YjeeVeVBUbkbr3odNZ+e7L2LU0BhExyViwMA1zE7JQvm8ttNL3+AjvOjGU4q5Eh9rMP6N4fgwi56iQuFVchzGEM7np2H5bEtCZk/zAOzf7e1VkeQk3opaDmdBuvi5JhLEOJTFch2PH9WoHY3201xXDpIlBgmkB0g1KKJNyUXX3pdtojVd+jvf4lEpBO412vMdHrUR8mglp8dFQphXgxAPJ9nc+4vOWg8jUbnamBF/v8WGw25WI48hbno73+KiV8UgzpSE+Wom0ghOQmspbLqJskRpzYlOwYH4q5sYnY+XeKhQbU7H3oWv3r8E/jiA3YQ6i9OkwJcdBt2ALKouTYdz1h4cpHicY6strPXv1N+/+KuQ5vmuQw1q+H3eqCrBIHwO1Rg2lQoPUT79Gk/gkwqNQkhPWdvxSuhxz1bEwZizE/GQd1Pql2HrqITwGoAMJK8nCdei7/GDgzPffQVXBIuhj1NColVBoUvHp103OBy5CPl7bhMuAN37E2heS8HnjVUMZhhoB1sYUauUie8ODQHD5J4eXFjMePzajZ9B1M+RJmsdQjxkdz/ow7C+YPCI/+tb4Z33Dsu2H3QPyQz0wPzaj268N7nEm85s9/45n6AuocKMW8MO9MHeY0fVauiew3Doew71mdJh7MeTvKbM8mvw7dwelCwtwUXIvLg8y6d8Z69BrvuOMy1Qf9rQfw9w96Ne3vNrl7+RUpSvmOYnpj91uRL/rgl/3hHAdeAKz5TX8ebFYBPknU33JIwX8fZzXoIDz8RLBNoS+52Y87Rkcm08gYb1k5e/Um+Hsz4LJ/Y21LyThM7ncKbUwJMDamMKw6FSkECBA/hkClRSsJo60o/HXVudLKoPVTLKLCBABIjAWAda+kITPWCTp9xlPgLUxzXhQBGBaCJB/Tgt2ypQIEAEiQASCiABrX0jCJ4gqjUwJTgKsjSk4rSerwp0A+We41zCVjwgQASJABMYiwNoXkvAZiyT9PuMJsDamGQ+KAEwLAfLPacFOmRIBIkAEiEAQEWDtC0n4BFGlkSnBSYC1MQWn9WRVuBMg/wz3GqbyEQEiQASIwFgEWPtCEj5jkaTfZzwB1sY040ERgGkhQP45LdgpUyJABIgAEQgiAqx9IQmfIKo0MiU4CbA2puC0nqwKdwLkn+Few1Q+IkAEiAARGIsAa19IwmcskvT7jCfA2phmPCgCMC0EyD+nBTtlSgSIABEgAkFEgLUvJOETRJVGpgQnAdbGFJzWk1XhToD8M9xrmMpHBIgAESACYxFg7QtJ+IxFkn6f8QRYG9OMB0UApoUA+ee0YKdMiQARIAJEIIgIsPaFJHyCqNLIlOAkwNqYgtN6sircCZB/hnsNU/mIABEgAkRgLAKsfSEJn7FI0u8zngBrY5rxoAjAtBAg/5wW7JQpESACRIAIBBEB1r6QhE8QVRqZEpwEWBtTcFpPVoU7AfLPcK9hKh8RIAJEgAiMRYC1LyThMxZJ+n3GE2BtTDMeFAGYFgLkn9OCnTIlAkSACBCBICLA2heS8AmiSiNTgpMAa2MKTuvJqnAnQP4Z7jVM5SMCRIAIEIGxCLD2hSR8xiJJv894AqyNacaDIgDTQoD8c1qwU6ZEgAgQASIQRARY+0ISPkFUaWRKcBJgbUzBaT1ZFe4EyD/DvYapfESACBABIjAWAda+kITPWCTp9xlPgLUxzXhQBGBaCEy/f9rw+EQ+FmWVo6GPnxYG3jO14vH5Cmxe+wk+KT8LSzCZ5t1gOksEiAARIALjJMDaF5LwGSdgijZzCLA2pplDhEoaTASm3z9H0Pp9NnQJ+agPVF2MPEDdV7VoHZl8okNNxdAolmH3qUY037eAm/wsKEUiQASIABEIEgKsfSEJnyCpMDIjeAmwNqbgLQFZFs4EQto/rWewOmIl6oYnu4Y43NmhR9KeVkyBpppsYyk9IkAEiAARmCAB1r6QhM8EQVP08CfA2pjCnwSVMBgJBLt/8sN9eGZ+jn6rF3pjCh8bBrvN6DD3YCigqWpWNORHI+ton5dMhVM2DPWY0fHEgpf+hoL4YfSaO2DuGYTNR0qwDaLbHmYIAZnoKz06TwSIABEgAgETYO0LSfgEjJYizDQCrI1ppnGh8gYHgWDwT+76ZmgzDzrX0dg69iNDX4Bvv1iBpIQUmNL0iJytQc7+Zgw41AF3dQeSlP/ErD+9jfcU0YhW6lB03jX0M9Rag/wUJRS6ZKQaYxChSENRbRtc+smGjv0ZMJT8gvqSJZirUUOhWYNT5tMo0EZj9qw/42/vRiE6WonY3Dr0O6rr1b3DyE1SIEqXAlN6AlRRenz877t45VadHNrrN2OBRon41HlI1kZBmZKHI/ekoYbQWpOPFKUCuuRUGGMioEgrQm2by0K3JOkLESACRIAITBkB1r6QhM+UVQElHC4EWBtTuJSXyhFaBILBP7mrm6BZdACdDlFja69A6lvvYuFXv+Gl45y1vQYfKlTYcGXIBdjXiM9gE4rjDSg899S5Nuf1/aNYqTFiV4s4RGNDe0U6/hGRgryaB3jtShWAFZfWRyGrWpQ7jh+5WyjRqrG6zuxM12Y5h7xYPUrviOkC1ttlSNCuwakOUcRYYT5TBIM6F2ccGzgMNhUj3lCIc0/FeK9x/+hKaIy74DTRzSb6QgSIABEgAlNFgLUvJOEzVTVA6YYNAdbGFDYFpoKEFIFg8E9vwic9ch0uuAZwAIzg950J0O/4zcXXh/CxXloPZXY1etzmjtnwRBjh2XHHEV8QPmn43+U1snDCzz6ED9+PtjsP0euWLofmbTqY9nc40uVwrViD+ZVm2fS2FzhdOB87mgShI6SvRHZ1j/v0NtsT7M8wYIdERLkKS0dEgAgQASIwVQRY+0ISPlNVA5Ru2BBgbUxhU2AqSEgRCAb/9CZ8TPrtuC0OhtiJ8ug8sAiaTVddfH0In74jyxC99jQsfX3ok/xZanIQufqMI74gfEyIK7nlHL2RJOx9xMcRgOt5gOvn61F78gSOHz+GLz9QInnPfcevL1CzPArrLoijPa5UXUd9OLIsGmtPW9zs6+uzoCYnEqvP+IvrSoWOiAARIAJEYHIIsPaFJHwmhzelEsYEWBtTGCOgogUxgWDwz8kVPjy6D2Vi1nsaJBqNMMr+5pc3OWpjVPjot99mFz58P27sXQpVVAKWrytGSWkZyspKsd4UgSRR+PBdqFqsxgb7yI6Piue7cShzFt7TJHrYZzTOR7m/uD6SpNNEgAgQASIwfgKsfSEJn/EzppgzhABrY5ohOKiYQUYgGPxzcoUP8KJ6OdRFV7wIGin8wIUP11wCna4Ql9zm0I3g3s5EyYjPS9SsGGvE5wWql6tRdMVtSEtqHB0TASJABIjAGyTA2heS8HmDlUJZhSYB1sYUmqUjq0OdQDD45/iFz1msicjBKcl+B0J9cE0boX3/mGwtDsB1m/HMuYtBoMKHR1fVYqgKL8sEFYfrxRqJ8Bn97m2Nz4Wyz/D9PUHscGjaqMX7x3rd1/iAQ7f5mWyjhVD3MLKfCBABIhD8BFj7QhI+wV+XZOE0E2BtTNNsJmU/QwkEg3+OW/hwt1Gii0VR44C7gLDeQqnRgIIzrl3dbF2XsS1Jg9yzA46aDlT4AMMNBVAatuKauKc2OHTd2Icls/8KozjVTZA1v5XDGJeLerM4osPh+a/FSFB/htOOXd2st0phNBTgjHNXNxu6Lm9DkiYXThNnqE9SsYkAESACb5oAa19IwudN1wzlF3IEWBtTyBWMDA4LAsHgn17f42MoxV1RN9hJ87AczIR283UJdxvMPxdjfkwk5qgSsbXRFcH6qBZF89RQGkxYmGGERpOC3IN38dIZ2/Een9K7shEcIQCHhnwllh974QxtP+AtuFi2COo5sUhZMB+pc+ORvHIvqoqNSN37UBKWQ3tdMUyaGCSYFiDdoIQyKRdVd19KBJoVj2qLME+thMG0EBlGDTQpuTh412WhJEE6JAJEgAgQgSkkwNoXkvCZwkqgpMODAGtjCo/SUilCjUB4+yePoR4zOp71Ydg2eTXDD/fC3GFG1+sR/4nyQ+gxP4a5e1C2tbUkmj1MB571DfsOIwlOh0SACBABIjD5BFj7QhI+k8+eUgwzAqyNKcyKTcUJEQLknyFSUWQmESACRIAITBkB1r6QhM+UVQElHC4EWBtTuJSXyhFaBMg/Q6u+yFoiQASIABGYfAKsfWEQCB8bzHXbsfNcV2AUbI9xIn8RssobGOLZ8PhEPhZllaPBsTCVIRLAd+P8rhLUdnifY2Ez12FbfiVuOXcZck+Vt5zDv9ZW4MYkvcuOt5xBeWm9eyb0bcoJsDYm0RDBL7bvPIcut7fDi79OzyfXchAbvm2G0xVtZpza+hFycnJcfys/xbriPTh247mXNROMdlsf43zFZqz95BOUn7VI1kMwxvcbjEf3+V0oqe2gKUUSToH6pyQqHRIBIkAEiAARCAsCrH1hEAgfDndLDUjf1xYY+JFWfJ+tQ0K+VAiM4EHdV6htlc/bHkHr99nQJeSj3hLA3aitHRUmPba7v37caSd3txTaP/8F8dubMeg86zjgLaj7JAL/7y/LcfyV/MfxfR+5vwfJiTvHF5lijZsAa2MSMxD8wpC+D23e9bIYbPI+Rx6g7qtaeLi9MwcONz/XYWGl2SUYuLsoNRiw4aebaG5udvxdxa/Hd+Oj+GgsrGiBbIdhZ2q+D4bQVKyBYtlunGpsxn2La6G67ziB/OJlF68xyx5I+qEZNlD/DM1SktVEgAgQASJABHwTYO0LQ1f4eC27FWdWR2Bl3bDXXwM+ySB89DHJSFYkovyONE8e3b+sQYwhDQnvriDhEzD44IrA2phEq9+48LGeweqIlfDp9twd7DDMQ4VUidmFTzr2Sc85CmB7egRZkVk4GshDAiGukI8+CXt8KzAR0Tg/vQifsco+zpxCKVqg/hlKZSNbiQARIAJEgAiwEGDtC4Ne+PDDfXhmfo5+5xwdf8Ufh/CxCbv2dOCJ5aXn9B4G4WNI34trtR9DmbwbLQ4b+d6zWKsxovx6PXIjfAgffgi95g6Ye4b8TgcaeWWB2dyNQRvgb8THNtht36WoZyiAES1/KOk3JwHWxiRGCFj4+PNBMVF/n2Pc/I/8vhOJyXtwXzoQ6kf4gO/ED4tUXt5Kb8Ngtxkd5h54dTNrA/Kjs3C0z4exEy0nSPh4Ixuof3pLg84RASJABIgAEQhlAqx9YVAKH1vHfmToC/DtFyuQlJACU5oekbM1yNnfDOd758Dh+mYtMg9aRuuJu4odSUr8c9af8PZ7CkRHK6ErOg9xHEb+ngngFe4dzkWSIgq6FBPSE1SI0n+Mf9+VzEtjEj770MZ14j8fqZG297/g+H78mh+LuTuaMTh83ovwsaLtPxthUkVBm5SKJG0UVKaNqH0kWupwu1ctqFo9FxERsUhONSJ+bjZ2/7jNc6rbUCtq8lOgVOjs4WIiFEgrqkUbk1AMZRd/c7azNibRInbhw+CDfC9uVOZiXmw0opVKKFV6ZBYdQcuLUYHLXd2BJOU/MetPb+M9hRBGh6LzUl8awf09yUjc+Tukugf+hA/6UZ0VhfWXXE401FqD/BQlFLpkpBpjEKFIQ1Ftm3PN0OCZAmijZ2PWn/+Gd6MEO2KRW9cvOvOYbY27XAj1+zWSd7QIUTk0fx6HrCO9jnTchc/YZRdrJLw/A/XP8KZBpSMCRIAIEIGZSIC1LwxO4dNegdS33sXCr37DS8cAhrW9Bh8qVNhwRVx5wOHqJg0WHeiU1K/vER/5m8W5WyXQqlejzvlmbhss5/IQqy/FHXFpAqvwsQF8Zy0+ijGhvHI9tIZtuC5seGD1FD5DN0tg0OXi1GPx5nQYHT+tQ1z8Flx1LhR6jcsb1JjzwWHcd5yz9TahJPV/8LZBusZnEE3F8TAUnoPz5eGv7+PoSg2Mu1okXOhwIgRYG5OYB6vwGdsHefTVfQJ1xi5c63I4pfUZGranImZVPZz7dPgb8bG1oWKeATucTu2wMhDhnz0UygAAIABJREFUM9iE4ngDCs89dY6Kvr5/FCs1RuxqERuL4O+XsD4qC9Wi3hGzYmhrXEMBlNnVcH/d5OjDjaWHexwpuQsf+0l/ZXfECvePQP0z3HlQ+YgAESACRGDmEWDtC4NW+KRHrsMFURvY628Ev+9MgH7Hb47anJjw4fvbcOdhr/s0M64Z23Qm7Bd3cQtA+AA8ntd+iNl/icXmJseokYfw4dBYoMKSKtluV3wXDi9VIO+C4wk714gCRTK+fCB9Rs+j91g2/i4VPsKNpjIb1T3u09tsT/Yjw7Bj5nn9FJWYtTGJ2bMKn7F9cAR/7ErCvIo216YEQiYDTfhu9y8wi5sn+Ln5t5krsUC3BTck+sRuZwDCx3ppvV2UuLuZDU/2Z8Cw445YbJ/CZ+xyAiR8XBgDPQrUPwNNn8ITASJABIgAEQh2Aqx9YdAKH5N+O9w3U+PReWARNJuuOthPTPiMJsKh58F1nK+vxckTx3H82Jf4QJmMPeJiiICEDwD+BToePnNOr/Mc8RlAdVY08hs87kLRWKDEkkPdo0JsoBpZEWvxq2umkd1c7s52xCdIRnz6jmBZ9FqctvShr0/yZ6lBTuTqYPfRkLGPtTGJBWIVPqPh/fsg11qJxXEmbPzhIu73yf3GkaNP4cPjedVixG644pySJtoYyFS3viPLEL32NCxSH+vrg6UmB5GrzziT9DXiw1ROGvFxcQzwKFD/DDB5Ck4EiAARIAJEIOgJsPaFM1b48P03sHepClEJy7GuuASlZWUoK10PU0TS+IWP3C3kIz68BVWZMdjYJL+BdYk4YeyG7z6EJcoCNMqCjfz3CxglwkcIlznrPWgSjTAaZX/zy+XW0PdxEmBtTGLyrMKHyQeFlS6dN1G9cy0yE7UwLFyDnSdbXNPchEx9CR++C0ezYpB/UZweKlooJCpsZ+19Vze4rfHh0X0oE7Pe0yBR7mNGI+aXN7kS9THVjaWcNOLjwhjoUaD+GWj6FJ4IEAEiQASIQLATYO0LZ6jw4dBcooOu8BLcpu+M3MPOxAmM+Mi9Qi58MIDqbO8jPg0F0a4Rn/6jyJqzDuLMNzFZ4YZaLxE+eFGN5eoiXJEJJDE8fU4OAdbGJObGJnwYfVBM1P5pw6v2RlR+FA/DpkuujT58CB++7wRy1Lk451w7JknMn/Dhe/HjUpefvqheDnXRFef6Hkkq7odehQ9bOUn4uKMM5Fug/hlI2hSWCBABIkAEiEAoEGDtC8NO+JxdE4GcU55PuN02N+C7ULVYhcLLMsXAXUexZiqFD4fGQjWWHupyX1tkHwlSIO+iY26bsC1w1Dx881hcxDHqcn3HV+Ad6Rofrgkbte/jWK/7Gh9w3TA/E3ZXoH+TQYC1MYl5MQkfJh8cwb3KVSi96F6Xwrqd+UqJ4LWexZqIHMjd/kXdx1B9Wi/bKc1hpT/hM3wVxRrX+3i4po3Qvn8Mnm5mhpubeRM+TOUEuGvF0Jj2Q1xeN2rloP29XEv8bm7gvexiXcyEz0D9cyYwoTISASJABIjAzCLA2heGmfDhcLtEh9iiRtfTcEe9uwkfDKOhQAnD1muucFwXbuxbgtl/NU7dVDcAw83bkaDPQ/0TcQHPMDrqcqGNk+7qNoRrW7TQfFYHMRgv7OpmfBt/0UvW+MCKW6VGGArOuHZ1s3Xh8rYkaHLPziyPn8LSsjYm0QQm4cPkgzwsx3OgMpXjcqdDpHOdaNyejMjso3gu6l3uNkp0sShqHJAI6lc4vVqFnFrZFmsuI71PdRt6jF82JiJq2SE4dbf1FkqNBhScce3qZuu6jG1JGuSeHRBT9LG5AWNbGziN1XN0KLrU5djIgceL23tgeuctLPYnfLyW3WXSTDgK1D9nAhMqIxEgAkSACMwsAqx9YRAInxG0lCfAVNHurCH7e3wMpbjrNiDDw3IwE9rN1x3hZO/xcZy1mX9G8fwYRM5RIXFro3N6jvw9PrzlIsoWqTEnNgUL5qdibnwyVu6tQrExFXsfOkZabB3Yn2FAqbshTjtHWsqRYKpAu/vAjPN3WC9gneIDnHR7YO94j49aifg0E9Lio6FMK8CJB25b2AGDf+BIbgLmROmRbkpGnG4BtlQWI9m4y5W+cGR9hNqieVArDTAtzIBRo0FK7kHcfekejL6NnwBrYxJzEPwifta7UKjVUMv/YrTIOdhuv7ln8kG+H3eqCrBIHwO1Rg2lQoPUT79GU5fU6Www/1yM+TGRmKP6/9l7F68mrvX//+8533POb9Vz6+WAhBBiuEQI4RYQ8Ia2HHtaL1EEUalHQaRWbW2tPfTTilYRWyrFiloVXEWrqFXPqpeqLIzKCpcoKrAyi2S9f2uSTJKZTJIdICGBh7VYmUz27P08r+fZs+eZfcvEVn5ymPU8KtRvo1k0llOQEMD4TdSnzcHrCkHGZCQnq5z7BG38Bjc8G2Y5LrLeb0FVvgpKrQFFBTqo1dkwHrgh7k3iOlChXIaj4jWpwaQn7Bi4sAuLk+OQrF+Aotz5yFhaj0/XakT7+PTyK8nV3XDXa0BGdy81Z8NhqP45G5iQjkSACBABIjC7CLC2hVEQ+EynYewYG+J3ou/HK++VoyMhkn0Ug6YemAZGxEsVS8rmXpjxyGQOKp99dBCm3iewjHk/EEsyo68TIsBamSaUOabRB0MW2I7RQRN6n1gQupsx6mkfw5CpF6ahUa/eq5AFnVUXhNc/ZxVKUpYIEAEiQARilABrWzjLA58YtS6JHVECrJUpokJRYUTARYD8k1yBCBABIkAEZjsB1raQAp/Z7imkf1ACrJUpaEaUgAiEgQD5ZxigUpZEgAgQASIQUwRY20IKfGLKrCTsdBBgrUzTIRuVSQSixT9f3TuJT6v+hZI8PXR6Axa/V43PT/0O0RRHJnPZMXBmF2paegMOA2bKaioT2Uxord2J0/3CqiJTmfk05WUfwJldNWgRL6c4TcI4i7UPnMGumhbJCo/TKtKUFW7r+RYVxUtR32GZsjzBz4+MdH2xm9FeX4e2xzS0ntWQM9mvWRmEOx1rW0iBT7gtQfnHPAHWyhTzipICMUkgGvxz7Nc9yFUZsKWpC3dM/eh/+gDXTzegXBeP+Vsv4FlIsYIND/cZkF57zWsRiyk0zfg9tO5twZ1Q53UGWgJ+CsVzZzVROd0ZeB+M417rXrRIlbY9xD5DOmqviVYS8r4w4se2h/tgSK9FeETywyFCWo7f+RKlKRmoaDNPYYlhri9yko7fxR59JnbeCrUSyWUW+rnxe63Y23IH01N6YHn9yRZev5bKFH4/96enVJJIfmdtCynwiaRVqKyYJMBamWJSORI65glMv3+O4bQxEUsPm30WpLBbTsGozMFeYaVMJtphfpDzs+FvUNEiHfhMVE5ZRayOPbFWtEpWD511gY8fDrLMYuVkmOuLHIZpDnys7asQt6IVEm+WkzTi5/zJFtnAJ/x+7k/PiAP3KpC1LaTAxwsaHRIBOQKslUnuWjpHBMJNYPr98zmaliZgvbABs0jhV/junTisPi3sWyb8aMPIAL+i5iBGfXqDAjzI2UYwwK/6Nxh41T/72BBMvSYMjsgMxZloQBFy4GNzroL4yIwXE+lQmaicAmLRp58HIe/Axz4GyxMTnj6T2so7o0B2804X+Ng2MuC0j6/x4f8BkbFsYWXIQbkVU/1wCCyu61c7Rh2rwMr5rFcGTBy90guHAeUWEsl9BqgvYJGZ0U/HX8JsMmGAr1OTCHwC2d5bO/uYBU9MTyHnjsEfuhl9xbvAKTr2J5u3XwfSzS0G473OnV50ENzPWe0gytbriz89vZJE/JC1LaTAJ+KmoQJjjQBrZYo1vUjemUFg+v1zHHf26JH07ncwyTzgjw4+xZDXq9nRO82oyFZCkaJHji4ZcYpcVLU8gOdxW+5BbhR3miuQrVQgRZ8DXXIcFLlVaHngucphTe4h2j5YALUyDTn5emgSlMguP4xbL5225i5uR5byTcz5w2t4Q5GIRGUKqs54CRfIJUIIfF7eOgRjlgIJKdkw5GUgKSEd//6/G3CJAdiHcLnBiPx5vAxK5/5ZVYdxc9gZBU5KTqkO3EVsz1LizTl/wGtvKJCYqERK1Rnn23JH4JOKis8/wvKsDGQbcpEe/xbUZfvRLdnLK7jdpAXLfB+9g+aKbCgVKdDn6JAcp0BuVQu8zej9gCjkwFY2h4dtH2CBWom0nHzoNQlQZpfjsMf4ATg49+yr+bENNYvmQ61SQL36uFA8rA++xyZDEhI0WcjJ0iAhyYBNLfc9PQ6OPf/SUflFEI7cL/hAU4IDZu9oP4jcbin8HcjVFwSXGUBQP3UU+RI3G1dhflwc5vF1L20+Snd/g22hDnVjsX3vfhSkV+KLj5YjKyMbhtx0xL+lRtn+btdm8xwubs+C8s05+MNrb0CRmAhlShW8q3BQX3Htzyhr6yD10p8FnOcDy+bw69QKfO5XNyF3xnudkFz6Gai+82kZ7BD4/hRYT6k4kfzO2hZS4BNJq1BZMUmAtTLFpHIkdMwTiAr/tP6OZqMWSt1K7Gm9iQGZAMgBeqQL1WlabDj92D1/59XdI1ih1mHXTeEi3we5ka5qpGk34PRjIc0r3D2yAmrdLrgvgxXXdmRAs/o4eoV4yGpCe5UWKmM7LMKz5kR7UlgDH+4qajQqrGo1uXW0mU+jfF466q7z8tthaX0PqoJduNTv0sf6BB21OUhe2TZ5OWU92s8bYD7wyfkzXi/ai19fuABZH6L5XwokbfzZkxOT3TzJ5Y9G0FWdBu2G0/CY8S6OrFBDt+um+xKfwIexbOu1HcjQrMZxj/Fhaq+CVmVEu8f4/of85f0DcdnlaL4nWY5j9ApqtCkwHu9xBzpjvT9gXWoatlwcccrNypG7iM3qYnzVJzgjwCa3G4/MgW99AYvMQf3UWdSrCxuhmvsODt0VdB1CV00O/vaaNoQ5Puy2z/nz6yja+ys87tiMfymSsPHnUbfufnsbWHyFt5WsrRnrpVsK+QN/svF+zaIb271OvmzPWT/1HSx2YOPgT0+PDJE/Ym0LKfCJvG2oxBgjwFqZYkwtEneGEIge/+Rg7m5CbZkW8Ym5WPPxSdwTnl5crK3n10NZ2oRBz3MfABse7S+Advt1Vyrpg5wV59crUdo0KJ5DZHuE/QVabHcEEwC4S6hWF6LBJBneNnwSGwq3o0uImcId+Nif4cH13zEk0pFD97YUGPb3AhjH7V1ZyN/3QLxq3fMu/Hf3j3CLP1E5Zf3az4OQ4yEwHuvOinu9xv+3Exnp2905sdnNnVz+wHoe65WlaBIbH7ZH+1Gg9ZQlDXzYyuZwqVqNwgaTmCmGcXJDIbZ7jO8/8Mn9O5Y1S3yMd6vOSiQtaoSokwZ29B9aDEX5WWdPJSNH+AQ+rHLLI3WeldYXRpmD+imfO4fOSgX0H98TLSRgHzqK0r+EEPiEYPu8+HUQu+M4/rczA+nbf3VD8PfQzeQrvK1kbc1YL91SyB/4k4336+C6Md7r5Iv2OuunvjPZgY2DPz29hIj4IWtbSIFPxE1DBcYaAdbKFGt6kbwzg0A0+udIbwe+rMyHQlmCXT8PuAMWy+ElSFx7EmaLBRavf3NzGeJXtbsMIn2Qs+DwkkSsPWkWXWOxmNFcFo9V7a7uneFmLEtYh7NCb48/8040oGDt8XGVyw3ewy9n2tDy3bc4duwoPn5HCf2eu45fuTsNWJhqwKavz+GuRYjIJAJPVE5JNs6vfh6E+IdAmVXd7H1foVi92Z0Tm93cyeUPLIexJHEtTprFtreYm1EWv8p9jTTwYSt7GM3LErAuuPH9Bz6GVNRc9bXF86alSKzocPfeCYLyAZFy0UEM8AEuI0ffwIdVbqFUuU9pfQGYZHZlFchPAX7+XhzW/iSpVNx11KZlsPf4TND2ThHt6PuqGOrNF93K+3voZvIVh63kbc1UL91SyB/4k03q1/K6Md7r5Iv2OuunvjPagYWDPz29hIj4IWtbSIFPxE1DBcYaAdbKFGt6kbwzg0D0+qcNg13boU9YisOObgw7Bg6WYM4bamTqdNBJ/gvru1wGkTzI2QdwsGQO3lBn+lyj0xWi3vU2397fiIWqjZ6eHX/mnWhAwRr42J/h8ieLkZSQgWXrqlFTtwM7dtRhvSEOWa7AhxeN67uCpp1rUZKpgbZoNXZ+d9MzzI1PMFE5ZfX28yDE9MDOajfZgt0n7QMHUTLnDagzfW2vK6x3pxM/IDKWbe9H40IVNrp7dtzZSQ5C48APSzQ3liB5U5dv4HNxM9TFX8Exao2JI290yVA3Zrklaoi+SuoLq8wsfsrXvUVKVHZKAsLx3/CRjj3wmZjtBSVZAx9GX/FjK6G0oPVSSOjn019AIPZr4WKJboz3OuFq/5/yfs5qBz7fYBz86elfpvD/wtoWUuATfltQCTFOgLUyxbiaJH6MEph2/7SeRoWuGtJnIyfOEZxaHY+lTc4NG4eblkFV9bPPQ6QYvfRBbhhNy1So+lny8CW+CHjRjOVR0OPDddcgJWUDzouGdI3j1s5Md4+PWHQbXj7sRMO7adBuPu+axB1NgQ/AZjexVj7fhpuwTFWFYGaUPiCylf0Czcsn2+Mjv5/R86ZS+R6fjkokTrrHh1VuH5peJ6T1he/xCS4zm58+w5Glc3170viXAOnsgQ8maHunkpLgwFE15JezZvKVIIGPB6yfeulJIHvkLyCQ+rW8boz3OtmSvU/KBz6sdvDOiR+KLHd/8qen+NrIfmNtCynwiaxdqLQYJMBamWJQNRJ5BhCYdv/kurAxuQhfPhZNanGRfYUT789FWcsLx3euaxM0bx+VzH8BuAETnrjnlEsf5Dh0bdLg7aND7iFzzsw5DJiewH0Z94ufOT5nsWPNl7glxE3WU1gdV4bjnrnSbF7A1ONjR3/jQiRtuCAJ7jj8Uq12BT7juNWwEnXn3JI7yreZGlCo9AoMAsg5fr8Z2/7bzSa3I5UVp1bHoUyqtJ+HQOlQNza7BRGH68Imzds4Kp78xBsfJo/xfZazZivbyVdujs/ZHWvwpcf4IXHgNeI6N0C1+CD6Re7t7AlSlJ/zzPFhGDLo0+MDVrkDsZXWFxaZWfyUL9OKjooE5H/eI547ZTmG5X8NYY7PBG3v1Fom8Dm1GnFlxyGtwky+4sfn+bl3TPUykCl4Yn5kYwt8GO91QWTg7SZb35nswMbBn55BRQtjAta2kAKfMBqBsp4ZBFgr08zQlrSINQLT759juP6hDsqFn+CiWYgueIocnp77D7LUa/Cj0PthvYo6nRaV7Z5V3Wz9F7AtSw3jqecu9L4PctarddBpK9HuXg7Mhv4L25ClNsJ9GTj8Wq9DqrHNs6w29xQ/VWdAteakZxgZdw01KfNQ1flcEkgFsTxT4AOMdVRCqd2KS+7loDn0X/4Ui976E3SOoW52mI+VIclQjwt9Ll5cHzpr9YgvPYKnwgO2Xzn5h+7FKPjsQRCBvX/mcK0mBfOqOj09SvzPfh4CpYEPmOzmXZ7csRVX63TQVrZ7VnWz9ePCtiyojafcF/g8IDKWzf1aD12qEW3uNdU5PP2pGhmqNTjpXtUtNA4Ooca6UZuRjvK2R+4l18d6W2HUpIpXdZtQ4AOwye3GI3PgW1/AIHNwP3UWNXppCzTqNWh95JrnY+dXddPhtT+ms8/xwQRt7xDBN/DhrtUgZV4VOt11zIWFxVf8+LxjWCNLvZSxgPcpf7L5+LUf3djudd4lyh378XMmO7Ddn/zpKSdNpM6xtoUU+ETKIlROzBJgrUwxqyAJHtMEosI/bWZ07VsJvTIB83QFKC4uhD5VhZSijTh6W9yzYb3fgqp8FZRaA4oKdFCrs2E8cAPOPiHeFDb08qu81d3w6jWx4n5LFfJVSmgNRSjQqaHONuLADc9VDiNyD9FabYA6OQOGBXnQKpXIMjbihmh1ORtMJ6pRmByPuUmZ2Co/Rs/XJ8Zvoj5tDl5XqKBSSf+ToSk7gIf8gnJ2M87tKIZq7jxkLyhEzvw06Fd8gsZqHXI++d2Zr/0ZrjdWojg9GSq1CkqFGjnvf4aufu8V6fzJOYp2Yx5qr3kHmb7iSs/YTCdQXZiM+LlJyNza6WTr2tOk7oY4L7v5AEo0H4iyCG43UXL5L9b7aKnKh0qphaGoADq1GtnGA/A2o43fy0VbB2+R2Mrm8LC1GgZ1MjIMC5CnVUKZZUTjjReiADcUDoISzn18VFCm5cKQm4ZEZS4qv73nXt4arBz97ePDILcgi++nXH0R9vEJIDOLnzoKG8Htw0ZkzE1Aep4B+tQULNjSgGq9Drtuj/uK4+/MBG3vCEgOlEDzwS+enG0mnKguRHL8XCRlbhUNsw3qK35s5cicqV56xJA98iObnF/L6gbGe51s4Z6Tsn7O/8xgB7Bw8KOnR4LIH7G2hRT4RN42VGKMEWCtTDGmFok7QwhEl39yeGE2oafHhEF+h3e/f3aMDprQ+8SCsUDJpNfbRzFo6sUTy5h46I0knX10EKYe1y7zkt8i9dU+NgRTrwn9r0J4OGQRjruOuqJKnBOvQM1y5RSkmaDdJCU77NP7BJbQjM/mMw4f6YFpYCSgj0hEYvjq1L3HNICArs2Qk2ySsMgdXGZmP+VewPzIBPMk/XlitpclFuDk1PhpgALC/xPjvW6igkTGDhOVbmLXsbaFFPhMjC9dNYsIsFamWYSEVI0iAuSfUWSMSIgy/hCdP92BazvJSJRIZRABIkAEop4Aa1tIgU/Um5IEnG4CrJVpuuWk8mcnAfLP2Wl30poIEAEiQAQ8BFjbQgp8PMzoiAjIEmCtTLIX00kiEGYC5J9hBkzZEwEiQASIQNQTYG0LKfCJelOSgNNNgLUyTbecVP7sJED+OTvtTloTASJABIiAhwBrW0iBj4cZHREBWQKslUn2YjpJBMJMgPwzzIApeyJABIgAEYh6AqxtIQU+UW9KEnC6CbBWpumWk8qfnQTIP2en3UlrIkAEiAAR8BBgbQsp8PEwoyMiIEuAtTLJXkwniUCYCZB/hhkwZU8EiAARIAJRT4C1LaTAJ+pNSQJONwHWyjTdclL5s5MA+efstDtpTQSIABEgAh4CrG0hBT4eZnREBGQJsFYm2YvpJBEIMwHyzzADpuyJABEgAkQg6gmwtoUU+ES9KUnA6SbAWpmmW04qf3YSIP+cnXYnrYkAESACRMBDgLUtpMDHw4yOiIAsAdbKJHsxnSQCYSZA/hlmwJQ9ESACRIAIRD0B1raQAp+oNyUJON0EWCvTdMtJ5c9OAuSfs9PupDURIAJEgAh4CLC2hRT4eJjRERGQJcBamWQvppNEIMwEyD/DDJiyJwJEgAgQgagnwNoWUuAT9aYkAaebAGtlmm45qfzZSYD8c3banbQmAkSACBABDwHWtpACHw8zOiICsgRYK5PsxXSSCISZAPlnmAFT9kSACBABIhD1BFjbQgp8ot6UJOB0E2CtTNMtJ5U/OwmQf85Ou5PWRIAIEAEi4CHA2hZS4ONhRkdEQJYAa2WSvZhOEoEwEyD/DDNgyp4IEAEiQASingBrW0iBT9SbkgScbgKslWm65aTyZyeB2eufdpjb61HX9jhqDG8fOINdNS3otUWNSE5BbD34tqIYS+s7okwwEocIEAEiMDUEWNtCCnymhjflMoMJsFamGYyAVItiArPXP8dxd48emTtvRcA647jXuhctd8YDlmV7uA+G9Fpc4wImm8CPbOUDftKN38GXpSnIqGibQNl0CREgAkQg+gmwtoUU+ES/LUnCaSbAWpmmWUwqfpYSmL3+GcnAx4r2VXFY0ToW0MvCF/iwlQ+wpguoBv1IBIgAEYg5AqxtIQU+MWdaEjjSBFgrU6TlovKIAE8guvzThpHBxzCZX0LU6cENo8/0GENjdr9Gs48OwdRrwuCo/zR8j8ZLswmmgRHYECDwsY1gwNQL0+AoAuUmEsY2ikFTLx6ZX4hldyRiCyj8Bj4B8xZJ4ecLW/kTDXxsI4N4bDLjpdhoGO4z4fHQWACGNowMmNBrGkRAs/nRik4TASJABKaKAGtbSIHPVBGnfGYsAdbKNGMBkGJRTWD6/dOG3v0FSF+/FzVL9MjKM0A/Lw5x+ir80DOIK/veRa4uG4Y8LeJfT0Lpvm4Me0cj1gf4fpMBSQkaZOVkQZOQBMOmFtyXdK68vNmIVfPjEDdPjxxdGuaX7sY326RD3UZxp7kC2UoFUvQ50CXHQZFbhZYH1gA2fIlbh4zIUiQgJduAvIwkJKT/G/9346XzGu4itmcp8eacP+C1NxRITFQipeoMJOI50voGPkHydlxlx9DlBhjz5znyViqTkF5ShcM3h50BB2v5AdNx+OUDDUoOmN0cbL37UZC+HntrlkCflQeDfh7i4vSo+qEHg1f24d1cHbINedDGv46k0n3oFhkNGL3TjIpsJRQpvD2SEafIRVXLAwQi7S6cDogAESACU0yAtS2kwGeKwVN2M48Aa2WaeZqTRrFAYPr904aH+3Lwp3++g8NCgGF/ju4P9XgrSYu3P7qC565Ax/qgCWVzNai5KnQtjOJKjRYpxuPoESKJsV78sC4VaVsuYkQwwKsL2Kiai3cO3XWds2GoqwY5f3sNWq85PiNd1UjTbsDpx0L+r3D3yAqodbtwUzgl5On65K7WQKNahVaTkMAG8+lyzEuvw3XhFOMQMmngw5K33dKK91QF2HWp39XTZMWTjlrkJK9Em0WIECfb48Ph4mY1ir/qc2vPy5rzp3/incNCsGLH8+4PoX8rCdq3P8IVj9HQVDYXmpqrnp6wkS5Up2mx4fRj97lXd49ghVqHXf5Au0umAyJABIjA1BNgbQsp8Jl69pTjDCPAWplmmNqkTowQmH7/5AOfPCg3XHA/BDvQWZqw5K9L0fTMGySHS9VqFHzxCI6Fz7hOVCYtQqNZeMB3prX3H8JiRTnOuroPuM5KKPQf45732gL2IRwt/YtX4GPF+fVTcbl7AAAgAElEQVRKlDYNiodm2R5hf4EW2z1RjLdAsD97gOu/D4mv4bqxLcWA/e7l2dgCD2ngw5L3+O1dyMrfhweileCeo+u/u/GjSTjJVr7/oW7ygU+ecgMuuIM7HosFTUv+iqVio4G7VA11wRd45BLHen49lKVNGBSZzYZH+wug3X5dxJe+EAEiQAQiQYC1LaTAJxLWoDJimgBrZYppJUn4mCUw/f7JBz4GpNdeEwc+Yyfwftz7OCH05DgIj+O3j3TI3XvfGfg8b8LSxAp0iB6+AfABkXIRDg44n6yfNy1F3NqfJMOoOFyvTUOGu8fHgsNLErH2pBkWi8Xr34zmsnisag80CIvD4L1fcKatBd99ewzHjn6Md5R67LkrRFpsgYc08HE6VZC8uTtoWJgKw6avce6uRczQ7ZVs5Yca+PiuQDeGE+/H4X2x0TD+20fQ5e7FfVfgYzm8BIlrT8Is4myBubkM8ava3VLTAREgAkQgUgRY20IKfCJlESonZgmwVqaYVZAEj2kC0++fEw987OZGlCRvQpdP4HMRm9XF+KqPD3zsGDi4CMrKTklQ4Ayi3IGPfQAHS+bgDXUmdDqd5L8Q9T6FOM1uf3YZnyxOQkLGMqyrrkHdjh3YUbcehrisSQc+bHnzgV4frjTtxNqSTGi0RVi98zvcdA9z4+WMpsCHt0cJ5ryhRqYPZx0K67tiuj6R8ESACMQmAda2kAKf2LQvSR1BAqyVKYIiUVFEwE1g+v1z4oEPnjehVLbHpwOViZ4en2dHlmLuurM+PT436tK9enyG0bRMhaqfpVGUG5XMAYfumhSkbDgvHrY1fgs7Myfb48Oat1gs28uH6Gx4F2nazTgvzLOJqsAHGG5aBlXVz5JAVKwHfSMCRIAIRJIAa1tIgU8krUJlxSQB1soUk8qR0DFPYPr9cxKBD9eJDarFONgvmiwCR0+QohznXKPTrB0VSMj/HD3ClBeH1Sw4tvyvXnN8OHRt0uDto5L5OuAwYHqCV3KWtvejcWESNognugDcL6hWiwOfU6vjUHZ8VC4X9znRUDfGvMdvNWBl3TmxfDYTGgqVXkGcFSzl8z1D8unk5/hMdKgb17UJmrePYkhsNnADJjyRBe1GRAdEgAgQgbAQYG0LKfAJC37KdCYRYK1MM0ln0iV2CEy/f04i8MEYumszkF7ehkfCFJyxXrQaNUj1XtVt9BK2aNRY0/rI1etjd6zqpnvtj0h3z/EBrFfroNNWot29qpsN/Re2IUttxKnncjYdQ0elEtqtl9wrz4Hrx+VPF+GtP+m8hrpxuFaTgnlVnZ50MtmJAh+w5W03H0NZkgH1F/pcPSgc+jproY8vxZGnQmTBVj7gL93UBj6wXkWdTovKds+qbrb+C9iWpYZRHrQMLTpFBIgAEZg6AqxtIQU+U8eccpqhBFgr0wxVn9SKcgLT75/OfXy0dTfEQ5/GTmKlYiVOShY3uL07C/mfPXAubsCzde3jo1KmIdeQi7REJXIrv8U90XXAyO3DMGbMRUI6v+dMKlIWbEFDtR66Xbe9LGTF/ZYq5KuU0BqKUKBTQ51txIEbL7zSiA/t5nPYUazC3HnZWFCYg/lpeqz4pBHVuhx88runi8lmOoHqwmTEz01C5lbpfCNnno69cbR1uOEabceWtx3PrjeisjgdySo1VEoF1Dnv47Oufg8jACzl81LIp/Ozj4+XrE4NxnBypQIrxUbD+O3dyMr/TLTynPV+C6ryVVBqDSgq0EGtzobxwA34Jy3mTt+IABEgAlNJgLUtpMBnKqlTXjOSAGtlmpHKk1JRT2Cm+Kd9dBCmHhMGRjzBhi98Di/Mj2Ayv4Kw3ppvGn49hFEMmnrxxDImCh5k0zpO2jE2ZEKvqR+vAmbsPwf/v4Qzb/+lRuYXO0YHTeh9YsFYILNFRhgqhQgQgVlMgLUtpMBnFjsJqc5GgLUyseVGqYjA1BIg/5xanpQbESACRIAIxB4B1raQAp/Ysy1JHGECrJUpwmJRcUTAQYD8kxyBCBABIkAEZjsB1raQAp/Z7imkf1ACrJUpaEaUgAiEgQD5ZxigUpZEgAgQASIQUwRY20IKfGLKrCTsdBBgrUzTIRuVSQTIP8kHiAARIAJEYLYTYG0LKfCZ7Z5C+gclwFqZgmZECYhAGAiQf4YBKmVJBIgAESACMUWAtS2kwCemzErCTgcB1so0HbJRmUSA/JN8gAgQASJABGY7Ada2kAKf2e4ppH9QAqyVKWhGlIAIhIEA+WcYoFKWRIAIEAEiEFMEWNtCUeDDX0T/xIB8gHyAfIB8gHyAfIB8gHyAfIB8IJZ8gCVSEwU+LBdQGiIw2wjwlZ7+iEC0EiD/jFbLkFxEgAgQASIQKQKsbaH7iY71gkgpQOUQgWghQHUjWixBcsgRIP+Uo0LniAARIAJEYDYRYG0LKfCZTV5Buk6IAGtlmlDmdBERmCQB8s9JAqTLiQARIAJEIOYJsLaFFPjEvKlJgXATYK1M4ZaD8icCcgTIP+Wo0DkiQASIABGYTQRY20IKfGaTV5CuEyLAWpkmlDldRAQmSYD8c5IA6XIiQASIABGIeQKsbSEFPjFvalIg3ARYK1O45aD8iYAcAfJPOSp0jggQASJABGYTAda2kAKf2eQVpOuECLBWpgllThcRgUkSIP+cJEC6nAgQASJABGKeAGtbSIFPzJuaFAg3AdbKFG45KH8iIEeA/FOOCp0jAkSACBCB2USAtS2kwGc2eQXpOiECrJVpQpnTRURgkgTIPycJkC4nAkSACBCBmCfA2hZS4BPzpiYFwk2AtTKFWw7KnwjIESD/lKNC54gAESACRGA2EWBtC6Ms8BnGhY/fh7HhGqzM1rLD3F6PurbHga+wm9FeX4e2x7bA6ehXIiAhwFqZvC+zDV5H0/ZVWGLQQ5+3EP/+z9e42DfuncRxzJqOM3VgX+VKfHTWArtPLkFO2AZxvWk7Vi0xQK/Pw8J//wdfX+yDRxoON79ai7KyMt//d2tw4omnznCmTvx3UxmKcvTILSpD1b4zeDgapHz6OawEJuKfYRWIMicCRIAIEAEiEGECrG1hdAU+z4/j3bi/4C+JlegYYyU2jrt79MjceSvwBeN3sUefiZ23PI97gS+gX4mAkwBrZRJ42S0d2JymxMIPW3H1YR/Mj27hzOfvIkX9Pr73CiKY0tlf4OY3a6FTpkCnfh2G/5rgCUOEEgN82i3o2JwG5cIP0Xr1IfrMj3DrzOd4N0WN979/4srLjuHem7ja3Y1u9/9ltFSlYU5SJc49d4Za9r4fsDJZg3//9zzuPDbj8Z1OfLU6DcrSw+gJSagA8tJPIRMI1T9DLoAuIAJEgAgQASIQ5QRY28KoCnyGf3gPSSu+wCdFamy4wBr5UOAT5b4Y8+KxVianojb07DdAtf4sXog053BrZyY027rBOc4zpht/iNPftOG3Z2Po3qpBYYiBj61nPwyq9TgrFgbcrZ3I1GxDt1MYkaT8l5fd9dC9pceuayOu32x4sC8P6k1dENVM7ibq56eg5qqfjHxyphNTTSA0/5zq0ik/IkAEiAARIALTT4C1LYyiwOcFTqxMwr9ahmD6sgjqjT8HGO42jpdmE0wDI7AhQOAz/hJmkwkDIzZgQj0+NowMmNBrGsRoyOOLpt8JSIKpIcBamZylWXHGGI/lx176FM51VkK5+BAGHb7Emk7IhptQ4GM9Y0T88mPwkYbrRKVyMQ45hREKcXzazSewWhmHZUd6RMPhLm5Wo+TrPslQu5c4tvxNvP+jKBwS5UdfwksgNP8MryyUOxEgAkSACBCB6SDA2hZGT+Dz8iRWJ5XhO4sdtkcNWDBvM7pkJvq8vNmIVfPjEDdPjxxdGuaX7sY326RD3V7iZuMqzI+Lwzx9DnRp81G6+xtsEw11s6F3fwG0NT+irWYR5qtVUKhX4/iQM8IZvdOMimwlFCl8OcmIU+SiquWBKBizD11GgzEf8xIToVQqkZRegqrDNzEsBEn2IVxuMCJ/XiISlUook9JRUnUYN90JpsM1qMxQCbBWJme+Yzi58p8o+943EOAuboa6+Cv0OfyDNZ0g7cQCn7GTK/HPsu/FvTR8ltxFbFYX4yunMEIhAHcHDUX/hKbqPFxVwf0b9+wp+l8Jzu06/eocKpT52PeAxrq5QUX4IDT/jLBwVBwRIAJEgAgQgQgQYG0LoybweXXKiKS3m51vw229+KJQg+pLkuEzry5go2ou3jl0F84BODYMddUg52+vQes1x+fVhY1QzX0Hh+66hunYhtBVk4O/vab1muNjw8N9efhHXDbKm+/hlbdRRrpQnabFhtOPXcOSgFd3j2CFWoddN10y2S1ofU+Fgl2X0O86ZX3SgdqcZKxs4yeg22FpfQ+qgl245EmAjtocJK9sg0Xy/OhdPB1HFwHWyuSUmjWgYU0nsIhM4DNyrhLJb6qQWbgM5XvPwiSpgoI0zs9x/L6/AAnvNLuCOfGv9C0yBELzz8jIRKUQASJABIgAEYgkAda2MEoCnxGcWatCadOAaxiNDT2fG6DZctkdePDw+KFCCv3HuOe9PoF9CEdL/+IV+HDorFRA//E9r2E6gH3oKEr/Ig18cvH3Za5gy8s61vProSxtcg1JEn6w4RHfQ7T9uvPE+G3syvJ90/2867/Y/SM/AX0ct3dlIX/fA/Fk9Odd+O/uH2GiF+QC2Kj/ZK1MTkVYAxrWdAIe+cBnbOAB7tw3+x2KGXKPj1Dcq/toWaNByuYLkrlKQgK+c2g/FiQUoeF37wrp+Z2OIkMgNP+MjExUChEgAkSACBCBSBJgbQujI/AZPYty1VJ8Y/Z0g9ge7EN+ylbR5OvnTUsRt/Yn0XAzgMP12jRkuHt8nqNpaRzW/iQZJ8ddR21ahqTHx4DUmqui4Io3kuXwEiSuPQmzxQKL17+5uQzxq9pdduRwp2EhUg2b8PW5u7DIvBnn7jRgYaoBm74+h7tyCSLpEVTWhAmwViZnAawBDWs6QWxp4DOGm/sXQ5NiQEmRDmk5K/Hpqd/w+On/cGzj+/jshtMhJxz4ALAPNmN5fBm+fy7I4PX58jK2ZyRieVOv6AWDVwo6jBCB0PwzQkJRMUSACBABIkAEIkiAtS2MisBn9HwFVIsaxcNlbA/wWV6q12pRdgwcXARlZackUBnHbx/pPIGPfQAHFylR2SmJRMZ/w0c638AnvfaaJD++nBLMeUONTJ0OOsl/YX2Xlxk59F1pws61JcjUaFG0eie+uyneZ4Xru4KmnWtRkqmBtmg1dn53k4a5eRGMhUPWyuTUhTWgYU0nEJIEPvZh3DrTgYeu+H7sUQe+qFyGgvwSrPqkA32uHsXJBD7OBUG02CEM7xREsZvxo1GNeRWnMeB5VyH8Sp8RJhCaf06lcK9w7+SnqPpXCfL0OugNi/Fe9ec49bto4PBUFhgwL/vAGeyqaUEv9aYH5DT5H23o+bYCxUvr0RHBMdu2nm9RUbwU9R2WyasQxhzs5nbU17UFLYE1XdCMKAERIAIOAqxtYRQEPmPoqFQgqWwPDh46hEPu/0bUL45DSu11d2Dy7MhSzF131qfH50ZduifwwTMcWToX685Ke3xuoC6dJfABhpuWQVX1s7tcJp+yvcTDzga8m6bF5vPPJStf8TnY8PJhJxreTYN283m4tkZhypoSTS8B1srklNKKU6viUNbiu6sn17UZ6pIDcHZssqYTdJcEPsLpIJ/WU6sQV9YCH2m4LmxWl+CAQ5hRnN26GB/9InlZYHuIfYY01FzzPs/h968XQaH/CO6VroPIQD+Hl0Bo/jlVsozh1z25UBm2oKnrDkz9/Xj64DpON5RDFz8fWy88k7kHBi57/F4r9rbcCd6DOH4PrXtbcEcywtL2cB8M6bUQuWvgIunXCREYx50vS5GSUYE2r1EaE8pK7iI/9h2/8yVKUzJQ0WaWuypqzo3f3QN95s6g8rCmC5oRJSACRMBBgLUtnP7Ax/ozqpI0KNuxG7t3S/5rl0GdXgfXqB1YOyqQkP+5ZLNEC44t/6vXHB8rOioSkP95j3hujeUYlv9VOsfHAN8eH4Dr2gTN20d9V7UaMOGJ8DJz/BYaVtbhnPDdgd0GU0MhlI6gaRy3GlaiTpwANlMDCpVV+Nn7WZKcNqoJsFYmpxLOoZc5e++L/Y8fQnnsbShWtbuCENZ0ApqJBT7c9Vqk5ezFfelbcMsxvK1YhXZHRMSha3MyCqR7BI2chlGxEI1eDzcvr+yATrEUBx9InjoFMekz4gRC888pEm/sNIyJS3HYyzecOdthOWWEMmcvfpf6XJCire2rELei1XcFQul11nasiluBVsnCiRT4SEHF6Hc/9o0VbVgDGtZ0saI3yUkEppsAa1s47YGPtWsTkvP2QXY1XMfwNC3qb7oeskYvYYtGjTWtj1y9PnbHqm661/6IdPccH2D00hZo1GvQ+sjV62PnV3XT4bU/pvvM8ZELfGC9ijqdFpXtnlXdbP0XsC1LDeMp14QHuxnHypJgqL+APlcQw/V1olYfj9IjTx2rupmPlSHJUI8LngTorNUjvvQIntIQoemuI8zls1YmIUPuf3ugTy7zrCrIL8zxuB2V6SnY1OnZUYc1nTPfiQU+4P6HPfpklLlXQnQIg/bKdKRs6nTv78P9Wo/MFCN+cC/j9hI3PzFAsawJT1y+ajf/CKN6HipOC4uQCBrT53QSCNU/p0TW501YmrAe5yQd6468X32Hd+JW47TPb4H3RZvKwMc+ZsET01M885HBS3vbCAZMvTANjrL3TtnHMOS4ht9Dzt+fHaNDLPu/2TAy+Bgm80vx6AJuGH2mxxgaC9RITOZaf3KLzzMxFF/i+GYfG4Kp14RBfv882T8bRgdN6H1kxgu5F4ATCXzsoy67BLGlfQyWJyY8DegY3kIHkdWVdPylGSbTAJxbBvrv8WFN5y2B6HgiPivKgL4QgZlLgLUtnObAh8PlLRrkfvq7n0ZkHLc+zIRu129uS43cPgxjxlwkpOfBoE9FyoItaKjWQ7frtjsNMILbh43ImJuA9DwD9KkpWLClAdV6HXbdFt5Uu/bxqbshbnRcuVjvt6AqXwWl1oCiAh3U6mwYD9wQrXBlf3YdjZXFSE9WQa1SQqHOwfufdaFfuN/bn+F6YyWK05OhUqugVKiR8/5n6HIn8BKZDqOWAGtl8ijAwXSqFiUaJVJyilCUr0WS2oANx+5KhpyxpuNz5nC1Jg1FDY/ZH9JcAnGmU6gt0UCZkoOionxok9QwbDiGu6Lxb1Y8aNmAHKUS2vwC5GoUSC6uw1lhshA43KjT4P/96R9IUKmgEv0nI8X4vU8PqYcHHYWTQOj+OQXSjN/BHn0S3v3OJHP/HMXg0yFRz03gfdE4XNyeBeWbc/CH196Agt8XLaUKZyQ9OrzU3MXtyFK+iTl/eA1vKPj90VJQ5Uro6PFJrcDnHy1HVkY2DLnpiH9LjbL93ZKhxaO401yBbKUCKfw+b8lxUORWoeVBoCiJw8O2D7BArURaTj70mgQos8tx+JbnRQYvn/XB99hkSEKCJgs5WRokJBmwqeW+Fwtnu5O+fi9qluiRxbdP8+IQp6/CDz2DuLLvXeTqsmHI0yL+9SSU7uv27AuHSVzLXcAG1dtofiG2Pdf9H6QuPew+aevdj4L0SnwRhCH3ywfQuIftui7nHqLtgwVQK9OQk6+HJkGJ7PLD8Eb08tYhGLMUSEjhdcxAUkI6/v1/NzwvYALYF9wv+EAjDM8VRLbiwfebYEhKgCYrB1maBCQZNqHlvpfz2HqxvyAdlV98hOVZGcg25CI9/i2oy/ajO8CY82CyOiR4eRONq+YjLm4e9Dk6pM0vxe5vtvkOdWNI52CvrcGPbTVYNF8NlUKN1ceHXIoy+CzDvoFB9x4UsNInEYhBAqxt4TQHPhMly+GF+RFM5leBx4NzL2B+ZIL5lRDshFqe3flm6okFY0IwE2oWlD7mCbBWJl9FOQw/7UXvYwsCvrwFazrfEkI5ww0/RW/vY1gCCWN7hf5HPTANjYUcYIUiC6WdOgIT98/JyWD9vRlGrRK6lXvQenNAJgBy5c+yLxofNEzBULecP7+Oor2/4oWrs8T6sBn/UiRh48+eKH+kqxpp2g04/VjobniFu0dWQK3bBek6HgIh67UdyNCsxvFeITiywtReBa3KiHZhgv/oFdRoU2A83uMOdMZ6f8C61DRsuejaUw78/nE5+NM/38FhIdCyP0f3h3q8laTF2x9dcQdp1gdNKJur8VrgZxLXch2oVJaiaVjQyPnpCGAWH3Kf5INHFobizZj5y624tiMDmtXH4UFkQnuVFipju3NBH+4qajQqrGr1BMs282mUz0tH3XXBFg5HkB3KKLfp8uiVGmhTjDjeIwQ6Y+j9YR1S07bAg/wh9uX8Ga8X7cWvHsdA878USNr4s1t30QGTrK9wYaMKc985BM+WgV2oyfkbXtN6z/FhS8ezz/tHHLLLm3FPNIQeCO6zDPsGBt17UESAvhCBmCPA2hbGaOATc/YggWOYAGtlimEVSfQYJjCt/smZ0d1UizJtPBJz1+Djk/fcQYeAlGlftCkKfPLi1+Gs8AzsEGAc/9uZgfTtv7rEseL8eiVKmwbFgb3tEfYXaLHd+wFcUAAcLlWrUdjA78/m/TeMkxsKsb3L+dDO7zOXtKjRtXiJkM6O/kOLoSgXFuVxbpyt3HBBHChamrDkr0vR9Ey4jv90llvwxSNXuZO4NoTAJzhDvudtM9TFX3lWYuUuoVpdiAbpBnXDJ7GhcDsciOzP8OD675KeYQ7d21Jg2N/rUdzfUDfuIjari/FVnzAEkN+zLwmLGs1iW9r7cWixAuXCAkf8Ii158VgndgyM/28nMtK3e8r1PmKRletEpUKPj8UbC2LoaCn+4h34MKbjA5/cvy9D86CgnyAQi88y7BsYdO9BoTz6JAKxSYC1LaTAJzbtS1JHkABrZYqgSFQUEXATiA7/HEFvx5eozFdAWbILP3utc862L9rU9Pj4rupmR99XxVBvvujiZcHhJYlYe9Is2qPNYjGjuSweq9qFHh03XgDDaF6W4LtSqHcSAPw+c4kVHeKAhg9fOiuhXHTQtfQ7H7zILKozdgLvx72PE5Kgjd+qIde9UMokrg0h8AnOUCbwGW7GsoR1EGINCRrRV27wHn4504aW777FsWNH8fE7Suj33PWkYQ58+D37ElHR4dVb5MiFD4iUWHTQNRfRsTplOmoly/3Z+75CsXqzp1yZo4Cy8vPc4tbCd8vAWqRlePX4MKZzDtWswVWpOmDz2eD7Bgbfe1AGAZ0iAjFDgLUtpMAnZkxKgk4XAdbKNF3yUbmzm0BU+adtEF3b9UhYehjOl//s+6JNxVC3oA/t/D5vJXPwhjrTZ482na4Q9a7eG5FH2fvRuFCFjXK/uRPaYW4sQfKmLt/AR9Q7MongxTFMboJBU5gDH3t/IxaqNjp7dtxMJAf2Z7j8yWIkJWRg2bpq1NTtwI4ddVhviEPWRAIfuxmNJcnY5GMXDhc3q1H8VZ+zJ2gigQ+DrPaBg1ikrITvloEfQecV+LCmcwQ+csuxh+CzwfcNDL73oMRq9JUIxAwB1raQAp+YMSkJOl0EWCvTdMlH5c5uAtPhn9bTFdBVSzeTdtlh5BRWxy9Fk2ufSdZ90SIS+GAYTctUqAppP4EXaF7O0uNTKt/j01GJxJne4/OiGcuD9Phw3TVISdmA86KhXOO4tTNz4j0+pfI9Ph2ViZPq8WGS9dkRLJ3r28vF3ahDulfgA8Z0fgOfCfksw76BQfcenN33VdI+9giwtoUU+MSebUniCBNgrUwRFouKIwIOAtPhn1zXRiQXfYnH0ukIvESvTuD9uWVoca0gxrQvGj/H59RqxJUdl6x8KGNk6ymsjivDcc96BY5E8g+O0qFuHLo2afD20SHxvBBwGDA9gWROuatwDr/4meNzdscafHlLmOOzAarFB9EvYuLsCVKUn3NtwTBdPT78HBwD9veKZymN8AtKLBIvbhC018yxup50js8vfub4nMWONV/iFmdHf+NCJEnnNsHJVjzUTd6+vosbcOjcoMLig/1iWzp6ghQoF9ZaD7nHh1FWawcqEvLxeY+YqeXYcvzVe44PYzp5/+VdkMVnGfYNDLr3oExdo1NEIIYIsLaFFPjEkFFJ1OkhwFqZpkc6KnW2E5gW/xy7jg91Siz85CLM3nMSuKc4958sqNf8CPeLfZZ90fjHu2s1SJlXhc4ASww7bM1dQ03KPFR1Phc98Mo/OEoDH8B6tQ46bSXa3au62dB/YRuy1EYI27RJfYrf50qXakSbe58rDk9/qkaGag1OCqu6jXWjNiMd5W3CPnPAWG8rjJpUyapuExyuNpmhbniOk6vmIqXqvHu7BfvwNewx/BV/XjgFgQ84/FqvQ6qxDR5ET/FTdQZUa046VnUb66iEUrsVl9z25dB/+VMseutP0HkPdfNjX9/ABxjrrkVGejnahD37MIbeViM0qZJV3QyhzfFhk3UUl7ZooF7TCqF4+1AXanSv4Y/pXnN8wJZO3n+dnhjcZ+0Ium9g0L0HpV5P34lAbBFgbQsp8Iktu5K000CAtTJNg2hUJBHAdPmnzdyFfSv1UCbMg66gGMWFeqSqUlC08ShuS7pOWPZFg82EE9WFSI6fi6TMrT5zJzymtsF0ohqFyfGYm5SJra5JFs59UOpwwzsQgx3mAyXQfPCL53JYcb+lCvkqJbSGIhTo1FBnG3HghmSTG68r+LfuD1urYVAnI8OwAHlaJZRZRjTeeCEKvpz7+KigTMuFITcNicpcVH57z728NVx78Wil+8eNncRKxUqclCxucHt3FvI/e+Be1a13fwEmdi1gH7iAXYuTEZesx4KiXMzPWIr6T9dCI93HRxucob99fFqrDVAnZ8CwIA9apRJZxkbcEJaQtptxbkcxVHPnIXtBIXLmp0G/4hM0VuuQ8xSFHQEAABzVSURBVMnvXrTl7RtwHx+VEmm5BuSmJUKZW4lv73mBdOzjo0Wd2DFgNx9AieYDr3K9DlllHbmNw8YMzE1IR55Bj9SUBdjSUA29bpdXZgAY0sn7r5ANg88y7BsYdO9BoTj6JAIxSIC1LaTAJwaNSyJHlgBrZYqsVFQaEXASmHb/5PdLM/WgxzTo2Lnev12ibF80+ygGTb14YhmTLFPtXwM4rumBaWAkwDVOPXtMA0F4BCgnbD/ZMTZkQq9pCKOiIXlTV6B9dBCmHhMGRsRDwIQS7GNDMPWa0D/h/fWEnLw+mezilZ7xkFVW7oUZj0xmBFOJNZ1f8Sbis34zox+IwMwiwNoWUuAzs+xO2oSBAGtlCkPRlCURCEqA/DMoIkpABIgAESACM5wAa1tIgc8MdwRSb/IEWCvT5EuiHIhA6ATIP0NnRlcQASJABIjAzCLA2hZS4DOz7E7ahIEAa2UKQ9GUJREISoD8MygiSkAEiAARIAIznABrW0iBzwx3BFJv8gRYK9PkS6IciEDoBMg/Q2dGVxABIkAEiMDMIsDaFlLgM7PsTtqEgQBrZQpD0ZQlEQhKgPwzKCJKQASIABEgAjOcAGtbSIHPDHcEUm/yBFgr0+RLohyIQOgEyD9DZ0ZXEAEiQASIwMwiwNoWUuAzs+xO2oSBAGtlCkPRlCURCEqA/DMoIkpABIgAESACM5wAa1tIgc8MdwRSb/IEWCvT5EuiHIhA6ATIP0NnRlcQASJABIjAzCLA2hZS4DOz7E7ahIEAa2UKQ9GUJREISoD8MygiSkAEiAARIAIznABrW0iBzwx3BFJv8gRYK9PkS6IciEDoBMg/Q2dGVxABIkAEiMDMIsDaFlLgM7PsTtqEgQBrZQpD0ZQlEQhKgPwzKCJKQASIABEgAjOcAGtbSIHPDHcEUm/yBFgr0+RLohyIQOgEyD9DZ0ZXEAEiQASIwMwiwNoWUuAzs+xO2oSBAGtlCkPRlCURCEqA/DMoIkpABIgAESACM5wAa1tIgc8MdwRSb/IEWCvT5EuiHIhA6ATIP0NnRlcQASJABIjAzCLA2ha6A5+ZpT5pQwSIABEgAkSACBABIkAEiAAR8BBwBD6sUZLnMjoiArODANWN2WHnWNWS/DNWLUdyEwEiQASIwFQRCKUtpMBnqqhTPjOSQCiVaUYCIKWimgD5Z1Sbh4QjAkSACBCBCBAIpS2kwCcCBqEiYpdAKJUpdrUkyWOVAPlnrFqO5CYCRIAIEIGpIhBKW0iBz1RRp3xmJIFQKtOMBEBKRTUB8s+oNg8JRwSIABEgAhEgEEpbSIFPBAxCRcQugVAqU+xqSZLHKgHyz1i1HMlNBIgAESACU0UglLaQAp+pok75zEgCoVSmGQmAlIpqAuSfUW0eEo4IEAEiQAQiQCCUtpACnwgYhIqIXQKhVKbY1ZIkj1UC5J+xajmSmwgQASJABKaKQChtIQU+U0Wd8pmRBEKpTDMSACkV1QTIP6PaPCQcESACRIAIRIBAKG1hFAU+NpiOb8W7ZWUok/1/F9t+MEUA33QV8Qr3Tn6Kqn+VIE+vg96wGO9Vf45Tv7+aLoGoXAChVCYemM10HFvfFfvwivfXoXrPUVx+yk2YqbXnDPZ9sBbvvVePU2b7hPORvdA+gDO7atDSa5P9mU5GL4FQ/TMcmsj5fNmKlaio/T+c6xkNR5GzNE87Bs7sQk1LL8JVU8N6n5mlVhOpbevBtxXFWFrfITpNX4gAEZgcgVDawigKfDjcqNNCu/EHXOnuRrfP/zXc6RubHBmZq8fvtWJvyx2My/wWuVNj+HVPLlSGLWjqugNTfz+ePriO0w3l0MXPx9YLzxDyo+74PbTubcGd6VUscgjDVFIolYkXgbtRB612I3644uXDF3/Csd3vIi2xCPtuTuBBcLQL1WoFluw+js7uuzBPPH6Sp2R7iH2GdNRe82QcHfVCXlw66yEQqn96rpy6I1mfv9yB1n1GZCgM+PTGBHw+mHhRdn+b2voyjnute9Hic/O24eE+A9Jrr8FTU4OBCuH3cN9n4E+vEGSMsqT+7e5H1/E7+LI0BRkVbVGmCYlDBGKbQChtYdQFPnmfPgjb2yw5s1rbVyFuRSumPqSSK83PubHTMCYuxWGfN/l2WE4ZoczZi99DfcVnbcequBVonVbF/OgbQ6dDqUy8Wo6HwLxP8cDHXjY8PrwU8UuPwMfMQXhw17cjPWtP+IJYmcAnKupFEC70c+g9kuFg5t/n7eg7+jYUy49iIOQ3N0EkjbL729TWFyvaV8Vhhc/NO7yBT9jvM/CnVxBbR/HP/u0+83SNYjOQaEQgpNE5MR342EYHYep9BPOLQO+/7BgbMqHXNIgRn4dRwP+Ny+VJ9lEMmXphGhwNvdeF1RmfN2Fpwnqcs8pc8Oo7vBO3Gqd9frNhZMCp16jcQ0WUPRjIaBYTp6Yu8AHsfV+jOKkKP0vd1TaCgQA+Zu2oQOLSI7D4IcZWD/xczJ+mwCcAnOj+KVT/DIc2/gMfwP7kSxSpq3EpRJ8PKifD/c0+OgRTrwmDsjfIoCXANjLAfH3QdgR2jLraoeDi+Hto9g587BizPIHp6TP4NA1u1YK0Ee50zoMpuc/Yx1zt5YjMC0x/enkEmazNPDlN0VGwe7PfF6fBdZWT0D5mwRPTUzzzb1Rww09hejyEMbl2Xy5TOkcEZgGBUNrC2Ax8Xt7CIWMWFAkpyDbkISMpAen//j/ceCm2LvewDR8sUEOZloN8vQYJymyUH74FZzIOF7dnQfnmHPzhtTegSEyEMqUKZ9w9JFY8+H4TDEkJ0GTlIEuTgCTDJrTcdycAbL3YX6BFzY9tqFk0H2qVAurVLehrXAR1ZQfEAzzGcbN+PrJ23/YdVjd+B3v0SXj3O5PMEIZRDD4dEvVIjd5pRkW2EooUPXJ0yYhT5KKq5YG7AeQubkeW8k3M+cNreEORiERlCqo8iokh0beABEKpTHxGgR4C8cwZ4J53N2qjuNNcgWylAin6HOiS46DIrULLAyHBCNorNUh8aw7+3//3OhJ4H51nROszl8hB6wGHCxtUeLv5hVhHrhv/SV2Kw0Ou06LAJ1i9EGdF36aXQKj+GQ5pA/k8d2MHtJkf4X/uIbfBfB6AfQiXG4zIn8ffu5RQJqWjpOowbg47n/SC3t+sD/D9JgOSEjTIysmCJiEJhk0t8Ny6bejdXwBtzY9oq1mE+WoVFOrVOD7kepIcvYPmimwoFSnQ5+iQHKdAblUL3NVSBDF4fbE++B6bDElI0GQhJ0uDhCQDNrXcF93T3VlyF7E9S4k35/wBr72hQGKiEilVZ1xpnYFPasXn+Gh5FjKyDchNj8db6jLs734uejEXrI1wl+c4mOx9hs+Ew8O2D7BArURaTj70mgQos8tx+JarUQ6oF4CgNuOb2/0o0Nbgx7YaLJqvhkqhxuqW39C4SI3KDnFri/GbqJ+fhd233Y7npbIdQ5cbYMyf5+CrVCYhvaQKh28OezEM5qcB7B5QVw6/fKBByQGzWx6HXumV+OKj5cjKyIYhNx3xb6lRtr8bz72CG/vwNTS8m4p/xvF+rUO6rgyfHf4PMvM+dedFB0RgthIIpS2MwcCHw9UaDVSrWmES3iLazDhdPg/pddc9gYP1GnZkaLD6eK87ILCa2lGlVcHYbnHf4Py9qRu9UgNtihHHe4RAZwy9P6xDatoWXBxxuRb/wJj3D8Rll6P5nmcRAnvfQSxWV+C89714/BY+zMzCbp9x2868rL83w6hVQrdyD1pvDnj0kHrxSBeq07TYcPqxO82ru0ewQq3DrpsCEL4hoaFuUnQT+R5KZeLzD/QQKA18RrqqkabdgNOPBbu9wt0jK6DW7YLIlOfXI2FpE4R4x6kHSz3g0FGpRGnTsFh17hd8oFmMQ4OuVlUU+DiT+qsX4ozo23QTCNU/wyGvX59/cRNfLEpEzl7PHMrgPm+HpfU9qAp24VK/q15Yn6CjNgfJK9tgER4E/d7fRnGlRosU43F4bt29+GFdKtK2XITz1s0HEHn4R1w2ypvvwXPn5umMoKs6DdoNp+GplndxZIUaul03/eLzW19Gr6BGmwLj8R53oDPW+wPWpaZhi7shkWbrr7eAlzsHf369CHt/feFqw6x42PwvKJI24mehvWFtIyTFWid8nwGs13YgQ7Max3uFlzZWmNqroFUZ0e4xmp8hfCw24zum9yHvH3HILm+Gp7m1o+/gYqgrzoteNI7f+hCZWbtlhwfbLa14T1WAXZf6XW2oFU86apGTvBJtLlmD+6kTnl+7+x3Wx+HiZjWKv+pz0+f1yvnz6yja+yteuPzb+rAZ/1IkYaPbqM9xeq0S6jUteOh6JLENXcauojfwWtYn7rzogAjMVgKhtIVRFvik4m+JOuTl5Xn9G7Cy8XevXhI7nj24jt+Ft3MuK3Pd25Bi2A9hYSruUjXUhQ0wSYa3DZ/cgMLtXe6gQf7GxaGzMgmLGs3uAMlRjL0fhxYrUH7WdXPnHxhz/45lzYOSdGYcKVWjwivyGb+9C1nZH+Oe3AsowVM5M7qbalGmjUdi7hp8fPKe+0YoJOEbJ2VpE4RnVud5Gx7xbzC3XxeSUeDjITGpo1AqE1+Q34dA/kdRj48V59fzQYnEd2yPHL2I268LwRAg/0DCUg8o8JmU8WPg4lD9Mxwq8T6f+rdE6Lzv29kZUCemYHHdaZjc9zwWnx/H7V1ZyN8nmev5vAv/3f2j537uL/DhOlGZtAiNkol09v5DWKwoh/PWzQcQufj7smbJfZR/YXQe65WlaBLfYGF7xPc2bPeLT74dAbjOSiQtapTM67Oj/9BiKMrPul/KiTMOFPjkIX7dWXcQ5bhu/H/YmZGO7b867xnMbYS40EndZy5Vq1HYYJIMbxvGyQ2F2N4l3Mv86MVkM2fgk/v3ZWiW2MZuPoJS0YtGpw9lf3zP67nBo6yjLc7fJ5mH+Rxd/92NHx0PDCx+6szPn90RYuCTF78OZ4V3rE6j4n87M5C+/VdnQaMnsXJuKZokk+VG2lfhLT0FPh7r0tFsJRBKWxhlgY8Wuh2X8fjpUzx1//dh8JW75fTYlBvEvV/OoK3lO3x77BiOfvwOlPo9uOtKOty8DAnr/DUsnmzkb1zP0bQ0ERUdwg1bSM8HREosOjjgDHQcb8pTUXNVms6OweZ3oKk453oLNY47u7OR/5mkMRey9fkcQW/Hl6jMV0BZsgs/e93sLIeXIHHtSZgtFli8/s3NZYhf1e7Jyd+DgScFHTEQCKUy8dmxBz4WHF6SiLUnzSI7WixmNJfFY1W78ObUX+DjEj5gPaDAh8HEMZ0kVP8Mh7IOn9ftwOXHwn37Mbrq9MjZ4+npcZbL5vPcnQYsTDVg09fncNcivbe6NPB3f+PnSyZWwPfW3YlK5SIcdNxLXUPGaq66X4C5uVgOY0niWpw0i++vFnMzyuJXuZNJD+TbEeB501IkVnT4lMMHRMpFB/0s+uAnQIBTbp9V3ex9+KpYjc0XnayY2wiJEvIvWFyJAt5nhtG8LAHrhBeCknw9X/3oxWQzZ+BjSK2Bb3M7iOZ3NKg45+ryGr+D3dn5+Mx3hRmnKNwdNCxMhWHT1zh31+JjG4DNT/nM/Nk91MDHkF4Lr0U1+fGe6PuqGOrNFx0y20z/RWHKNnRLqgP3ax202RT4eHyMjmYrgVDawqgLfIKv6mbHs8ufYHFSAjKWrUN1TR127NiBuvUGxGUJgY8d/Y0Lodro6dnx5wyyNy67GY0lydjkflMlXO3ppnb0SMsMERJS2i0tKNNUwHEvHr+Hj/MWYH+PpPtJSOzv0zaIru16JCw97HrTacfAwRLMeUONTJ0OOsl/YX2XJyd/DwaeFHTEQCCUysRnxxz42AdwsGQO3lBn+thRpytEvZfvyT+QsNQDCnwYTBzTSUL1z3AoK+fz9v7vUJa2Fqe9R1mG4PNc3xU07VyLkkwNtEWrsfO7m55hbrwSfu5vdnMjSpI3wav6OFXmLmKzuhhf9fF3bj8BBP+4OXAQJXPegDrT9/6qK6z3i0+2HYEd5sYSJG/ybYe4i5uhLv4KDnF8cvUTIPiTWxT4hNBGSMqd8H3G3o/GhSps9IEuKcBPLwibzVyBj0+AwJdhh6WlzP2icfzex8hbsB8Bm1uuD1eadmJtSSY02iKs3vkdbgpD8kLwU3m78zL5s6HnGUKgww91Cxr43N+L3Pn1uCl5Bzx+sx4ZFPgIKOlzFhMIpS2MvcCH60ZNSgo2nBcPERq/tROZXj0+L5qXT67Hp1S+x6ejMlHS4yPe/8Tjd8/R+l4qKs6OYvz+pygoacAjP3GP9XQFdNWdMm+e+CHnp7A6fimaXEt6DTctg6rqZ/m0nsL9Phh4J6Hj4ARCqUx8bnIPgUIp9qFvsNj9NnoYTctUqPJZ4k1I7fmUfSBhqgcU+HgozsyjUP0zHBTkfd6K7poMFO737uVm93mPnDa8fNiJhnfToN183jPZ20/gg+dNKHXXMU8u4DpQmSju8fHpOeGTDzdhmUpm5UWvrOQO/T0AP28qle/x6ahEYph6fJjbCIkiE7/PvEDz8sn1+AS3WaDAB8DzVryXWoGzo+O4/2kBShoeSYbdSZT1+mp7+RCdDe8iTbsZ5x2rCbD7qT+7T3ngY2rAAs0WXJb2+PBbHVDg42VNOpytBEJpC2Mu8LH3N2Jh0gZckN4AfqmG2ivw4fjvcnN8zu7Ami9vuQMH66nViCs7LpoYya9Q07lBhcUH+33m7jSWKFAurDsdoMeHd77hEyuRvv40fttXhMVfPxbn5eWdXNdGJBd9icfCxF2v3/DqBN6fW4YW18JcXNcmaN4+CskUJ3ADJjzxnqVrPYXVcWU4Lkx49c6TjpkJhFKZ+EzlHwKdxY1drIbavR8Ph65NGrx9dEjiFxwGTE9EE67lHkjY6gEHfuy9Yb9kp/cRfuGLRYEXN5CtF8zYKGGECITqn+EQy5/P20yNWJxWiQ73fYnF58dxq2El6s65L3KIbDM1oFDpFZD4u79xndigWoyD/eKbqaNXQVHu2jLAf48PuC5s0ryNo743WJhEN1gxSfl2hJ/jswGqxQchFsfZE6QoP+d3js+p1XEo87l5+5Fb1OMDMLcRYhVk5/iw3md+8TPH5+yONfjyltBYWyGrF5PNggQ+GMaJlelYf/o37CtajK9lG1OnwuO3GrCy7pzoHgubCQ2FSteLKBY/deblz+584COrKybW4wN+r7/4Ynwl0Wv4+zK8TosbSDyZvs5GAqG0hTEX+GCsA5VKLbZe8izfyfVfxqeL3sKfdMJQN/4J9FfU61JhbPMsEc09/QnVGSqsOelZ1Y27VoOUeVXo9F43EsBYdy0y0svR9kiYazGG3lYjNKmSVd0kO96LHO5lO4xpxViYV4qD8mManMnHruNDnRILP7kIs9BG8L9wT3HuP1lQr/nRMwnXehV1Oi0q2z2rutn6L2BblhrGU889xXPXUJMyD1WdHk6eH+mIlUAolYnP099D4GjPj9iUmYAlB3vcbyKtV+ug01ai3b18lA39F7YhS22EtynlAh/WevD85CrMTanC+X5Xd6N9GNf2GPDXPy8MGPj4qxes3ChdZAiE6p/hkMqfzwOv0LEhFSVfe96+B/d5O8zHypBkqMeFPtfNkOtDZ60e8aVH8FSIZ/ze38bQXZuB9PI2eG7dvWg1apAqWtXNANkeH1hxtU4HbWW7Z1U3Wz8ubMuC2njKLz6/9WWsG7UZ6Shve+QOcsZ6W2HUpAZY1Y3DtZoUzKvq9PRwOUpmC3zA2kZItJnMfYb7tR66VCPa3Eutcnj6UzUyVGtwUhhCBn96sdgsWOADvGw3Iq14IfJKD/oZQuhU2G4+hrIkA+ov9LlegHLo66yFPr4UR1wOFtxPnXn5tbtfXScY+OAVuqrnIWHJPlzpd453s5pOYqP+H5hDgY/Ek+nrbCQQSlsYRYEPv89NBgz7HrofDOWNZ4f53A4Uq+ZiXvYCFObMR5p+BT5prIYu5xP87jWcjHvYimqDGskZBizI00KpzIKx8YZ4pTSbCSeqC5EcPxdJmVvR6Q48XPv4qJRIyzUgNy0RytxKfHvPa+kV1z4+dTfcF0lEHsGZtf/EnCWHJav6SJLxo87NXdi3Ug9lwjzoCopRXKhHqioFRRuP4rb45Ses91tQla+CUmtAUYEOanU2jAduQLxbiw2mE9UoTI7H3KRMbPUo5ls4nfFLIJTKxGfCj7lOm/M6FCoVVPx/cjKSVUokpZdg4zc3JA8yVtxvqUK+SgmtoQgFOjXU2UYcuCG2JNdRAeWyo/CeLsGPa2eqB/YBXNi1GMlxydAvKELu/Awsrf8UazXe+/g496MS+bHfeuEXFf0wDQRC9c9wiOiYZ2DYh4de916hHNv9z1Gg3eo1KZvB5+3PcL2xEsXpyVCpVVAq1Mh5/zN0CcG7I/MA9zfXnjAqZRpyDblIS1Qit/JbeG7drn186m64e/4FeR2f1vtoqcqHSqmFoagAOrUa2cYDkFRL0SV8j4F8O8JvUcPv46OCMi0Xhtw0JCpzUfntPfHKbOLcYDOdQHVhMuLnJiFzqzAM2o/cdjMOlGjwwS+edoitjRAXOqn7DL+PT2s1DOpkZBgWIE+rhDLLiMYbwrLbzrLk9eKnxDj3XvJvM2Efnzr4b27PYO0/52DJYclqrGI1HXOCnl1vRGVxOpJVaqiUCqhz3sdnXf1ezx4MfsrnG8Du8rr62cdHK9XLDvOBEmg++MUjvfUhTtaXQadMgFKtgXZBBb75bivm59DiBh5IdDRbCYTSFkZR4BOiuYQdovtfyS5Z6cnNjtFBE3pMAxiRaZg96fwc2UcxaOqBaUBuJ2o/17hPW9FVrcU7za5V4NznAxxwL2A29aDHNBhEXqdevU8sGJuIXgFEoJ88BEKpTJ6rQjxy+FgvnljGvBpexjwY64F9zLmL/VDwbeMZC6Zk0UAgIv4ZDkUn4/OM8thHB2HqMWFgQjd+wHF97xNYpuQGO8l2iFFncbIpbCMY7zOYVHvpYj5Rm1m7UK19B81eq6CKeUzgWwT8dAJSuS9xrA5YcsD9nQ6IwGwlEEpbGLuBTyxY98UZlKe/h1bxzpOxIDnJ6CIQSmUiaEQg0gTIPyNNnMqLVgIvzpQj/b1WyUbP0SrtFMhlH8LptSrodv//7du9SgNBEADgh7NNY+8TWImSxkqwEawMFjaC4BtYBhGxEfxptdDCBwiivTKihRoQzcge3q5fkSKw2Zv5ZpZl4HJVYDNbEKhbIHMXGny6qPXTJG7OxrG7NIj5zYtvX2no4vH2LCeQOUzlnmonArMJ6M/ZnKxqV+BpchNn491YGszH5sWnV9FbTPn5Pm4vT+PoYC82FgcxtzCK8+l3oFvMWk4EfhTI3IUGnx85f7Hg4ThGy8NY2zmMu4/Xrn+xkZ/8tUDmMP11rJ7//wT05/+ruYynBR6OR7E8XIudw7uv/7M1vbzub48nsb2yEqvrW7E/vo57r7nXXU/RFxPI3IUGn2LsNmpRIHOYWsxfTv0W0J/9ro/oCBAgQKB7gcxdaPDpvh6eULFA5jBVnKbQKxXQn5UWTtgECBAgUEwgcxcafIqx26hFgcxhajF/OfVbQH/2uz6iI0CAAIHuBTJ3ocGn+3p4QsUCmcNUcZpCr1RAf1ZaOGETIECAQDGBzF1o8CnGbqMWBTKHqcX85dRvAf3Z7/qIjgABAgS6F8jche+Dz+uPfBjoAT2gB/SAHtADekAP6AE9UFMPzDpevQ0+sy62jgABAgQIECBAgAABAjUKGHxqrJqYCRAgQIAAAQIECBBICRh8UlwWEyBAgAABAgQIECBQo4DBp8aqiZkAAQIECBAgQIAAgZTACy50eL+TLxMtAAAAAElFTkSuQmCC;" parent="1" vertex="1">
          <mxGeometry x="585.44" y="1220" width="469.13" height="208" as="geometry" />
        </mxCell>
        <mxCell id="EgE4pv62jT90ue2VEDZU-39" value="Read ADC" style="rounded=1;whiteSpace=wrap;html=1;" parent="1" vertex="1">
          <mxGeometry x="120" y="40" width="120" height="60" as="geometry" />
        </mxCell>
        <mxCell id="EgE4pv62jT90ue2VEDZU-40" value="Inicializar DAC" style="rounded=1;whiteSpace=wrap;html=1;" parent="1" vertex="1">
          <mxGeometry x="320" y="40" width="120" height="60" as="geometry" />
        </mxCell>
        <mxCell id="EgE4pv62jT90ue2VEDZU-43" value="Interrupciones" style="rounded=1;whiteSpace=wrap;html=1;" parent="1" vertex="1">
          <mxGeometry x="1000" y="160" width="120" height="60" as="geometry" />
        </mxCell>
        <mxCell id="EgE4pv62jT90ue2VEDZU-47" value="Activar Carga&lt;br&gt;(Modo)" style="rounded=1;whiteSpace=wrap;html=1;" parent="1" vertex="1">
          <mxGeometry x="120" y="200" width="120" height="60" as="geometry" />
        </mxCell>
        <mxCell id="EgE4pv62jT90ue2VEDZU-53" value="Cambiar valor&lt;br&gt;(valor)" style="rounded=1;whiteSpace=wrap;html=1;" parent="1" vertex="1">
          <mxGeometry x="320" y="120" width="120" height="60" as="geometry" />
        </mxCell>
        <mxCell id="EgE4pv62jT90ue2VEDZU-54" value="Apagar Carga" style="rounded=1;whiteSpace=wrap;html=1;" parent="1" vertex="1">
          <mxGeometry x="320" y="200" width="120" height="60" as="geometry" />
        </mxCell>
        <mxCell id="EgE4pv62jT90ue2VEDZU-55" value="Control valor&lt;br&gt;(valor)" style="rounded=1;whiteSpace=wrap;html=1;" parent="1" vertex="1">
          <mxGeometry x="120" y="120" width="120" height="60" as="geometry" />
        </mxCell>
        <mxCell id="EgE4pv62jT90ue2VEDZU-56" value="Enviar Datos UI/UX" style="rounded=1;whiteSpace=wrap;html=1;" parent="1" vertex="1">
          <mxGeometry x="520" y="120" width="120" height="60" as="geometry" />
        </mxCell>
        <mxCell id="TbY6Uy7gYrQI7i52C0bx-1" value="" style="edgeStyle=orthogonalEdgeStyle;rounded=0;orthogonalLoop=1;jettySize=auto;html=1;entryX=0;entryY=0.5;entryDx=0;entryDy=0;" edge="1" parent="1" source="EgE4pv62jT90ue2VEDZU-57" target="EgE4pv62jT90ue2VEDZU-58">
          <mxGeometry relative="1" as="geometry" />
        </mxCell>
        <mxCell id="EgE4pv62jT90ue2VEDZU-57" value="Control valor&lt;br&gt;(valor)" style="rounded=1;whiteSpace=wrap;html=1;" parent="1" vertex="1">
          <mxGeometry x="120" y="520" width="120" height="60" as="geometry" />
        </mxCell>
        <mxCell id="EgE4pv62jT90ue2VEDZU-58" value="Read ADC" style="rounded=1;whiteSpace=wrap;html=1;" parent="1" vertex="1">
          <mxGeometry x="240" y="600" width="120" height="60" as="geometry" />
        </mxCell>
        <mxCell id="EgE4pv62jT90ue2VEDZU-59" value="Cambiar valor&lt;br&gt;(valor)" style="rounded=1;whiteSpace=wrap;html=1;" parent="1" vertex="1">
          <mxGeometry x="240" y="740" width="120" height="60" as="geometry" />
        </mxCell>
        <mxCell id="TbY6Uy7gYrQI7i52C0bx-7" style="edgeStyle=orthogonalEdgeStyle;rounded=0;orthogonalLoop=1;jettySize=auto;html=1;exitX=0.5;exitY=1;exitDx=0;exitDy=0;entryX=0.5;entryY=0;entryDx=0;entryDy=0;" edge="1" parent="1" source="TbY6Uy7gYrQI7i52C0bx-3" target="EgE4pv62jT90ue2VEDZU-57">
          <mxGeometry relative="1" as="geometry" />
        </mxCell>
        <mxCell id="TbY6Uy7gYrQI7i52C0bx-3" value="Activar Carga&lt;br&gt;(Modo)" style="rounded=1;whiteSpace=wrap;html=1;" vertex="1" parent="1">
          <mxGeometry x="120" y="440" width="120" height="60" as="geometry" />
        </mxCell>
        <mxCell id="TbY6Uy7gYrQI7i52C0bx-8" value="Calculo y Ajuste" style="rounded=1;whiteSpace=wrap;html=1;" vertex="1" parent="1">
          <mxGeometry x="240" y="670" width="120" height="60" as="geometry" />
        </mxCell>
        <mxCell id="TbY6Uy7gYrQI7i52C0bx-10" value="" style="endArrow=classic;html=1;rounded=0;entryX=0;entryY=0.5;entryDx=0;entryDy=0;" edge="1" parent="1" target="TbY6Uy7gYrQI7i52C0bx-8">
          <mxGeometry width="50" height="50" relative="1" as="geometry">
            <mxPoint x="179.71" y="630" as="sourcePoint" />
            <mxPoint x="179.71" y="700" as="targetPoint" />
            <Array as="points">
              <mxPoint x="180" y="700" />
            </Array>
          </mxGeometry>
        </mxCell>
        <mxCell id="TbY6Uy7gYrQI7i52C0bx-11" value="" style="endArrow=classic;html=1;rounded=0;entryX=0;entryY=0.5;entryDx=0;entryDy=0;" edge="1" parent="1" target="EgE4pv62jT90ue2VEDZU-59">
          <mxGeometry width="50" height="50" relative="1" as="geometry">
            <mxPoint x="180" y="700" as="sourcePoint" />
            <mxPoint x="450" y="650" as="targetPoint" />
            <Array as="points">
              <mxPoint x="180" y="770" />
            </Array>
          </mxGeometry>
        </mxCell>
        <mxCell id="TbY6Uy7gYrQI7i52C0bx-13" value="Enviar Datos UI/UX" style="rounded=1;whiteSpace=wrap;html=1;" vertex="1" parent="1">
          <mxGeometry x="240" y="810" width="120" height="60" as="geometry" />
        </mxCell>
        <mxCell id="TbY6Uy7gYrQI7i52C0bx-14" value="" style="endArrow=classic;html=1;rounded=0;entryX=0;entryY=0.5;entryDx=0;entryDy=0;" edge="1" parent="1" target="TbY6Uy7gYrQI7i52C0bx-13">
          <mxGeometry width="50" height="50" relative="1" as="geometry">
            <mxPoint x="180" y="770" as="sourcePoint" />
            <mxPoint x="180" y="850" as="targetPoint" />
            <Array as="points">
              <mxPoint x="180" y="840" />
            </Array>
          </mxGeometry>
        </mxCell>
        <mxCell id="TbY6Uy7gYrQI7i52C0bx-16" value="" style="endArrow=classic;html=1;rounded=0;entryX=0.5;entryY=0;entryDx=0;entryDy=0;" edge="1" parent="1">
          <mxGeometry width="50" height="50" relative="1" as="geometry">
            <mxPoint x="180" y="840" as="sourcePoint" />
            <mxPoint x="180" y="880" as="targetPoint" />
          </mxGeometry>
        </mxCell>
        <mxCell id="TbY6Uy7gYrQI7i52C0bx-23" value="" style="edgeStyle=orthogonalEdgeStyle;rounded=0;orthogonalLoop=1;jettySize=auto;html=1;" edge="1" parent="1" source="TbY6Uy7gYrQI7i52C0bx-17" target="TbY6Uy7gYrQI7i52C0bx-22">
          <mxGeometry relative="1" as="geometry" />
        </mxCell>
        <mxCell id="TbY6Uy7gYrQI7i52C0bx-17" value="Apagaron la carga?" style="strokeWidth=1;html=1;shape=mxgraph.flowchart.decision;whiteSpace=wrap;" vertex="1" parent="1">
          <mxGeometry x="140" y="880" width="80" height="80" as="geometry" />
        </mxCell>
        <mxCell id="TbY6Uy7gYrQI7i52C0bx-19" value="No" style="text;html=1;align=center;verticalAlign=middle;resizable=0;points=[];autosize=1;strokeColor=none;fillColor=none;" vertex="1" parent="1">
          <mxGeometry x="200" y="888" width="40" height="30" as="geometry" />
        </mxCell>
        <mxCell id="TbY6Uy7gYrQI7i52C0bx-20" value="" style="endArrow=classic;html=1;rounded=0;exitX=0.482;exitY=1.081;exitDx=0;exitDy=0;exitPerimeter=0;entryX=1;entryY=0.5;entryDx=0;entryDy=0;" edge="1" parent="1" source="TbY6Uy7gYrQI7i52C0bx-19" target="EgE4pv62jT90ue2VEDZU-57">
          <mxGeometry width="50" height="50" relative="1" as="geometry">
            <mxPoint x="400" y="840" as="sourcePoint" />
            <mxPoint x="400" y="550" as="targetPoint" />
            <Array as="points">
              <mxPoint x="400" y="920" />
              <mxPoint x="400" y="550" />
            </Array>
          </mxGeometry>
        </mxCell>
        <mxCell id="TbY6Uy7gYrQI7i52C0bx-21" value="Si" style="text;html=1;align=center;verticalAlign=middle;resizable=0;points=[];autosize=1;strokeColor=none;fillColor=none;" vertex="1" parent="1">
          <mxGeometry x="125" y="938" width="30" height="30" as="geometry" />
        </mxCell>
        <mxCell id="TbY6Uy7gYrQI7i52C0bx-22" value="Apagar Carga" style="rounded=1;whiteSpace=wrap;html=1;" vertex="1" parent="1">
          <mxGeometry x="120" y="990" width="120" height="60" as="geometry" />
        </mxCell>
        <mxCell id="TbY6Uy7gYrQI7i52C0bx-26" value="" style="edgeStyle=orthogonalEdgeStyle;rounded=0;orthogonalLoop=1;jettySize=auto;html=1;entryX=0;entryY=0.5;entryDx=0;entryDy=0;" edge="1" parent="1" source="TbY6Uy7gYrQI7i52C0bx-24" target="TbY6Uy7gYrQI7i52C0bx-25">
          <mxGeometry relative="1" as="geometry" />
        </mxCell>
        <mxCell id="TbY6Uy7gYrQI7i52C0bx-24" value="Apagar Carga" style="rounded=1;whiteSpace=wrap;html=1;" vertex="1" parent="1">
          <mxGeometry x="520" y="440" width="120" height="60" as="geometry" />
        </mxCell>
        <mxCell id="TbY6Uy7gYrQI7i52C0bx-25" value="Control valor&lt;br&gt;(null)" style="rounded=1;whiteSpace=wrap;html=1;" vertex="1" parent="1">
          <mxGeometry x="630" y="540" width="120" height="60" as="geometry" />
        </mxCell>
        <mxCell id="TbY6Uy7gYrQI7i52C0bx-27" value="Enviar Datos UI/UX" style="rounded=1;whiteSpace=wrap;html=1;" vertex="1" parent="1">
          <mxGeometry x="630" y="620" width="120" height="60" as="geometry" />
        </mxCell>
        <mxCell id="TbY6Uy7gYrQI7i52C0bx-28" value="" style="endArrow=classic;html=1;rounded=0;entryX=0;entryY=0.5;entryDx=0;entryDy=0;" edge="1" parent="1" target="TbY6Uy7gYrQI7i52C0bx-27">
          <mxGeometry width="50" height="50" relative="1" as="geometry">
            <mxPoint x="580" y="570" as="sourcePoint" />
            <mxPoint x="630" y="520" as="targetPoint" />
            <Array as="points">
              <mxPoint x="580" y="650" />
            </Array>
          </mxGeometry>
        </mxCell>
        <mxCell id="TbY6Uy7gYrQI7i52C0bx-29" value="Cambiar valor&lt;br&gt;(valor)" style="rounded=1;whiteSpace=wrap;html=1;" vertex="1" parent="1">
          <mxGeometry x="120" y="280" width="120" height="60" as="geometry" />
        </mxCell>
        <mxCell id="TbY6Uy7gYrQI7i52C0bx-30" value="Establecer DAC" style="rounded=1;whiteSpace=wrap;html=1;" vertex="1" parent="1">
          <mxGeometry x="200" y="350" width="120" height="60" as="geometry" />
        </mxCell>
        <mxCell id="TbY6Uy7gYrQI7i52C0bx-31" value="Setear DAC" style="rounded=1;whiteSpace=wrap;html=1;" vertex="1" parent="1">
          <mxGeometry x="520" y="40" width="120" height="60" as="geometry" />
        </mxCell>
        <mxCell id="TbY6Uy7gYrQI7i52C0bx-32" value="Reset DAC" style="rounded=1;whiteSpace=wrap;html=1;" vertex="1" parent="1">
          <mxGeometry x="720" y="40" width="120" height="60" as="geometry" />
        </mxCell>
      </root>
    </mxGraphModel>
  </diagram>
</mxfile>
